<svg width="52" height="123" viewBox="0 0 52 123" fill="none" xmlns="http://www.w3.org/2000/svg">
<g clip-path="url(#clip0)">
<path d="M22.2291 7.77094C22.2291 7.77094 18.4865 7.77094 19.1386 3.65692C19.1386 3.65692 21.388 5.71393 23.798 4.8637C23.798 4.8637 23.9871 7.62466 22.2291 7.77094Z" fill="#973320"/>
<path d="M15.4527 27.1708L14.2618 27.4177C14.2618 27.4177 11.0106 40.9482 12.2298 44.1572C13.449 47.3661 15.4149 44.1937 16.0292 43.9012C16.6435 43.6086 22.0779 28.725 22.0779 28.725L15.4527 27.1708Z" fill="#E89776"/>
<path d="M11.3604 42.4658L13.4963 26.7503C14.7722 22.6179 19.4694 24.1447 19.4694 24.1447C22.9946 25.4063 22.4276 28.0942 22.4276 28.0942L17.6075 44.2394C17.6075 44.2394 16.6908 46.6895 13.3451 46.3604C13.3356 46.3604 10.9067 45.7936 11.3604 42.4658Z" fill="#051E3D"/>
<path d="M17.1161 111.49C17.1161 111.49 16.4829 113.867 15.7079 114.507C14.9329 115.147 11.9747 116.098 11.9747 116.098L10.3396 116.326C10.3396 116.326 9.2055 117.112 12.3244 117.944C15.4527 118.776 20.9343 116.271 20.9343 116.271L19.6962 111.417L17.1161 111.49Z" fill="#321613"/>
<path d="M33.5987 116.664C34.1468 115.832 35.3093 111.298 35.3093 111.298L37.8611 111.225L39.4584 116.216C39.4584 116.216 39.7135 117.048 39.1937 117.368C39.1937 117.368 36.0087 118.438 33.2868 117.314C33.2868 117.314 33.3246 117.094 33.5987 116.664Z" fill="#321613"/>
<path d="M17.7587 47.8232L14.4981 28.533C14.4981 28.533 13.3734 25.6349 15.6228 24.1813L24.1949 20.2958H30.2342L40.5359 26.1835L33.7878 47.8232H17.7587Z" fill="#F5A987"/>
<path d="M33.7876 47.8232C33.7876 47.8232 35.64 51.9098 36.0842 61.308C36.0842 61.308 22.1627 65.5317 17.7869 61.308L17.7585 47.8232H33.7876Z" fill="#09284E"/>
<path d="M24.658 61.2715C24.6391 64.4255 27.172 66.9945 30.3286 67.0219C33.4853 67.0402 36.0655 64.5078 36.0844 61.3537C36.1033 58.1996 33.5704 55.6307 30.4137 55.6032C27.257 55.5758 24.6769 58.1174 24.658 61.2715Z" fill="#09284E"/>
<path d="M36.075 62.0394L37.5872 88.8902C37.5872 88.8902 34.903 92.2912 30.1586 88.4514L25.0077 63.7582C25.0077 63.7582 27.5123 55.457 36.075 62.0394Z" fill="#09284E"/>
<path d="M36.4057 85.7544C36.4057 85.7544 39.0142 90.5541 38.5889 98.4073L39.0142 113.081L34.7045 113.209L30.1774 88.5337C30.1868 88.5337 32.5874 80.2508 36.4057 85.7544Z" fill="#09284E"/>
<path d="M17.8154 61.3263C17.4846 64.4621 18.6471 67.1499 21.7849 67.4516C24.9227 67.7624 27.7391 65.4677 28.0699 62.3319C28.4007 59.1961 26.123 56.3986 22.9852 56.0969C19.838 55.7861 18.1462 58.1905 17.8154 61.3263Z" fill="#09284E"/>
<path d="M26.7278 65.4494L23.505 89.9873C23.505 89.9873 17.8059 90.7187 16.7002 86.9703C16.7002 86.9703 16.6245 69.6457 17.8248 61.3171C17.8154 61.3263 25.5369 57.6876 26.7278 65.4494Z" fill="#09284E"/>
<path d="M23.1457 87.8206C23.1457 87.8206 24.1759 91.4958 23.2308 97.4199L20.8964 113.995L16.2842 113.684L16.7001 86.9795C16.6906 86.9704 19.233 83.2586 23.1457 87.8206Z" fill="#09284E"/>
<path d="M39.6379 28.5604L40.8099 28.8621C40.8099 28.8621 42.6434 42.4658 41.2635 45.6108C39.8931 48.7648 38.5983 45.6382 37.9934 45.3182C37.398 44.9982 32.9276 29.8129 32.9276 29.8129L39.6379 28.5604Z" fill="#F5A987"/>
<path d="M36.4813 45.1993L32.6347 29.1821C33.4286 24.8487 37.6911 25.1595 37.6911 25.1595C41.4337 25.4886 41.6133 28.2222 41.6133 28.2222L41.859 44.5137C41.859 44.5137 42.1047 47.3021 39.9404 47.1466C39.9404 47.1375 36.831 46.6712 36.4813 45.1993Z" fill="#051E3D"/>
<path d="M30.2625 16.0355V22.2797H23.4293C23.4293 22.2797 25.1116 19.8021 24.2705 16.0355H30.2625Z" fill="#F5A987"/>
<path d="M26.8033 21.3472C26.189 21.7312 24.8753 22.5448 24.1287 22.0694C23.9302 21.9414 23.8357 21.7769 23.8073 21.5849C24.2421 20.5975 24.847 18.6228 24.2799 16.0447H30.2625V16.6115C29.5158 18.4308 28.5613 20.2501 26.8033 21.3472Z" fill="#E28C72"/>
<path d="M30.4325 16.127C30.4325 16.127 31.595 15.6424 32.9087 12.854C32.9087 12.854 35.7629 9.56282 33.7404 5.82364C33.7404 5.82364 32.5401 2.66041 26.7465 3.54721C26.7465 3.54721 26.2267 12.0221 30.4325 16.127Z" fill="#F5A47F"/>
<path d="M23.2874 17.8188L22.8999 16.8406L21.8319 13.1928C21.6996 12.7357 21.6901 12.1231 21.7752 11.6477C21.8697 11.1358 21.9264 10.5964 21.7941 10.057C21.1231 7.43317 22.5124 5.95212 22.5124 5.95212C24.0435 3.48371 27.805 3.40143 27.805 3.40143C32.4739 3.51114 32.9653 7.86285 32.9653 7.86285C33.7876 10.7427 31.4626 13.2111 31.4626 13.2202C31.2736 13.4213 31.3964 14.3721 31.3492 14.6464C31.1318 15.8075 30.0071 16.548 28.9958 17.06C27.8901 17.6268 26.5575 18.2302 25.3194 18.3673C24.8468 18.413 23.5048 18.3765 23.2874 17.8188Z" fill="#F5A987"/>
<path d="M34.8936 47.3021C34.8747 47.942 35.8859 54.6707 35.4606 54.753C35.4606 54.753 23.9303 57.322 17.7871 54.753L17.7587 47.8232L14.4981 28.533C14.4981 28.533 13.3734 25.6349 15.6228 24.1813L24.1949 20.2958L23.6184 21.978L24.8565 25.3881L30.2342 20.2958L40.5359 26.1835C39.9594 28.0302 39.3923 29.8769 38.8158 31.7237C37.7573 35.1246 36.7176 38.5347 35.6308 41.9264C35.6213 41.9264 34.714 45.6108 34.8936 47.3021Z" fill="white"/>
<path d="M25.5938 21.5117L25.6694 24.611L26.8508 23.4956L25.5938 21.5117Z" fill="#B5CDCF"/>
<path d="M24.091 26.5126C24.091 26.7595 24.2989 26.9514 24.5446 26.9514C24.7998 26.9514 24.9983 26.7503 24.9983 26.5126C24.9983 26.2658 24.7904 26.0738 24.5446 26.0738C24.2989 26.0738 24.091 26.2749 24.091 26.5126Z" fill="#DAEDEB"/>
<path d="M24.091 34.5669C24.091 34.8137 24.2989 35.0057 24.5446 35.0057C24.7998 35.0057 24.9983 34.8046 24.9983 34.5669C24.9983 34.32 24.7904 34.128 24.5446 34.128C24.2989 34.1189 24.091 34.32 24.091 34.5669Z" fill="#DAEDEB"/>
<path d="M24.091 42.603C24.091 42.8498 24.2989 43.0509 24.5446 43.0509C24.7998 43.0509 24.9983 42.8498 24.9983 42.603C24.9983 42.3561 24.7904 42.1641 24.5446 42.1641C24.2989 42.1641 24.091 42.3653 24.091 42.603Z" fill="#DAEDEB"/>
<path d="M24.091 50.6573C24.091 50.9041 24.2989 51.0961 24.5446 51.0961C24.7998 51.0961 24.9983 50.895 24.9983 50.6573C24.9983 50.4104 24.7904 50.2184 24.5446 50.2184C24.2989 50.2093 24.091 50.4104 24.091 50.6573Z" fill="#DAEDEB"/>
<path d="M25.5935 24.9675V55.5027" stroke="#DAEDEB" stroke-width="2.6231" stroke-miterlimit="10"/>
<path d="M17.8626 55.3929C17.8626 55.3929 23.7507 58.0625 35.8008 55.3381C35.9993 55.2924 35.9143 54.7987 35.9143 54.7987L35.8008 53.6742C35.7441 53.3176 35.5362 53.3359 35.5362 53.3359C35.5362 53.3359 24.0059 55.9049 17.8626 53.3359C17.8626 53.3359 17.6169 53.2902 17.6075 53.6559V55.0364C17.598 55.0364 17.598 55.3198 17.8626 55.3929Z" fill="#4E250D"/>
<path d="M23.8352 56.2341C23.8352 56.4078 23.977 56.5541 24.1566 56.5541H26.5004C26.68 56.5541 26.8218 56.4078 26.8218 56.2341V54.5976C26.8218 54.4239 26.68 54.2776 26.5004 54.2776H24.1566C23.977 54.2776 23.8352 54.4239 23.8352 54.5976V56.2341Z" stroke="#C6C6C6" stroke-width="4.2914" stroke-miterlimit="10"/>
<path d="M26.8318 55.3199H25.5937" stroke="#C6C6C6" stroke-width="4.2914" stroke-miterlimit="10"/>
<path d="M25.5936 21.4386C25.5936 21.4386 29.374 20.0215 30.2625 18.6045L31.3777 20.6615L27.3893 24.355L25.5841 21.5026" fill="#CDE8EA"/>
<path d="M22.3615 6.13446C22.5316 4.94596 26.5389 5.57678 27.5879 5.76877C28.2212 5.87847 28.9583 6.07046 29.308 6.66471C29.4309 6.88412 29.9413 8.43831 29.3175 9.2154C29.8656 10.8884 29.998 12.1775 29.998 12.1775L30.3193 12.1958C30.9431 13.7591 31.0659 15.6424 31.0659 15.6424C31.0659 15.6424 33.4098 14.6642 35.0259 10.5319C36.6704 5.27508 32.6254 2.95295 32.6254 2.95295C28.9205 1.39877 25.2157 1.81931 25.2157 1.81931C25.2157 1.81931 21.4825 2.14843 20.6414 0C20.6508 0 18.288 4.94596 22.3615 6.13446Z" fill="#973320"/>
<path d="M30.7634 13.6494C30.9335 13.7865 31.1414 13.8688 31.4155 13.8779C32.1621 13.8962 32.8048 13.2563 32.8615 12.4426C32.9182 11.6289 32.3606 10.9433 31.6234 10.925C31.2737 10.9158 30.9429 11.053 30.6878 11.2907C30.3097 11.6381 30.2719 12.2963 30.3286 12.7626C30.3853 13.1191 30.5176 13.4391 30.7634 13.6494Z" fill="#F5A987"/>
<path d="M31.2926 11.6656C31.3588 11.2359 32.2378 11.693 32.0865 11.9215C32.0015 12.0587 31.8408 12.1501 31.7085 12.2415C31.5289 12.3695 31.4439 12.4884 31.4061 12.6986C31.4061 12.7261 31.3966 12.7992 31.4155 12.8175C31.5289 12.8998 31.9259 12.4975 32.0204 12.4152C32.1905 12.2507 32.2283 11.949 32.1622 11.7295C32.0865 11.501 31.9353 11.3821 31.6801 11.3821C31.4817 11.3821 31.2737 11.3913 31.2737 11.629C31.2832 11.6381 31.2832 11.6838 31.2926 11.6656Z" fill="#EA8F72"/>
<path d="M31.5572 12.1226C31.4722 12.0312 31.3777 12.0952 31.2737 12.1592C31.1792 12.2141 31.1319 12.3055 31.1036 12.4061C31.0374 12.6255 31.0563 12.9272 31.1792 13.1283C31.2737 13.2929 31.4533 13.3934 31.6517 13.4026C31.9258 13.4026 32.0109 13.1832 32.0392 12.9546C32.0487 12.8997 32.0581 12.7535 32.0014 12.7169C31.9353 12.6712 31.888 12.7717 31.8408 12.8083C31.7746 12.8632 31.6896 12.8815 31.6045 12.8815C31.4533 12.8906 31.3021 12.8083 31.2075 12.6895C31.1886 12.6712 31.1792 12.6438 31.1697 12.6163C31.1603 12.7626 31.1697 12.79 31.1886 12.7169C31.1981 12.6803 31.217 12.6438 31.2454 12.6163C31.3115 12.5158 31.4249 12.4518 31.4911 12.3603C31.5289 12.3238 31.595 12.1684 31.5572 12.1226Z" fill="#EA8F72"/>
<path d="M31.9448 21.274L27.361 36.8433L28.0415 65.1295C28.0415 65.1295 35.9048 65.6963 39.0142 62.9719L36.0749 45.4645L40.5264 26.1834L31.9448 21.274Z" fill="#051E3D"/>
<path d="M21.8037 21.3837L16.5867 23.7516C16.5867 23.7516 13.619 24.5104 14.2239 27.4816L15.9346 43.9742L13.0898 62.9719C13.0898 62.9719 15.5282 65.806 20.386 64.1421L22.522 36.4227L21.8037 21.3837Z" fill="#051E3D"/>
<path d="M22.4086 21.594C22.4086 21.594 22.7583 20.2958 24.4595 19.1987L24.2326 23.6784C24.2326 23.6784 23.2875 21.3837 22.4086 21.594Z" fill="#CDE8EA"/>
<path d="M22.2481 23.6785L22.3993 21.594C22.9191 21.4661 23.3822 22.1792 23.7603 22.7551L22.2481 23.6785Z" fill="#B5CDCF"/>
<path d="M25.9717 22.6371L26.104 22.3812L27.0586 23.7891L26.2458 24.0725L25.9717 22.6371Z" fill="#D42A26"/>
<path d="M23.7695 22.7551L23.5049 22.362C23.5049 22.362 22.4936 23.1848 23.5522 24.0716C23.5522 24.0716 23.5522 23.3402 23.7695 22.7551Z" fill="#D42A26"/>
<path d="M25.9718 22.6363C25.9718 22.6363 25.1685 23.3311 23.7697 22.7643C23.4673 23.1391 23.4673 23.6145 23.5523 24.0808L24.2706 25.5252H25.2819L26.2364 24.0808C26.2459 24.0716 26.3404 23.7516 25.9718 22.6363Z" fill="#D42A26"/>
<path d="M25.2817 25.5161L26.0945 46.1227L24.3933 49.3225L23.0134 46.141L24.2799 25.5161H25.2817Z" fill="#A8241B"/>
<path d="M30.9146 38.5712L33.0128 36.9714C33.0128 36.9714 36.1694 36.5234 37.7383 36.7154C37.7383 36.7154 38.2581 37.4193 34.2792 37.5199C34.2792 37.5199 37.0673 38.3793 37.9651 39.0192C37.9651 39.0192 38.1069 39.8146 35.5551 38.6535L34.3926 38.5712L37.0956 39.8786C37.0956 39.8786 36.9917 40.3723 34.5344 39.7323L32.0676 39.9974L30.9146 38.5712Z" fill="#F5A987"/>
<path d="M17.5036 38.8729L30.9998 37.3096C31.6708 38.1049 32.3229 39.5586 32.0394 41.067L14.8005 46.3604C14.8005 46.3604 10.2451 47.1375 11.4454 41.835C11.4454 41.835 13.364 39.1289 17.5036 38.8729Z" fill="#041B39"/>
<path d="M17.5036 38.8729C17.5036 38.8729 19.9325 40.1346 20.8398 40.2351L22.248 37.8764L20.32 36.6696L18.9969 36.3771C18.9969 36.3771 16.8231 35.8377 16.2466 38.7175L17.5036 38.8729Z" fill="#F5A987"/>
<path d="M41.6322 43.4349C42.445 48.2072 38.863 47.0004 38.863 47.0004L20.5751 40.6373C21.0949 37.8947 22.248 37.465 22.248 37.465L37.8895 40.3539C37.8895 40.3539 40.8383 41.2499 41.6322 43.4349Z" fill="#0A2B52"/>
</g>
<defs>
<clipPath id="clip0">
<rect width="52" height="123" fill="white" transform="matrix(-1 0 0 1 52 0)"/>
</clipPath>
</defs>
</svg>
