<svg width="58" height="115" viewBox="0 0 58 115" fill="none" xmlns="http://www.w3.org/2000/svg">
<path d="M9.75578 17.9732L8.83005 15.5028C8.83005 15.5028 8.75885 13.283 7.72631 12.567C7.04982 12.8892 7.40587 14.6077 7.01422 14.1423C6.65817 13.6411 4.6287 11.0274 4.6287 11.0274C4.45068 10.7768 4.05903 10.7768 3.8454 10.9916C3.16891 11.7435 2.88408 12.746 3.02649 13.7485L3.20452 14.7152C3.31133 15.4312 3.63177 16.1115 4.09463 16.6843L4.20145 16.7917C4.6287 17.293 5.16277 17.651 5.76805 17.9016L7.79752 19.9424L9.75578 17.9732Z" fill="#D8ADA6"/>
<path d="M7.655 17.1497L0 0L8.54512 16.7201C8.68754 16.9707 8.58072 17.293 8.33149 17.4004C8.08226 17.5078 7.79742 17.4362 7.655 17.1497Z" fill="#1D2B78"/>
<path d="M16.6273 33.4403L15.2031 27.8549L30.7268 21.7684C32.3646 20.9807 34.3584 21.84 34.8925 23.6302C35.4266 25.4203 33.7176 28.4278 31.2964 29.7167C28.8753 31.0056 16.6273 33.4403 16.6273 33.4403Z" fill="#F4F8F2"/>
<path d="M16.2713 27.2462C14.5623 27.1746 13.1381 28.5351 13.0669 30.2537C12.9957 31.9723 14.3487 33.4044 16.0577 33.476C17.7667 33.5476 19.1909 32.1871 19.2621 30.4685C19.3333 28.75 17.9803 27.3178 16.2713 27.2462Z" fill="#F4F8F2"/>
<path d="M5.5188 20.5153L13.7435 32.3303L18.7281 28.6068L10.8239 16.9349L5.5188 20.5153Z" fill="#F4F8F2"/>
<path d="M10.8239 16.9349L5.5188 20.5153L13.4942 31.9365C13.5655 32.0439 13.6367 32.1871 13.7435 32.2945C14.2775 32.9748 15.0965 33.4044 16.0222 33.4402C16.3426 33.4402 16.6275 33.4044 16.9123 33.3328C18.3721 33.0822 24.2112 31.8649 28.1278 30.7908" stroke="#1D2B78" stroke-width="1.0639" stroke-miterlimit="10" stroke-linecap="round" stroke-linejoin="round"/>
<path d="M46.7845 11.3138C46.8557 10.0607 46.6065 8.80758 46.0012 7.76928C45.4671 6.8742 44.8619 6.22974 43.9005 5.7643C43.1172 5.37047 42.2983 5.11984 41.5506 4.6902C40.6961 4.22476 39.9128 3.5445 39.0227 3.07906C37.3849 2.25558 35.4266 2.72103 34.9282 4.6186C34.4653 6.30135 35.035 8.05571 34.6789 9.73846C33.9668 13.0682 36.0675 16.3263 39.3787 17.0423C41.6931 17.5436 44.1498 16.6127 45.574 14.7151C46.2861 13.82 46.7133 12.5669 46.7845 11.3138Z" fill="#3D6CFB"/>
<path d="M38.4886 6.94582C37.3848 6.7668 36.4947 7.05322 35.8894 7.44706C35.2129 7.8767 34.7145 8.52116 34.4652 9.27303L34.2516 9.91748C34.2516 9.95329 34.2516 9.98909 34.2516 10.0249V9.98909L33.6107 11.8509C32.7206 14.3929 33.86 17.2213 36.2455 18.1164C38.6666 19.0115 41.3725 17.6152 42.227 15.0373L43.0103 12.7817C42.9747 12.7817 44.4701 8.34214 38.4886 6.94582Z" fill="#D8ADA6"/>
<path d="M39.4856 7.23224C40.0197 7.41126 40.5537 7.69769 41.0166 8.01992C41.3726 8.23473 41.7287 8.52116 41.9779 8.84339C42.868 9.95329 41.6219 11.8151 41.0878 12.7817C40.9454 13.0324 40.803 13.3188 40.9098 13.5694C41.0522 13.82 41.4082 13.8558 41.6575 13.7126C41.9067 13.5694 42.0491 13.283 42.2628 13.0682C42.4408 12.8534 42.7256 12.7101 43.0105 12.7101L44.043 7.98411C44.043 7.94831 40.7674 7.30385 40.5537 7.26805C40.1265 7.16064 39.4856 7.23224 39.4856 7.23224Z" fill="#3D6CFB"/>
<path d="M32.5071 112.53L38.3106 115L38.8803 73.5398H29.2314L32.5071 112.53Z" fill="#1D2B78"/>
<path d="M32.4713 111.563L36.7795 111.276L38.2749 115H24.7451C24.7451 113.174 32.4713 111.563 32.4713 111.563Z" fill="#1D2B78"/>
<path d="M44.4702 112.53L50.2381 115L50.8078 73.5398H41.1589L44.4702 112.53Z" fill="#1D2B78"/>
<path d="M44.4345 111.563L48.7426 111.276L50.238 115H36.7083C36.7083 113.174 44.4345 111.563 44.4345 111.563Z" fill="#1D2B78"/>
<path d="M53.8697 75.151C45.0042 77.0486 33.7887 77.0486 24.9587 75.151C25.5996 59.2901 26.5966 42.7491 28.6972 25.8857C28.9465 23.7733 30.4775 21.9474 32.2221 21.8042C35.9606 21.4819 43.7224 21.5535 47.4609 21.9116C49.2055 22.0906 50.7365 23.9524 50.9858 26.1006C52.8372 42.8207 53.4781 59.2543 53.8697 75.151Z" fill="#F4F8F2"/>
<path d="M34.5365 21.8041L35.1061 23.5585L34.1804 26.1363L36.6015 35.839L43.9717 26.6734L43.0816 24.3104L45.0042 21.8399" stroke="#1D2B78" stroke-width="1.0639" stroke-miterlimit="10" stroke-linecap="round" stroke-linejoin="round"/>
<path d="M36.9221 22.1264L39.0584 22.3412L42.5121 22.1264L41.6575 15.2522L37.207 15.7534L36.9221 22.1264Z" fill="#D8ADA6"/>
<path d="M35.7827 21.5893L36.5304 35.839L43.5801 21.4819L39.0227 22.3412L35.7827 21.5893Z" fill="#73B0E5"/>
<path d="M39.0227 22.3412L36.9933 20.1214L35.7827 21.5893L37.3137 25.3845L39.0227 22.3412Z" fill="#A7DCFC"/>
<path d="M43.5801 21.4819L42.1915 19.5128L39.0227 22.3412L40.1977 25.3845L43.5801 21.4819Z" fill="#A7DCFC"/>
<path d="M39.0227 22.3412L40.1976 25.3845L38.7378 26.8882L38.0614 32.7241L36.5304 35.839L36.3879 32.2945L38.0258 26.924L37.3137 25.3845L39.0227 22.3412Z" fill="#1D2B78"/>
<path d="M42.7299 67.1479H50.0288V59.4145H42.7299V67.1479Z" stroke="#1D2B78" stroke-width="1.0639" stroke-miterlimit="10" stroke-linecap="round" stroke-linejoin="round"/>
<path d="M42.2314 59.3991H50.4917V57.9312H42.2314V59.3991Z" stroke="#1D2B78" stroke-width="1.0639" stroke-miterlimit="10" stroke-linecap="round" stroke-linejoin="round"/>
<path d="M25.5999 67.1311H27.4869V59.3976H26.0271" stroke="#1D2B78" stroke-width="1.0639" stroke-miterlimit="10" stroke-linecap="round" stroke-linejoin="round"/>
<path d="M26.0271 59.3976H27.9854V57.9655H26.0983" stroke="#1D2B78" stroke-width="1.0639" stroke-miterlimit="10" stroke-linecap="round" stroke-linejoin="round"/>
<path d="M36.4592 44.038V38.7033H33.6464V44.038C31.4745 44.6466 29.8723 46.6516 29.8723 49.0504C29.8723 51.9147 32.1866 54.2419 35.035 54.2419C37.8834 54.2419 40.1977 51.9147 40.1977 49.0504C40.2333 46.6516 38.6311 44.6466 36.4592 44.038Z" fill="#A7DCFC"/>
<path d="M38.3106 38.4885H31.7949V38.9539H38.3106V38.4885Z" fill="#A7DCFC"/>
<path d="M33.6464 38.9181V44.038C31.4745 44.6466 29.8723 46.6516 29.8723 49.0504C29.8723 51.9147 32.1866 54.2419 35.035 54.2419C37.8834 54.2419 40.1977 51.9147 40.1977 49.0504C40.1977 46.6516 38.5955 44.6466 36.4236 44.038V38.9181" stroke="#1D2B78" stroke-width="1.0639" stroke-miterlimit="10" stroke-linecap="round" stroke-linejoin="round"/>
<path d="M38.3106 38.4885H31.7949V38.9539H38.3106V38.4885Z" stroke="#1D2B78" stroke-width="1.0639" stroke-miterlimit="10" stroke-linecap="round" stroke-linejoin="round"/>
<path d="M31.4389 47.0812C31.1185 47.6541 30.9404 48.3344 30.9404 49.0504C30.9404 51.3418 32.7919 53.2036 35.0706 53.2036C37.3493 53.2036 39.2007 51.3418 39.2007 49.0504C39.2007 48.3344 39.0227 47.6541 38.7022 47.0812H31.4389Z" fill="#3D6CFB"/>
<path d="M36.4592 51.3418C36.4592 51.6999 36.7441 51.9863 37.1001 51.9863C37.4562 51.9863 37.741 51.6999 37.741 51.3418C37.741 50.9838 37.4562 50.6974 37.1001 50.6974C36.7441 50.6974 36.4592 50.9838 36.4592 51.3418Z" fill="#F4F8F2"/>
<path d="M35.2844 49.8023C35.2844 50.053 35.4624 50.232 35.6761 50.2678C35.9253 50.2678 36.1033 50.0888 36.1389 49.8739C36.1389 49.6233 35.9609 49.4443 35.7473 49.4085C35.4981 49.3727 35.32 49.5517 35.2844 49.8023Z" fill="#F4F8F2"/>
<path d="M36.7085 49.3726C36.7085 49.48 36.7797 49.5516 36.8865 49.5516C36.9933 49.5516 37.0645 49.48 37.0645 49.3726C37.0645 49.2652 36.9933 49.1936 36.8865 49.1936C36.7797 49.1936 36.7085 49.2652 36.7085 49.3726Z" fill="#F4F8F2"/>
<path d="M34.145 50.3751C34.145 50.4825 34.2162 50.5541 34.323 50.5541C34.4299 50.5541 34.5011 50.4825 34.5011 50.3751C34.5011 50.2677 34.4299 50.1961 34.323 50.1961C34.2518 50.1961 34.145 50.2677 34.145 50.3751Z" fill="#F4F8F2"/>
<path d="M33.4329 50.948C33.4329 51.127 33.5753 51.2702 33.7533 51.2702C33.9313 51.2702 34.0737 51.127 34.0737 50.948C34.0737 50.7689 33.9313 50.6257 33.7533 50.6257C33.5753 50.6615 33.4329 50.8048 33.4329 50.948Z" fill="#F4F8F2"/>
<path d="M34.0382 49.6949C34.0026 49.6949 33.967 49.7307 33.967 49.8023C33.967 49.8381 34.0026 49.8739 34.0739 49.8739C34.1095 49.8739 34.1451 49.8381 34.1451 49.7665C34.1095 49.7307 34.0739 49.6949 34.0382 49.6949Z" fill="#F4F8F2"/>
<path d="M35.3556 48.1553C35.32 48.1553 35.2844 48.2269 35.2844 48.2627C35.2844 48.2985 35.3556 48.3344 35.3912 48.3344C35.4268 48.3344 35.4624 48.2627 35.4624 48.2269C35.4624 48.1553 35.4268 48.1553 35.3556 48.1553Z" fill="#F4F8F2"/>
<path d="M35.4623 50.9838C35.4267 50.9838 35.3911 51.0554 35.3911 51.0912C35.3911 51.127 35.4623 51.1628 35.4979 51.1628C35.5335 51.1628 35.5691 51.0912 35.5691 51.0554C35.5335 50.9838 35.4979 50.948 35.4623 50.9838Z" fill="#F4F8F2"/>
<path d="M37.3849 49.6591C37.3493 49.6591 37.3137 49.7307 37.3137 49.7665C37.3137 49.8023 37.3849 49.8381 37.4205 49.8381C37.4561 49.8381 37.4917 49.7665 37.4917 49.7307C37.4917 49.6949 37.4561 49.6591 37.3849 49.6591Z" fill="#F4F8F2"/>
<path d="M40.2333 41.4243L38.1683 41.3527C38.1683 41.3527 36.6729 39.7416 35.3911 39.8848C35.0706 40.5651 36.4948 41.6392 35.8896 41.5318C35.2843 41.4243 32.0442 40.7799 32.0442 40.7799C31.7238 40.7083 31.439 40.9589 31.439 41.2811C31.439 42.2836 31.8662 43.2503 32.6495 43.8948L33.3972 44.5392C33.9669 45.0047 34.6434 45.3269 35.3555 45.4343L35.4979 45.4701C36.1388 45.5417 36.7797 45.4701 37.3849 45.2553L40.5182 44.4318L40.2333 41.4243Z" fill="#D8ADA6"/>
<path d="M40.1621 40.8515L49.6686 38.9539C47.7103 35.9107 45.0399 31.5069 44.5415 29.7167C43.7582 26.8166 44.8619 23.2363 46.6778 22.3412C48.4936 21.4462 50.6655 22.377 51.2708 24.3104L57.466 40.0996C57.6796 40.4577 57.822 40.8157 57.8932 41.2095C58.0357 41.9614 57.9288 42.7491 57.5016 43.4293C56.8963 44.4676 55.757 45.0405 54.6176 45.0047L40.8386 47.0813L40.1621 40.8515Z" fill="#F4F8F2"/>
<path d="M52.6237 45.3269L40.8742 47.1171L40.1621 40.8873L49.6686 38.9897C47.7103 35.9465 45.0399 31.5427 44.5415 29.7525" stroke="#1D2B78" stroke-width="1.0639" stroke-miterlimit="10" stroke-linecap="round" stroke-linejoin="round"/>
<path d="M37.6697 18.3671C39.6635 18.4387 41.5862 17.1139 42.2983 15.0374" stroke="#1D2B78" stroke-width="1.0639" stroke-miterlimit="10" stroke-linecap="round" stroke-linejoin="round"/>
<path d="M41.6929 13.4621C41.4793 14.0707 41.7998 14.751 42.405 14.9658C43.0103 15.1806 43.6868 14.8584 43.9004 14.2497C44.1141 13.6411 43.7936 12.9608 43.1883 12.746C42.5831 12.5312 41.9066 12.8534 41.6929 13.4621Z" fill="#D8ADA6"/>
</svg>
