<svg width="19" height="22" viewBox="0 0 19 22" fill="none" xmlns="http://www.w3.org/2000/svg">
<path d="M5.42857 6.27679V4.58036C5.42857 4.30045 5.65759 4.07143 5.9375 4.07143H7.63393C7.91384 4.07143 8.14286 4.30045 8.14286 4.58036V6.27679C8.14286 6.5567 7.91384 6.78571 7.63393 6.78571H5.9375C5.65759 6.78571 5.42857 6.5567 5.42857 6.27679ZM11.3661 6.78571H13.0625C13.3424 6.78571 13.5714 6.5567 13.5714 6.27679V4.58036C13.5714 4.30045 13.3424 4.07143 13.0625 4.07143H11.3661C11.0862 4.07143 10.8571 4.30045 10.8571 4.58036V6.27679C10.8571 6.5567 11.0862 6.78571 11.3661 6.78571ZM5.9375 10.8571H7.63393C7.91384 10.8571 8.14286 10.6281 8.14286 10.3482V8.65179C8.14286 8.37187 7.91384 8.14286 7.63393 8.14286H5.9375C5.65759 8.14286 5.42857 8.37187 5.42857 8.65179V10.3482C5.42857 10.6281 5.65759 10.8571 5.9375 10.8571ZM11.3661 10.8571H13.0625C13.3424 10.8571 13.5714 10.6281 13.5714 10.3482V8.65179C13.5714 8.37187 13.3424 8.14286 13.0625 8.14286H11.3661C11.0862 8.14286 10.8571 8.37187 10.8571 8.65179V10.3482C10.8571 10.6281 11.0862 10.8571 11.3661 10.8571ZM8.14286 14.4196V12.7232C8.14286 12.4433 7.91384 12.2143 7.63393 12.2143H5.9375C5.65759 12.2143 5.42857 12.4433 5.42857 12.7232V14.4196C5.42857 14.6996 5.65759 14.9286 5.9375 14.9286H7.63393C7.91384 14.9286 8.14286 14.6996 8.14286 14.4196ZM11.3661 14.9286H13.0625C13.3424 14.9286 13.5714 14.6996 13.5714 14.4196V12.7232C13.5714 12.4433 13.3424 12.2143 13.0625 12.2143H11.3661C11.0862 12.2143 10.8571 12.4433 10.8571 12.7232V14.4196C10.8571 14.6996 11.0862 14.9286 11.3661 14.9286ZM19 20.1875V21.7143H0V20.1875C0 19.9076 0.229018 19.6786 0.508929 19.6786H1.33594V1.01786C1.33594 0.453795 1.78973 0 2.35379 0H16.6462C17.2103 0 17.6641 0.453795 17.6641 1.01786V19.6786H18.4911C18.771 19.6786 19 19.9076 19 20.1875ZM3.37165 19.6362H8.14286V16.7946C8.14286 16.5147 8.37187 16.2857 8.65179 16.2857H10.3482C10.6281 16.2857 10.8571 16.5147 10.8571 16.7946V19.6362H15.6283V2.07812L3.39286 2.03571L3.37165 19.6362Z" fill="#58A193"/>
</svg>
