<svg width="47" height="111" viewBox="0 0 47 111" fill="none" xmlns="http://www.w3.org/2000/svg">
<g clip-path="url(#clip0)">
<path d="M19.7627 94.3835C19.6845 93.0053 19.0192 79.1057 19.0192 79.1057L25.5546 84.1852C24.4197 92.0997 23.9892 94.226 23.9501 95.5647C23.9501 95.6041 23.9892 95.7222 23.9892 95.9191C23.9501 97.4941 22.189 98.321 20.7802 99.3054C20.2323 99.6992 18.6278 100.88 17.0233 101.668C16.0059 102.14 13.9709 102.14 13.7361 101.51C15.4188 100.25 17.4147 98.9117 18.7844 97.4548C19.3714 96.746 19.841 96.0372 19.7627 94.3835Z" fill="#F28F8F"/>
<path d="M10.801 103.125C10.7228 103.125 10.5662 104.07 11.0359 104.503C11.5837 104.975 13.1491 105.763 15.2232 105.566C17.3364 105.33 18.4713 104.7 19.2931 104.03C20.1541 103.361 21.3281 102.377 22.2673 102.18C23.1674 102.022 24.1066 101.629 24.3806 101.353C24.6545 101.077 24.6545 99.8566 24.6545 99.8566L10.801 103.125Z" fill="#263238"/>
<path d="M23.9503 95.171C23.9503 95.171 24.2242 95.171 24.2634 95.4466C24.3025 95.801 24.3808 96.746 24.4982 97.2972C24.6938 98.0454 24.7721 99.6204 24.6547 100.25C24.5373 100.88 23.0893 101.274 22.1501 101.589C21.2109 101.944 20.1151 102.652 19.1368 103.4C18.1584 104.188 16.0452 104.975 14.7146 104.975C12.6405 104.975 11.31 104.385 10.9186 103.597C10.4099 102.652 10.8404 102.14 13.2667 101.077C13.7363 100.88 15.3408 99.9748 15.8887 99.6204C17.3758 98.7148 18.8629 97.4547 19.5673 95.8403C19.6455 95.6435 19.7238 95.4466 19.9195 95.3285C20.076 95.2497 20.2325 95.2891 20.3891 95.2891C20.7804 95.3678 21.1718 95.486 21.524 95.6435C21.837 95.801 22.3067 95.9979 22.2675 96.3916C22.2675 96.5491 22.2284 96.6672 22.1501 96.8247C22.111 96.9035 22.111 97.0216 22.1501 97.061C22.2284 97.1004 22.3067 97.061 22.3849 97.0216C22.6589 96.7854 22.8154 96.5097 23.0502 96.2735C23.1676 96.116 23.285 95.9978 23.4415 95.8797C23.5589 95.7616 23.7546 95.7222 23.872 95.6041C23.9894 95.5253 23.9503 95.3678 23.9503 95.171Z" fill="#BA68C8"/>
<path opacity="0.3" d="M23.9503 95.171C23.9503 95.171 24.2242 95.171 24.2634 95.4466C24.3025 95.801 24.3808 96.746 24.4982 97.2972C24.6938 98.0454 24.7721 99.6204 24.6547 100.25C24.5373 100.88 23.0893 101.274 22.1501 101.589C21.2109 101.944 20.1151 102.652 19.1368 103.4C18.1584 104.188 16.0452 104.975 14.7146 104.975C12.6405 104.975 11.31 104.385 10.9186 103.597C10.4099 102.652 10.8404 102.14 13.2667 101.077C13.7363 100.88 15.3408 99.9748 15.8887 99.6204C17.3758 98.7148 18.8629 97.4547 19.5673 95.8403C19.6455 95.6435 19.7238 95.4466 19.9195 95.3285C20.076 95.2497 20.2325 95.2891 20.3891 95.2891C20.7804 95.3678 21.1718 95.486 21.524 95.6435C21.837 95.801 22.3067 95.9979 22.2675 96.3916C22.2675 96.5491 22.2284 96.6672 22.1501 96.8247C22.111 96.9035 22.111 97.0216 22.1501 97.061C22.2284 97.1004 22.3067 97.061 22.3849 97.0216C22.6589 96.7854 22.8154 96.5097 23.0502 96.2735C23.1676 96.116 23.285 95.9978 23.4415 95.8797C23.5589 95.7616 23.7546 95.7222 23.872 95.6041C23.9894 95.5253 23.9503 95.3678 23.9503 95.171Z" fill="black"/>
<path d="M12.8361 101.274C15.8494 101.55 16.7495 103.44 16.8669 104.582C16.1234 104.818 15.3407 104.976 14.7146 104.976C12.6405 104.976 11.2316 104.385 10.8012 103.597C10.3707 102.731 10.6838 102.062 12.8361 101.274Z" fill="#FAFAFA"/>
<path d="M17.3366 101.392C17.3758 101.392 17.4149 101.392 17.4149 101.353C17.4932 101.314 17.4932 101.195 17.454 101.156C17.0627 100.644 15.8495 99.9355 14.7538 100.014C14.6755 100.014 14.5973 100.093 14.6364 100.172C14.6364 100.25 14.7147 100.329 14.7929 100.29C15.8104 100.211 16.9062 100.88 17.2192 101.314C17.2584 101.392 17.2975 101.392 17.3366 101.392Z" fill="#F0F0F0"/>
<path d="M18.6672 100.644C18.7063 100.644 18.7455 100.644 18.7455 100.605C18.8237 100.565 18.8237 100.447 18.7846 100.408C18.3933 99.8961 17.1801 99.1873 16.0844 99.266C16.0061 99.266 15.9278 99.3448 15.967 99.4235C15.967 99.5023 16.0452 99.581 16.1235 99.5417C17.141 99.4629 18.2367 100.132 18.5498 100.565C18.5889 100.644 18.6281 100.644 18.6672 100.644Z" fill="#F0F0F0"/>
<path d="M19.8803 99.8174C19.9195 99.8174 19.9586 99.8174 19.9586 99.778C20.0369 99.7386 20.0369 99.6205 19.9977 99.5811C19.6064 99.0692 18.3932 98.3605 17.2975 98.4392C17.2192 98.4392 17.141 98.518 17.1801 98.5967C17.1801 98.6755 17.2584 98.7542 17.3366 98.7148C18.3541 98.6361 19.4499 99.3055 19.7629 99.7386C19.8021 99.8174 19.8412 99.8174 19.8803 99.8174Z" fill="#F0F0F0"/>
<path d="M21.0934 98.9904C21.1325 98.9904 21.1717 98.9904 21.1717 98.9511C21.2499 98.9117 21.2499 98.7936 21.2108 98.7542C20.6629 98.006 19.3715 97.4942 18.2758 97.6123C18.1975 97.6123 18.1192 97.691 18.1584 97.7698C18.1584 97.8485 18.2366 97.9273 18.3149 97.8879C19.2932 97.8092 20.5064 98.2817 21.0151 98.9117C20.976 98.9511 21.0543 98.9904 21.0934 98.9904Z" fill="#F0F0F0"/>
<path d="M33.2251 84.1852L39.8779 83.0827C40.191 87.5322 39.6822 92.8479 39.9562 97.0217C39.9953 97.8092 40.5432 103.125 40.3866 104.739C40.1518 107.22 37.295 107.141 36.982 105.684C36.708 104.267 36.4732 98.0455 36.395 97.3761C36.1602 94.6985 34.6339 90.3278 33.5773 85.5634C33.499 85.3665 33.2642 84.4215 33.2251 84.1852Z" fill="#F28F8F"/>
<path d="M35.9644 106.826C36.0426 108.244 36.2383 109.189 36.747 110.055C37.2558 110.882 38.195 111.158 39.1733 110.921C40.1517 110.685 41.3649 110.055 41.6779 108.795C41.9519 107.574 41.9127 106.708 41.7171 105.409L35.9644 106.826Z" fill="#263238"/>
<path d="M39.8778 96.5098C40.2692 96.5492 40.3866 98.4786 40.5823 100.369C40.8171 102.416 41.4041 103.282 41.5997 104.976C41.8345 106.905 41.7171 107.771 41.0519 108.913C40.3866 110.055 37.9994 111.197 36.8254 109.504C35.8862 108.126 35.847 106.629 35.9644 104.7C36.0818 102.692 36.1601 101.314 36.0818 99.8174C36.0036 98.3605 35.9253 96.9823 36.2775 96.8248C36.3166 97.0217 36.3166 97.2973 36.3558 97.5336C36.3949 97.6911 36.3949 98.4786 36.6297 98.4786C36.6688 98.2817 36.6688 98.1242 36.6297 97.9273C36.6297 97.7698 36.6297 97.573 36.7471 97.4548C36.8645 97.3367 37.0211 97.2973 37.1776 97.258C37.5689 97.1792 37.9603 97.1005 38.3516 97.1005C38.5473 97.1005 38.743 97.0611 38.9386 97.1005C39.0952 97.1005 39.2908 97.1005 39.4474 97.1792C39.5256 97.2186 39.643 97.2973 39.643 97.3761C39.6822 97.4548 39.643 97.5336 39.643 97.6123C39.643 97.7305 39.643 97.888 39.6822 98.0061C39.6822 98.0455 39.7213 98.1242 39.7996 98.1242C39.8387 98.1242 39.8778 98.0455 39.8778 98.0061C39.8778 97.7698 39.8387 97.6123 39.8387 97.3367C39.8387 97.2186 39.7996 97.0217 39.7996 96.9036C39.917 96.7461 39.917 96.628 39.8778 96.5098Z" fill="#BA68C8"/>
<path opacity="0.3" d="M39.8778 96.5098C40.2692 96.5492 40.3866 98.4786 40.5823 100.369C40.8171 102.416 41.4041 103.282 41.5997 104.976C41.8345 106.905 41.7171 107.771 41.0519 108.913C40.3866 110.055 37.9994 111.197 36.8254 109.504C35.8862 108.126 35.847 106.629 35.9644 104.7C36.0818 102.692 36.1601 101.314 36.0818 99.8174C36.0036 98.3605 35.9253 96.9823 36.2775 96.8248C36.3166 97.0217 36.3166 97.2973 36.3558 97.5336C36.3949 97.6911 36.3949 98.4786 36.6297 98.4786C36.6688 98.2817 36.6688 98.1242 36.6297 97.9273C36.6297 97.7698 36.6297 97.573 36.7471 97.4548C36.8645 97.3367 37.0211 97.2973 37.1776 97.258C37.5689 97.1792 37.9603 97.1005 38.3516 97.1005C38.5473 97.1005 38.743 97.0611 38.9386 97.1005C39.0952 97.1005 39.2908 97.1005 39.4474 97.1792C39.5256 97.2186 39.643 97.2973 39.643 97.3761C39.6822 97.4548 39.643 97.5336 39.643 97.6123C39.643 97.7305 39.643 97.888 39.6822 98.0061C39.6822 98.0455 39.7213 98.1242 39.7996 98.1242C39.8387 98.1242 39.8778 98.0455 39.8778 98.0061C39.8778 97.7698 39.8387 97.6123 39.8387 97.3367C39.8387 97.2186 39.7996 97.0217 39.7996 96.9036C39.917 96.7461 39.917 96.628 39.8778 96.5098Z" fill="black"/>
<path d="M41.7171 106.117C41.7562 107.299 41.7171 108.126 41.1692 109.031C40.5039 110.173 37.9211 111.315 36.747 109.622C36.16 108.795 36.0426 107.811 35.9644 106.787C36.6688 105.527 40.6213 105.015 41.7171 106.117Z" fill="#FAFAFA"/>
<path d="M37.021 104.739H37.0601C37.0601 104.739 38.7038 103.991 40.4648 104.424C40.5431 104.424 40.6213 104.385 40.6605 104.306C40.6605 104.227 40.6213 104.149 40.5431 104.109C38.6646 103.637 36.9819 104.424 36.9427 104.464C36.8645 104.503 36.8253 104.582 36.8645 104.661C36.9036 104.7 36.9427 104.739 37.021 104.739Z" fill="#F0F0F0"/>
<path d="M40.3865 102.967C40.4256 102.967 40.5039 102.928 40.5039 102.889C40.543 102.81 40.5039 102.731 40.4256 102.692C38.6646 102.062 36.9036 102.967 36.8253 103.007C36.747 103.046 36.7079 103.125 36.747 103.204C36.7862 103.282 36.8644 103.322 36.9427 103.282C36.9427 103.282 38.6646 102.416 40.3082 103.007C40.3474 102.967 40.3865 102.967 40.3865 102.967Z" fill="#F0F0F0"/>
<path d="M40.3083 101.589C40.3474 101.589 40.4257 101.55 40.4257 101.51C40.4648 101.432 40.4257 101.353 40.3474 101.314C38.3907 100.605 36.7471 101.55 36.6688 101.629C36.5906 101.668 36.5906 101.747 36.6297 101.825C36.6688 101.904 36.7471 101.904 36.8254 101.865C36.8254 101.865 38.4299 100.92 40.2692 101.589C40.2692 101.589 40.2692 101.589 40.3083 101.589Z" fill="#F0F0F0"/>
<path d="M40.1909 100.054C40.2301 100.054 40.3083 100.014 40.3083 99.9749C40.3475 99.8961 40.3083 99.8174 40.2301 99.778C38.3908 99.0692 36.5906 100.054 36.5124 100.132C36.4341 100.172 36.4341 100.25 36.4732 100.329C36.5123 100.408 36.5906 100.408 36.6689 100.369C36.6689 100.369 38.4299 99.3842 40.1127 100.054C40.1518 100.054 40.1909 100.054 40.1909 100.054Z" fill="#EBEBEB"/>
<path d="M35.7686 39.3757C37.0209 42.2895 38.3515 44.3764 38.4689 49.8496C38.7037 61.5442 38.508 69.9706 38.508 69.9706C38.5863 70.9944 39.095 72.53 39.7212 77.8457C40.2691 82.2952 40.0734 89.1465 40.0734 89.1465C40.0734 89.1465 37.0992 90.6822 34.3598 89.5403C33.3032 85.7209 31.4639 75.7982 30.329 70.6793C29.3115 66.033 28.294 59.2604 28.294 59.2604L26.4547 70.6793C26.4547 70.6793 26.7287 75.2863 26.5721 77.9638C26.3765 81.1139 24.8111 89.8947 24.8111 89.8947C24.8111 89.8947 21.7586 91.1941 19.4106 89.4222C19.4106 89.4222 18.3931 73.5932 18.4323 69.8131C18.4714 62.3711 18.2366 46.7389 19.5671 38.9819L35.7686 39.3757Z" fill="#455A64"/>
<path d="M40.1908 88.0834C39.0559 88.7921 35.5338 89.2253 34.0076 88.6346L34.438 90.4459C34.438 90.4459 35.1033 90.9578 37.2166 90.8397C39.3298 90.7216 40.1516 89.8553 40.1516 89.8553L40.1908 88.0834Z" fill="#37474F"/>
<path d="M25.085 88.4377C23.8719 88.989 20.5846 88.9496 19.1758 88.1621L19.3715 90.0128C19.3715 90.0128 19.8411 90.7215 21.9543 90.7609C24.0675 90.8003 24.8111 90.1703 24.8111 90.1703L25.085 88.4377Z" fill="#37474F"/>
<path opacity="0.15" d="M28.2548 59.2998L27.0808 51.0309C27.0808 51.0309 22.189 50.4009 20.428 48.6683C20.428 48.6683 22.6586 51.8971 25.9459 52.4484L27.2764 59.2998L26.4155 70.6399L28.2548 59.2998Z" fill="black"/>
<path d="M23.5197 18.4278C22.2674 18.3491 20.3107 18.4672 18.4323 20.436C17.18 21.8141 13.6579 25.7911 12.2883 27.2086C11.2708 26.3817 7.94438 23.2317 7.47477 22.326C6.88776 21.2629 6.57468 20.2391 6.37901 19.6878C6.14421 18.9791 6.06594 18.4278 5.98767 18.0341C5.83114 17.0497 5.94854 16.3409 5.94854 15.9472C5.94854 15.3171 5.04845 15.6322 4.69625 16.6559C4.42231 17.3647 4.46144 17.9159 4.42231 18.3491C4.0701 18.1916 3.09175 17.6797 2.93522 17.6009C2.34821 17.3647 0.626307 16.7347 0.46977 17.7191C0.430636 17.9553 0.508904 18.1916 0.391502 18.3884C0.352368 18.4672 0.2741 18.546 0.195832 18.6247C-0.0389725 18.9397 -0.117241 19.3728 0.0784297 19.7666C0.156698 19.9635 0.195832 20.0816 0.156698 20.2785C0.117564 20.4754 0.0784297 20.6722 0.117564 20.8297C0.156698 20.9872 0.2741 21.1054 0.352368 21.2235C0.430636 21.381 0.46977 21.6173 0.508904 21.8141C0.548038 22.011 0.548038 22.2079 0.626306 22.4048C0.821977 22.8379 1.33072 22.956 1.72206 23.0742C2.26994 23.271 2.97435 23.5073 3.52223 23.7829C4.50058 24.4129 7.08343 29.138 9.70541 32.1306C10.6055 33.1543 11.4273 33.8237 12.2491 33.7056C12.9535 33.7056 13.7753 33.0756 14.5972 32.3668C17.2191 30.083 21.4065 25.6336 21.4065 25.6336C23.2067 23.5073 23.7154 19.8453 23.5197 18.4278Z" fill="#F28F8F"/>
<path d="M23.872 18.1128C22.5806 18.1128 20.1151 18.349 18.7846 19.7666C17.4149 21.1841 16.2409 22.4441 15.3016 23.5073C13.8928 25.1217 13.2275 25.9879 13.2275 25.9879C13.2275 25.9879 13.071 29.2561 16.7105 30.8705L22.8937 25.0823L23.872 18.1128Z" fill="#BA68C8"/>
<path d="M3.71792 18.4277C4.26579 18.6246 4.3832 18.979 4.34406 19.7665C4.30493 20.239 4.42233 21.1053 4.93107 21.4597C4.93107 21.4597 4.5006 21.4203 4.30493 21.1447C4.07012 20.9084 4.03099 20.869 3.87445 20.9872C3.75705 21.1053 3.52225 21.184 3.52225 21.184C3.52225 21.184 3.79618 21.499 3.56138 21.8928C3.32658 22.2866 2.23082 22.2472 1.36987 21.7747C1.36987 21.7747 2.7787 22.2866 3.13091 21.814C3.48311 21.3809 2.73956 20.7509 2.19169 20.5934C2.19169 20.5934 3.56138 20.9872 3.79618 20.5146C4.03099 20.0815 3.44398 19.6878 2.6613 19.4515C2.6613 19.4515 3.79618 19.6878 3.99185 19.294C4.18753 18.9002 3.83532 18.5852 3.71792 18.4277Z" fill="#B16668"/>
<path d="M19.6847 30.8312C19.1368 36.6588 18.9411 43.0376 18.9411 43.0376C23.9894 46.1877 35.26 45.9514 37.0602 41.6988C36.5514 40.2419 35.1426 37.1706 35.26 35.8319L37.0602 28.508C37.0602 28.508 34.2034 24.1373 34.7121 18.7428L30.3683 18.1128L26.22 18.0341L23.872 18.1128C22.9719 18.9003 20.7021 20.9085 19.3325 23.2316C17.728 26.0667 17.4932 28.9017 19.6847 30.8312Z" fill="#BA68C8"/>
<g opacity="0.15">
<g opacity="0.15">
<path opacity="0.15" d="M19.6847 30.8312C19.1368 36.6588 18.9411 43.0376 18.9411 43.0376C23.9894 46.1877 35.26 45.9514 37.0602 41.6988C36.5514 40.2419 35.1426 37.1706 35.26 35.8319L37.0602 28.508C37.0602 28.508 34.2034 24.1373 34.7121 18.7428L30.3683 18.1128L26.22 18.0341L23.872 18.1128C22.9719 18.9003 20.7021 20.9085 19.3325 23.2316C17.728 26.0667 17.4932 28.9017 19.6847 30.8312Z" fill="black"/>
</g>
</g>
<path d="M25.2416 0.433111C28.0201 -0.354402 33.3032 -0.472529 34.0076 3.66192C35.3381 4.88256 35.8469 6.65447 35.8469 8.34762C35.9252 9.72577 35.6903 11.4977 35.8469 12.5608C35.9643 13.4665 36.1991 13.8208 36.473 14.4508C36.7078 15.0415 36.8252 15.7896 36.6296 16.3803C36.3948 17.0496 35.9252 17.6009 35.1816 17.7584C35.3381 17.5221 35.4164 17.1678 35.4164 16.8921C35.3381 16.2621 35.1033 16.0259 34.7511 15.7502C34.712 17.0103 33.5771 17.7978 32.677 17.9553C32.0509 18.0734 30.8769 18.0734 30.2899 17.7584C29.7811 17.4828 30.0942 17.0103 29.8594 16.5378C29.6246 16.1046 29.3506 16.5378 28.9202 16.7346C28.1766 17.089 27.3548 17.3253 26.533 17.5221C25.7112 17.7584 24.4197 17.8765 23.4805 17.719C22.3065 17.4828 21.6804 16.8921 21.4456 16.1834C22.0717 16.3409 23.05 16.1046 23.5197 15.6321C24.1849 14.9234 24.3415 14.0571 24.6545 13.1514C24.8111 12.7183 24.9285 12.2458 25.0459 11.7733L20.8585 9.13513C18.5496 6.02446 19.9976 1.89001 25.2416 0.433111Z" fill="#263238"/>
<path d="M34.7512 9.64701C34.2424 9.017 33.3815 8.89887 32.8336 9.56825C32.6771 9.80451 32.5597 10.0408 32.364 10.277C32.364 10.277 31.9726 10.4739 31.6987 10.5526C31.4639 10.6314 31.19 10.592 31.1117 10.3951C30.9943 10.1195 30.9943 9.80451 30.9943 9.56825C30.603 5.70944 29.6246 4.88255 26.9635 5.55194C25.7503 4.41004 25.085 4.21316 23.6762 4.29192C22.15 4.41004 20.8977 5.82757 20.8977 9.52888C20.8977 13.4664 22.2283 15.3565 22.8935 15.7502C23.5588 16.144 24.3806 16.2621 25.6721 16.1834L25.5547 18.4278C25.5547 18.4278 24.4198 21.1841 25.6329 22.9954C25.6329 22.9954 27.2374 22.0503 28.6462 21.0659C30.7986 19.5697 31.19 18.664 31.19 18.664L31.5422 12.6789C31.5422 12.6789 32.364 13.939 33.7728 12.9546C34.9468 12.0883 35.4947 10.5526 34.7512 9.64701Z" fill="#F28F8F"/>
<path d="M26.7286 9.05636C26.6894 9.37136 26.8851 9.68637 27.2373 9.72575C27.5504 9.76512 27.8635 9.56824 27.9026 9.25324C27.9417 8.93823 27.7461 8.62323 27.3938 8.58385C27.0808 8.54447 26.7677 8.74135 26.7286 9.05636Z" fill="#263238"/>
<path d="M21.8368 7.6782L23.0891 7.08757C22.9326 6.73319 22.5412 6.57568 22.189 6.69381C21.876 6.89069 21.6803 7.28445 21.8368 7.6782Z" fill="#263238"/>
<path d="M27.0808 7.08836L28.294 7.79713C28.4896 7.48212 28.4114 7.04899 28.0592 6.85211C27.7461 6.65523 27.3156 6.77336 27.0808 7.08836Z" fill="#263238"/>
<path d="M26.7285 12.4426L24.4587 13.112C24.6153 13.742 25.3197 14.1358 26.0241 13.8995C26.6502 13.6633 26.8851 13.0726 26.7285 12.4426Z" fill="#B16668"/>
<path d="M25.3979 13.8995C25.4762 13.2695 26.0241 12.797 26.6894 12.8364C26.7285 12.8364 26.7676 12.8364 26.8068 12.8364C26.8068 13.3089 26.5328 13.7027 26.0632 13.8602C25.7893 13.9389 25.5936 13.9389 25.3979 13.8995Z" fill="#FFA8A7"/>
<path d="M22.0325 8.89881C21.9934 9.21382 22.1891 9.48945 22.5022 9.52883C22.8152 9.5682 23.0892 9.37132 23.1283 9.05632C23.1674 8.74131 22.9718 8.46568 22.6587 8.42631C22.3848 8.38693 22.0717 8.62318 22.0325 8.89881Z" fill="#263238"/>
<path d="M25.2415 7.87512L24.9284 11.5371L23.0891 11.1433L25.2415 7.87512Z" fill="#B16668"/>
<path d="M25.672 16.1439C27.0417 15.9864 30.0159 15.3958 30.5638 14.3326C30.5638 14.3326 30.2898 15.1989 29.3506 15.8289C28.4505 16.4589 25.5938 16.9314 25.5938 16.9314L25.672 16.1439Z" fill="#B16668"/>
<path d="M33.0294 43.9836C34.4773 43.393 35.4166 42.5661 35.4166 42.5661C34.7513 42.6055 34.2425 42.6449 33.8512 42.5661C33.1468 42.4086 32.9902 41.8573 33.0294 41.6211C33.0685 41.4242 33.5381 41.5423 34.3208 41.2667C35.2991 40.9517 35.9644 40.5973 37.0993 40.5186C37.5298 40.4792 37.8429 40.1642 38.1559 39.8886C38.4299 39.6129 39.8778 37.0929 41.1693 34.3366L36.0818 28.1546C33.7338 26.1465 32.912 21.8545 34.7121 18.7832C39.056 19.3738 38.3125 19.8463 46.2176 32.0528C47.5872 34.1791 47.509 35.2029 42.4998 41.4242C41.5997 42.5661 40.0735 44.2986 39.056 45.2436C36.1601 47.9606 34.1643 47.4487 32.8728 46.9762C30.3291 46.0705 31.0727 44.7711 33.0294 43.9836Z" fill="#F28F8F"/>
<path d="M34.3989 18.7428C35.7295 18.7428 37.2948 19.0972 38.0384 19.6878C38.7819 20.2785 39.6429 21.4203 41.4039 24.1373C43.1258 26.8936 44.0259 28.1536 44.0259 28.1536C44.0259 28.1536 43.0475 31.4611 39.3689 32.3668L34.5555 26.6967C34.5555 26.6967 31.8943 22.5622 34.3989 18.7428Z" fill="#BA68C8"/>
<path d="M31.3858 10.2377C30.29 10.5527 28.2942 10.6708 26.9245 10.3952C25.5157 10.1195 24.5764 9.60765 24.0286 9.72578C24.0286 9.72578 22.8937 10.277 22.0327 10.1983C21.1718 10.1195 20.8587 9.96203 20.8587 9.96203C20.8587 9.96203 20.7413 11.9308 21.3283 13.624C21.9153 15.3171 22.6197 16.0653 24.0677 16.2228C25.5157 16.3803 27.7854 16.3015 29.2725 15.4746C30.7988 14.6084 31.0336 14.0571 31.0336 14.0571C31.0336 14.0571 31.5814 12.7183 31.3858 10.2377Z" fill="#BA68C8"/>
<path opacity="0.4" d="M31.3858 10.2377C30.29 10.5527 28.2942 10.6708 26.9245 10.3952C25.5157 10.1195 24.5764 9.60765 24.0286 9.72578C24.0286 9.72578 22.8937 10.277 22.0327 10.1983C21.1718 10.1195 20.8587 9.96203 20.8587 9.96203C20.8587 9.96203 20.7413 11.9308 21.3283 13.624C21.9153 15.3171 22.6197 16.0653 24.0677 16.2228C25.5157 16.3803 27.7854 16.3015 29.2725 15.4746C30.7988 14.6084 31.0336 14.0571 31.0336 14.0571C31.0336 14.0571 31.5814 12.7183 31.3858 10.2377Z" fill="white"/>
<path d="M20.8586 10.6708C21.0543 10.7102 21.3283 10.7889 21.7587 10.8283C22.6197 10.907 23.7546 10.3558 23.7546 10.3558C24.2633 10.2377 25.2417 10.7495 26.6505 11.0252C28.0593 11.3008 30.016 11.1827 31.1118 10.8677C31.2292 12.5608 31.0335 13.7027 30.877 14.254C30.9944 14.1359 31.0335 14.0571 31.0335 14.0571C31.0335 14.0571 31.5422 12.7183 31.3857 10.2377C30.29 10.5527 28.2941 10.6708 26.9244 10.3952C25.5156 10.1195 24.5764 9.60765 24.0285 9.72578C24.0285 9.72578 22.8936 10.277 22.0327 10.1983C21.1717 10.1195 20.8586 9.96203 20.8586 9.96203C20.8586 9.96203 20.8586 10.2377 20.8586 10.6708Z" fill="#FAFAFA"/>
<path d="M31.3857 10.2376C32.2076 9.92261 33.1076 9.2926 33.1076 9.2926C32.8337 9.48948 32.5989 10.0014 32.3641 10.277C32.051 10.4739 31.7379 10.6314 31.3857 10.7495V10.2376Z" fill="#FAFAFA"/>
<path d="M31.9337 12.9939C31.7772 12.8758 31.6598 12.7577 31.5815 12.6395L31.1902 13.0333L31.0728 13.8208C31.0728 13.8208 31.6206 13.3877 31.9337 12.9939Z" fill="#FAFAFA"/>
</g>
<defs>
<clipPath id="clip0">
<rect width="47" height="111" fill="white"/>
</clipPath>
</defs>
</svg>
