<svg width="50" height="109" viewBox="0 0 50 109" fill="none" xmlns="http://www.w3.org/2000/svg">
<g clip-path="url(#clip0)">
<path d="M31.5739 105.664L31.7418 107.441L35.2927 109L36.8042 107.1L34.9568 105.445L31.4059 103.886L31.5739 105.664Z" fill="#112133"/>
<path d="M28.6227 69.6469L31.3578 105.104L34.7647 105.591L37.5958 75.3453L39.9231 65.7506L28.6227 69.6469Z" fill="#9EA6AD"/>
<path d="M20.4415 60.3202L18.4022 102.474L21.5212 103.082L27.9991 71.1812L31.574 61.9518L20.4415 60.3202Z" fill="#9EA6AD"/>
<path d="M21.2332 104.47L17.5384 105.615L16.1948 103.496L18.2102 102.035L21.5691 102.668L21.2332 104.47Z" fill="#112133"/>
<path d="M24.856 14.8061C27.3752 12.6875 33.4692 13.9051 36.6602 13.9051C36.3483 13.9051 39.6832 32.0474 39.8032 33.6303C40.1871 39.4017 41.9385 45.2219 44.3857 50.5063C45.4174 52.7223 46.641 54.8897 47.3608 57.2275C48.5604 61.0995 48.5604 65.6777 48.2245 69.6958C44.7936 70.6455 41.5786 72.4475 38.0278 72.9102C35.1247 73.2999 32.1736 72.7398 29.2706 72.4962C25.8157 72.1797 22.3368 72.2771 18.8819 72.0092C15.427 71.7413 11.9241 71.0838 8.8771 69.4522C10.2447 66.7735 11.3003 63.9243 12.164 61.0508C13.0278 58.1772 14.1554 55.0114 14.4673 52.0161C14.7552 49.313 14.8032 46.5613 15.1871 43.8338C15.6429 40.6437 16.1708 37.4779 16.9385 34.3365C17.8022 30.7567 18.9299 27.25 20.3214 23.8407C21.3771 21.2594 22.6487 17.0222 24.6401 15.0253C24.712 14.9279 24.784 14.8792 24.856 14.8061Z" fill="#B5D6CA"/>
<path d="M30.2063 5.01653C28.5988 5.30876 26.6314 6.69683 26.2476 8.40147C26.0556 9.22945 26.3195 9.98436 26.1036 10.861C25.6478 12.59 27.7111 15.1227 25.6717 16.3159C24.6161 16.9247 23.3205 16.7299 22.1209 16.5107C21.9769 16.4864 21.833 16.462 21.713 16.3646C21.5211 16.2185 21.4971 15.9263 21.5691 15.6828C21.641 15.4392 21.785 15.2444 21.9289 15.0496C23.3205 12.9066 22.9846 9.8626 23.5364 7.42739C24.0883 4.99218 25.3598 2.58132 27.7351 1.58289C28.9107 2.36215 29.7744 3.62846 30.0623 5.01653H30.2063Z" fill="#1A3151"/>
<path d="M28.215 15.4636C26.6795 14.8061 25.6478 13.1989 25.3119 11.5429C24.976 9.88697 25.24 8.15797 25.6958 6.50203C27.2073 1.07151 33.9252 2.63005 35.5087 7.2813C36.8762 11.3237 32.6776 17.3874 28.215 15.4636Z" fill="#EDC6AB"/>
<path d="M36.0364 18.4346C35.2926 17.9475 34.5489 17.4605 34.093 16.5594C33.3972 15.1227 33.6852 12.8823 33.5892 11.3237C33.4932 9.6678 33.3493 7.8901 32.2456 6.69685C31.5258 5.91758 30.6381 5.69841 29.6304 5.601C28.9347 5.52795 28.8867 5.79582 28.3349 5.35748C27.903 5.0409 27.5911 4.13988 27.5431 3.62848C27.4471 2.75181 27.855 1.89948 28.4548 1.29068C29.4145 0.340949 30.4702 -0.0730366 31.7418 1.969e-05C36.2523 0.292245 39.4193 3.31191 40.307 7.8901C40.7389 10.0818 40.0911 12.4439 40.5709 14.5626C40.8589 15.8776 41.6026 16.803 41.8185 18.1667C42.3704 21.7708 43.9059 26.4464 43.45 30.0749C43.426 30.221 43.402 30.3671 43.3061 30.4401C43.0901 30.6106 42.8022 30.3671 42.6343 30.1236C41.6986 28.8086 40.7869 27.5179 39.8512 26.2029C39.4913 25.6915 39.1074 25.1801 38.9155 24.5713C38.3876 23.0858 38.8675 21.2838 37.9798 19.9931C37.4519 19.3112 36.7322 18.8972 36.0364 18.4346Z" fill="#1A3151"/>
<path d="M31.3338 49.8976C30.5181 50.2872 28.0949 50.2872 27.3751 49.6297C25.6956 48.0955 28.6707 47.9007 29.7024 47.5842C29.4864 47.2432 29.2705 46.951 29.1265 46.5857C29.0066 46.2691 32.2695 46.3178 32.6534 46.5614C33.5651 47.1458 33.3972 47.8277 33.5891 48.8261C32.8214 49.167 32.0776 49.5323 31.3338 49.8976Z" fill="#EDC6AB"/>
<path d="M43.882 22.9885L50 37.7215L34.285 50.1898L32.0058 45.6116L42.0345 36.4552L36.8042 26.0812L37.1641 19.7983L43.882 22.9885Z" fill="#B5D6CA"/>
<path d="M24.1842 34.3364C24.1842 34.3364 28.9107 41.2768 29.2466 59.0294L24.664 59.273C24.664 59.273 25.3598 43.712 21.809 35.1157L24.1842 34.3364Z" fill="#1A3151"/>
<path d="M0.000190735 9.05896C0.000190735 9.05896 15.6672 11.1532 21.8812 18.1423C28.0952 25.1313 23.7766 35.7976 23.7766 35.7976C23.7766 35.7976 12.8601 39.0607 6.67005 32.096C0.456041 25.107 0.000190735 9.05896 0.000190735 9.05896Z" fill="#3ABABA"/>
<path d="M23.7766 35.7976C23.7766 35.7976 23.1528 35.9924 22.1211 36.1629L8.82939 18.9946L24.3044 34.166C24.0165 35.1888 23.7766 35.7976 23.7766 35.7976Z" fill="#1A3151"/>
<path d="M49.9761 21.3081C49.9761 21.3081 48.0807 35.5054 41.9147 41.1064C35.7486 46.7073 26.3916 42.7623 26.3916 42.7623C26.3916 42.7623 23.5605 32.8754 29.7026 27.2744C35.8686 21.649 49.9761 21.3081 49.9761 21.3081Z" fill="#3ABABA"/>
<path d="M26.3916 42.738C26.3916 42.738 26.2236 42.1779 26.0557 41.2281L41.1948 29.2712L27.8071 43.2494C26.9194 42.9815 26.3916 42.738 26.3916 42.738Z" fill="#1A3151"/>
<path d="M23.7764 35.7975C23.7764 35.7975 6.76581 33.6058 1.4635 20.2122C1.4635 20.2122 4.07867 41.4715 23.7764 35.7975Z" fill="#329E9B"/>
</g>
<defs>
<clipPath id="clip0">
<rect width="50" height="109" fill="white" transform="matrix(-1 0 0 1 50 0)"/>
</clipPath>
</defs>
</svg>
