<svg width="52" height="120" viewBox="0 0 52 120" fill="none" xmlns="http://www.w3.org/2000/svg">
<g clip-path="url(#clip0)">
<path d="M38.1335 115.847C38.1335 115.493 38.4801 115.052 39.0868 114.521C39.8668 113.814 41.8601 112.312 42.2935 111.694C43.0735 110.633 42.6401 106.834 42.6401 106.834L47.1468 106.038C47.8401 106.657 48.4468 108.159 48.9668 109.485C48.2735 110.545 47.4068 111.959 46.5401 113.108C44.1135 116.377 38.2201 115.847 38.1335 115.847Z" fill="#1599EA"/>
<path d="M44.2868 116.377C42.9868 116.465 39.5201 116.289 38.7401 116.377C38.3068 116.377 38.1335 116.2 38.1335 115.847C38.2201 115.847 44.1135 116.377 46.4535 113.196C47.3201 112.047 48.2735 110.633 48.8801 109.573C49.0535 110.015 49.2268 110.368 49.4001 110.722C50.0935 112.047 45.5868 116.377 44.2868 116.377Z" fill="#056CD3"/>
<path d="M46.4533 59.3814C46.4533 59.3814 47.7533 65.1252 47.7533 70.2504C47.7533 75.3755 47.3199 82.1797 47.4066 84.2121C47.4933 86.2445 48.2733 94.4624 48.8799 97.2901C49.4866 100.118 50.0933 106.127 50.0933 106.127C50.0933 106.127 45.9333 107.894 43.5933 107.982C41.5133 108.071 39.2599 107.629 39.2599 107.629C39.2599 107.629 37.6133 87.2165 36.8333 84.7423C36.0533 82.268 32.7599 59.1163 32.7599 59.1163L46.4533 59.3814Z" fill="#3C3C3C"/>
<path d="M23.2267 7.86454C22.5333 6.1856 22.36 6.1856 22.0133 4.77176C21.6667 3.35792 20.8867 4.77176 21.2333 5.83214C21.58 6.89253 21.4067 8.30637 21.1467 8.218C20.8867 8.12964 17.8533 7.51108 17.8533 7.51108L17.3333 12.9897L24.44 13.8734L26.3467 11.4875C26.26 11.5759 24.0933 9.72021 23.2267 7.86454Z" fill="#3C3C3C"/>
<path d="M34.32 59.7349H44.98V74.05H34.32V59.7349Z" fill="#FCB33D"/>
<path d="M26.2601 11.5758C26.2601 11.5758 29.9867 14.5802 31.8067 16.701C33.6267 18.8218 34.4067 20.2356 34.4067 20.2356L32.5867 21.8262L24.1801 13.5198L26.2601 11.5758Z" fill="#FFB680"/>
<path d="M41.4268 27.4816L34.4068 20.324L30.5935 23.6819C30.5935 23.6819 35.5335 32.8718 38.7402 31.6347C41.9468 30.3092 41.4268 27.4816 41.4268 27.4816Z" fill="#057FD3"/>
<path d="M35.7068 20.5008C35.7068 20.5008 34.5801 22.2681 33.6268 23.4168C32.6735 24.5656 29.9001 26.2445 29.9001 26.2445C29.9001 26.2445 29.5535 24.919 28.8601 24.3005C28.1668 23.7703 27.8201 23.2401 27.8201 23.2401C27.8201 23.2401 30.5935 20.2357 31.4601 19.4404C32.2401 18.6451 32.9335 17.5847 32.9335 17.5847C32.9335 17.5847 35.2735 19.1753 35.7068 20.5008Z" fill="#056CD3"/>
<path d="M17.0733 0H18.5466V9.72018H17.0733V0Z" fill="#FF364A"/>
<path d="M0.00012207 27.3933C0.693455 17.9382 8.40679 10.5155 17.8535 10.5155C27.3001 10.5155 35.0135 17.9382 35.7068 27.3933H0.00012207Z" fill="#FF364A"/>
<path d="M13.8668 9.10156H21.7534V11.134H13.8668V9.10156Z" fill="#E21A37"/>
<path d="M42.1202 16.8778C42.8136 16.2592 43.2469 15.9941 44.4602 15.9941C45.6736 15.9941 49.1402 17.5847 49.7469 19.9706C50.3536 22.3564 48.1869 24.3005 47.3202 25.0074C46.4536 25.7143 45.1536 26.5096 44.1136 27.7467C43.6802 28.2769 43.3336 29.9559 43.2469 30.3977C42.1202 30.7511 40.8202 30.2209 39.7802 29.6908C39.2602 29.3373 38.8269 28.9838 38.4802 28.6304C38.5669 28.6304 38.7402 28.542 38.8269 28.4536C39.1736 28.1885 40.0402 26.7747 39.9536 26.2445C39.8669 25.5376 39.3469 25.1841 38.7402 24.919C37.8736 24.5656 38.7402 23.5936 38.3069 23.1517C38.0469 22.7983 38.3936 22.7983 38.5669 22.7099C38.5669 22.5332 38.3936 22.3564 38.3936 22.1797C38.3936 21.8262 38.7402 21.9146 38.8269 21.8262C38.9136 21.4728 38.0469 20.8542 38.3936 20.5008C38.9136 19.9706 40.7336 19.6171 40.8202 19.0869C40.9936 18.1149 41.4269 17.4963 42.1202 16.8778Z" fill="#FFB680"/>
<path d="M42.2935 16.701C42.2935 16.701 43.5935 17.0545 44.2868 19.0869C44.7201 20.4124 44.2001 21.296 45.1535 22.4448C46.0201 23.5052 45.3268 24.1237 45.3268 24.1237L44.4601 27.3049C44.4601 27.3049 46.9735 27.0398 49.1401 24.1237C51.2201 21.296 50.6135 20.324 50.6135 20.324C50.6135 20.324 49.9201 18.0265 46.7135 16.1708C44.8935 15.1105 43.5068 15.0221 43.5068 15.0221C43.5068 15.0221 43.0735 15.9941 42.2935 16.701Z" fill="#3C3C3C"/>
<path d="M44.8934 22.3564C44.8934 22.3564 45.5867 21.3844 46.3667 22.1796C47.1467 22.8866 46.4534 24.3004 44.9801 24.3004C43.4201 24.4771 44.8934 22.3564 44.8934 22.3564Z" fill="#FFB680"/>
<path d="M44.2002 28.6303L44.2869 30.8394C44.2869 30.8394 40.4735 30.3093 39.0869 29.2489C37.7002 28.1885 37.1802 27.835 37.1802 27.835C37.1802 27.835 39.1735 27.4816 40.3869 27.7467C41.6869 28.0118 44.2002 28.6303 44.2002 28.6303Z" fill="#056CD3"/>
<path d="M39.6934 15.3755L41.9467 15.8174C41.9467 15.8174 46.1934 11.2224 50.44 15.8174C54.34 20.0589 49.66 24.3888 49.66 24.3888L48.7934 23.7702C49.66 22.5331 51.6534 19.352 49.7467 17.2312C47.32 14.4919 44.8067 15.4639 44.8067 15.4639C44.8067 15.4639 46.6267 15.729 48.1 17.673C49.4 19.352 48.0134 21.5611 47.2334 22.5331L39.1734 16.1708L39.6934 15.3755Z" fill="#1599EA"/>
<path d="M48.1866 17.4962C46.7132 15.5522 44.8932 15.2871 44.8932 15.2871C44.8932 15.2871 47.4066 14.3151 49.8332 17.0544C51.7399 19.2635 49.7466 22.4447 48.8799 23.5934L47.3199 22.3563C48.0999 21.3843 49.4866 19.1752 48.1866 17.4962Z" fill="#056CD3"/>
<path d="M35.9666 41.7083C36.2266 39.2341 37.6133 36.9366 38.6533 36.1413C39.6933 35.346 39.7799 34.1973 38.1333 33.7555C36.4866 33.402 32.9333 31.3696 31.2866 29.6907C30.2466 28.5419 26.8666 24.8306 24.7866 22.4447L27.9933 18.5566C27.9933 18.5566 37.6133 25.184 40.4733 27.7466C41.5999 28.7186 44.3733 30.751 44.3733 30.751C44.3733 30.751 46.4533 33.402 46.7133 38.969C46.9733 44.6244 45.9333 50.7216 45.6733 52.6656C45.4133 54.6097 46.4533 59.4697 46.4533 59.4697C46.4533 59.4697 39.5199 60.972 37.1799 60.4418C37.0933 60.4418 37.0066 60.4418 36.9199 60.3534C36.5733 54.6097 35.7933 43.564 35.9666 41.7083Z" fill="#1599EA"/>
<path d="M33.6267 37.997C33.8867 37.1134 34.2334 36.2297 34.4934 35.2577C33.02 33.7555 31.46 32.2533 30.8534 31.6347C28.34 29.2489 24.0934 23.5051 24.0934 23.5051L24.7867 22.6215C26.8667 25.0073 30.2467 28.6303 31.2867 29.8674C32.9334 31.6347 36.4867 33.5788 38.1334 33.9322C39.78 34.2857 39.6934 35.5228 38.6534 36.3181C37.6134 37.1134 36.2267 39.4109 35.9667 41.8851C35.7934 43.6524 36.5734 54.7864 36.92 60.4418C34.7534 59.9116 32.6734 59.4698 32.6734 59.4698C32.6734 59.4698 32.0667 43.0338 33.6267 37.997Z" fill="#057FD3"/>
<path d="M22.6201 13.5199C25.1334 15.9058 27.9934 18.5567 27.9934 18.5567L24.1801 23.4168C24.1801 23.4168 21.3201 19.1753 19.3267 16.3476C20.6267 15.4639 21.7534 14.4035 22.6201 13.5199Z" fill="#FFB680"/>
<path d="M13.6934 8.65979C13.1734 6.27393 14.9935 3.53461 15.9468 3.7997C16.9001 4.0648 18.1134 8.3947 18.8934 9.72017C19.2401 10.2504 20.8001 11.8409 22.5334 13.5199C21.6668 14.4035 20.5401 15.5523 19.2401 16.3476C18.2868 15.0221 17.5934 13.9617 17.4201 13.6966C16.9001 12.9897 14.2134 10.9573 13.6934 8.65979Z" fill="#3C3C3C"/>
<path d="M30.9399 19.7938C30.9399 19.7938 29.7266 21.9146 28.8599 23.1517C27.9933 24.3888 25.3066 26.2445 25.3066 26.2445C25.3066 26.2445 24.8733 24.919 24.0933 24.3888C23.3999 23.8586 22.9666 23.4168 22.9666 23.4168C22.9666 23.4168 25.5666 20.2356 26.3466 19.352C27.1266 18.5567 27.7333 17.408 27.7333 17.408C27.7333 17.408 30.4199 18.5567 30.9399 19.7938Z" fill="#056CD3"/>
<path d="M29.6401 20.2356C29.6401 20.2356 28.5135 22.4447 27.8201 23.0633C27.0401 23.7702 26.0868 24.5655 26.0868 24.5655C26.0868 24.5655 26.8668 23.24 27.4735 22.3564C28.3401 21.2076 29.6401 20.2356 29.6401 20.2356Z" fill="#1599EA"/>
<path d="M27.9934 20.5007C27.9934 20.5007 26.6934 22.268 25.9134 22.7982C25.1334 23.3284 24.0067 23.3284 24.0067 23.3284C24.0067 23.3284 25.3067 22.5331 26.0001 21.9146C26.6934 21.2077 27.9934 20.5007 27.9934 20.5007Z" fill="#1599EA"/>
<path d="M35.0133 48.3358L39.4333 52.6657L38.48 54.1679L34.06 49.4846L35.0133 48.3358Z" fill="#056CD3"/>
<path d="M38.2199 64.6833C38.2199 64.6833 38.1333 62.916 38.5666 61.2371C38.9999 59.293 39.5199 57.8792 40.0399 58.1443C40.5599 58.4094 39.7799 60.0883 39.5199 61.5905C39.2599 62.916 39.0866 65.0368 39.0866 65.0368L38.2199 64.6833Z" fill="#FF364A"/>
<path d="M40.7333 65.567C40.7333 65.567 41.7733 64.2415 42.4666 62.5626C43.2466 60.7069 43.5933 59.2931 43.0733 59.2047C42.5533 59.1164 42.2066 60.8837 41.5133 62.2975C40.9933 63.4463 39.8666 65.3903 39.8666 65.3903L40.7333 65.567Z" fill="#FF364A"/>
<path d="M35.7066 64.0648H43.5933V72.7246H35.7066V64.0648Z" fill="#E2901A"/>
<path d="M19.24 110.28H38.1333V112.401H19.24V110.28Z" fill="#7C7C7C"/>
<path d="M39.26 116.465H50.8733V118.586H39.26V116.465Z" fill="#7C7C7C"/>
<path d="M15.9468 120L25.6534 86.0677L29.0334 87.0398L19.5868 120H15.9468Z" fill="#ADADAD"/>
<path d="M38.9135 120L15.9468 62.2976L18.8935 61.1488L42.2935 120H38.9135Z" fill="#ADADAD"/>
<path d="M27.0401 87.5699C27.0401 88.0118 27.3868 88.4536 27.9068 88.4536C28.3401 88.4536 28.7734 88.1001 28.7734 87.5699C28.7734 87.1281 28.4268 86.6863 27.9068 86.6863C27.3868 86.7746 27.0401 87.1281 27.0401 87.5699Z" fill="white"/>
<path d="M36.4866 111.252C36.4866 111.694 36.8333 112.135 37.3533 112.135C37.7866 112.135 38.22 111.782 38.22 111.252C38.22 110.81 37.8733 110.368 37.3533 110.368C36.8333 110.457 36.4866 110.81 36.4866 111.252Z" fill="white"/>
<path d="M38.8267 117.437C38.8267 117.879 39.1734 118.321 39.6934 118.321C40.2134 118.321 40.5601 117.968 40.5601 117.437C40.5601 116.996 40.2134 116.554 39.6934 116.554C39.1734 116.554 38.8267 116.996 38.8267 117.437Z" fill="white"/>
</g>
<defs>
<clipPath id="clip0">
<rect width="52" height="120" fill="white" transform="matrix(-1 0 0 1 52 0)"/>
</clipPath>
</defs>
</svg>
