<svg width="41" height="105" viewBox="0 0 41 105" fill="none" xmlns="http://www.w3.org/2000/svg">
<g clip-path="url(#clip0)">
<path d="M33.9019 13.517C33.584 14.274 33.7959 15.1391 28.1809 13.9496C22.9897 12.8682 14.8321 7.89396 16.2094 7.02887C17.5866 6.27192 26.8037 6.8126 29.5582 8.86718C32.4187 10.9218 33.9019 13.517 33.9019 13.517Z" fill="black"/>
<path d="M19.3877 6.70447C19.2818 7.89396 16.951 13.8414 18.3283 15.0309C19.7056 16.2204 20.9769 16.3286 21.1888 16.1123C21.4007 15.896 21.6125 7.56956 21.6125 7.56956L19.3877 6.70447Z" fill="#211D1D"/>
<path opacity="0.55" d="M17.3747 2.48714C19.0698 0.973242 20.9768 0.21629 21.4006 0.108154C21.8244 0.108154 20.2352 1.29765 19.5996 2.70342C18.6461 3.78478 18.4342 5.08241 18.4342 6.05563C17.5866 7.13699 16.951 6.81258 16.3153 6.81258C15.6797 6.81258 15.2559 5.83936 15.4678 5.08241C15.6797 4.32546 16.7391 3.02782 17.3747 2.48714Z" fill="#FF9700"/>
<path d="M15.7854 98.7281C15.7854 102.621 14.62 105 12.6071 104.676C11.8655 104.567 11.2298 103.594 10.1704 104.135C6.99212 105.757 5.61486 104.892 4.66137 104.676C1.16525 104.135 0.847413 99.1607 3.49599 99.5932C6.25051 100.026 9.21692 96.3491 9.21692 96.3491L15.7854 98.7281Z" fill="#211D1D"/>
<path d="M10.0644 61.3131C10.0644 62.5026 8.36936 68.2338 9.11096 68.7745C9.85256 69.3152 10.806 69.3152 10.806 69.3152L11.8655 59.2586L10.912 58.6097L9.2169 60.9887L10.0644 61.3131Z" fill="#CF690C"/>
<path d="M12.0775 50.067C11.8656 51.9053 8.79326 75.6952 8.58137 78.0742C7.94571 85.3193 9.6408 81.6427 6.25062 98.0793L15.9974 102.297C15.9974 102.297 17.9044 103.378 20.2351 79.2637C20.7648 73.965 24.0491 56.2307 24.0491 51.0402C24.0491 45.9578 23.2015 44.1195 23.2015 44.1195L13.3488 44.8765L12.0775 50.067Z" fill="#CF690C"/>
<path d="M15.0439 47.9043C15.0439 52.1216 10.3824 75.2627 11.6538 79.1556C12.9251 83.0485 12.7132 84.1298 12.7132 84.1298C12.7132 84.1298 11.6538 87.0495 11.6538 88.3471C11.6538 89.6448 14.7261 90.7261 14.7261 91.8075C11.8657 90.5098 10.5943 91.5912 10.5943 91.5912C10.5943 91.5912 14.7261 92.8888 13.9845 93.4295C13.2429 93.9702 9.85273 93.6458 9.85273 93.6458C9.85273 93.6458 14.1964 97.1061 14.1964 98.4038C14.1964 99.7014 12.9251 100.891 12.9251 100.891L6.14472 97.9712C6.14472 97.9712 8.36953 86.4007 8.15764 81.9671C7.94575 78.3986 11.6538 51.689 12.1835 48.6612C12.8191 45.7416 15.0439 47.9043 15.0439 47.9043Z" fill="#ED8C2B"/>
<path d="M6.99213 94.2945C7.73373 94.1864 9.00504 94.2945 11.018 94.8352C15.2557 96.1328 17.3746 97.7549 17.6924 97.9711C17.3746 99.4851 16.9508 100.566 16.9508 100.566C16.9508 100.566 12.7131 98.0793 10.0645 97.4305C7.09807 96.4572 6.56835 96.6735 6.46241 96.4572C6.6743 95.2677 6.99213 94.2945 6.99213 94.2945Z" fill="#FFC200"/>
<path d="M6.67428 95.7003C7.9456 95.9166 12.0774 96.3491 17.2686 99.8095C17.5864 99.0525 17.5864 98.7281 17.5864 98.7281C17.5864 98.7281 11.7596 94.8352 6.88617 94.8352C6.67428 95.1596 6.67428 95.7003 6.67428 95.7003Z" fill="#88AAD2"/>
<path d="M38.0337 89.5366C36.4445 91.3749 39.6228 94.5109 40.5763 96.6736C41.9536 99.7014 39.0931 102.08 37.1861 102.189C33.7959 102.513 31.9949 100.35 32.2068 96.7817C32.4187 93.5377 31.4652 94.2946 31.0414 90.8343C30.8295 88.3471 38.0337 89.5366 38.0337 89.5366Z" fill="black"/>
<path d="M17.3747 53.8517C20.0233 65.5304 24.0491 75.0464 25.0026 79.5881C26.2739 84.9949 30.2997 93.6458 30.9354 96.4573C31.5711 99.1607 39.6227 95.9166 40.2584 93.5376C40.6822 91.9156 36.7623 81.102 35.5969 72.0186C34.2196 60.9887 33.2662 52.7704 31.2532 46.4985C29.9819 42.3893 20.8708 44.1195 20.8708 44.1195L17.3747 53.8517Z" fill="#CF690C"/>
<path d="M34.9613 61.8538C35.597 64.0165 37.398 68.9907 36.6564 69.6396C35.9148 70.2884 32.7365 72.8836 30.8296 71.9104C29.982 71.3697 28.8166 64.3409 28.7107 63.9083C28.2869 62.9351 34.9613 61.8538 34.9613 61.8538Z" fill="#ED8C2B"/>
<path d="M28.181 64.5572L36.6565 68.3419C36.6565 68.3419 35.5971 62.07 34.4317 61.3131C33.2663 60.5561 29.7702 62.1782 29.7702 62.1782L28.181 64.5572Z" fill="url(#paint0_linear)"/>
<path d="M34.0078 59.691C34.8553 60.0154 35.8088 61.8538 35.8088 61.8538C35.8088 61.8538 35.7029 62.07 33.7959 62.9351C31.6771 63.9083 28.6047 64.8816 28.2869 64.5572C27.969 64.2327 27.8631 61.5293 27.8631 61.5293L34.0078 59.691Z" fill="#ED8C2B"/>
<path d="M18.4342 58.0691C18.964 60.5562 23.8373 75.9115 25.0027 79.5881C26.1681 83.2648 27.5454 87.5902 28.3929 89.6448C29.3464 91.5912 30.9355 96.0248 31.0415 96.8899C31.1474 97.8631 34.8554 97.4306 36.1268 96.8899C38.1397 95.8085 33.1603 91.2668 32.9485 90.1855C32.7366 89.1041 35.1733 87.6983 33.1603 87.3739C31.2534 87.1577 29.1345 83.481 29.0286 82.0753C28.9226 80.7776 23.0957 69.4234 22.672 68.5583C21.0828 64.7735 18.4342 58.0691 18.4342 58.0691Z" fill="#ED8C2B"/>
<path d="M30.6177 95.4841C31.889 95.8086 33.0544 95.8085 34.6435 95.376C37.8218 94.5109 39.7288 92.5645 40.1526 92.2401C40.0466 90.9424 39.6229 89.7529 39.6229 89.7529C39.6229 89.7529 36.3386 92.7807 33.5841 93.2133C30.5118 93.754 29.7702 92.997 29.8761 93.4296C30.1939 94.4028 30.6177 95.4841 30.6177 95.4841Z" fill="#FFC200"/>
<path d="M30.1939 94.1865C32.9484 94.4028 36.1267 94.2946 39.8347 90.4017C40.0466 91.1587 40.0466 91.4831 40.0466 91.4831C40.0466 91.4831 35.8089 95.7004 30.4058 94.8353C30.1939 94.619 30.1939 94.1865 30.1939 94.1865Z" fill="#88AAD2"/>
<path d="M29.5581 12.2194C29.5581 13.6251 27.0155 15.896 28.1808 17.6262C29.2403 19.3563 29.4522 19.1401 29.4522 19.1401L28.2868 23.5736H19.7054C19.7054 23.5736 22.9896 17.4099 20.7648 16.4367C20.1292 16.3285 29.5581 12.2194 29.5581 12.2194Z" fill="#F4A684"/>
<path d="M21.7185 17.518L28.4988 25.9526L30.7236 20.3296C30.7236 20.3296 28.0751 18.275 27.9691 17.0855C27.8632 15.7878 27.7572 16.0041 27.7572 16.0041L21.7185 17.518Z" fill="url(#paint1_linear)"/>
<path d="M29.1343 18.4913C35.4909 21.6273 36.9741 23.2493 36.9741 23.2493C36.9741 23.2493 33.478 29.5212 33.1602 32.549C32.7364 35.5768 36.3385 52.1216 35.8087 56.5552C35.5969 58.7179 15.5736 58.826 14.4082 57.961C14.4082 57.961 18.0103 36.7663 18.7519 33.4141C19.4935 30.0619 21.2945 21.7354 22.0361 21.8435C24.5788 22.168 29.1343 18.4913 29.1343 18.4913Z" fill="#CF690C"/>
<path d="M19.4937 8.97534C18.964 12.8682 19.5997 17.0855 21.6126 17.8425C23.4136 18.4913 27.8632 16.7611 29.4524 13.3008C31.1475 9.73229 30.2999 5.83939 26.6979 4.75804C22.8839 3.56854 19.9175 5.73126 19.4937 8.97534Z" fill="#F4A684"/>
<path d="M23.8374 6.27186C23.7315 7.24509 26.6979 7.35322 27.5454 8.21831C28.393 9.0834 28.4989 11.138 28.4989 11.4624C28.4989 11.7868 29.3465 10.9217 29.7702 11.8949C30.194 12.76 28.7108 14.3821 28.1811 14.3821C27.6514 14.3821 27.5454 16.6529 27.5454 16.6529C27.5454 16.6529 30.8297 14.2739 31.1475 9.84035C31.4653 5.29864 27.8633 3.46033 26.2741 3.46033C24.0493 3.35219 23.8374 6.27186 23.8374 6.27186Z" fill="#1E0000"/>
<path d="M20.1292 6.05565C19.9173 7.13701 19.1757 9.84041 19.2817 11.0299C19.2817 12.3275 19.5995 16.1123 20.8708 17.4099C21.6124 18.0587 21.9302 17.9506 21.9302 17.9506C21.9302 17.9506 20.3411 16.7611 21.1886 11.0299C21.7183 7.67769 22.9897 6.16378 22.9897 5.94751C23.0956 5.73124 20.1292 6.05565 20.1292 6.05565Z" fill="#FFBEA1"/>
<path d="M19.4935 8.97526L26.4858 18.3831C26.4858 18.3831 30.7235 14.8146 30.2998 11.7868C29.9819 8.75898 32.2067 7.35322 28.1809 7.24508C24.0491 7.13694 19.9173 7.02881 19.9173 7.02881L19.4935 8.97526Z" fill="url(#paint2_linear)"/>
<path d="M28.2869 16.7611C27.6512 17.5181 24.6848 19.1401 23.7313 19.2482C22.7779 19.2482 24.8967 22.8167 24.8967 22.8167C24.8967 22.8167 30.0879 21.6272 30.4058 19.1401C30.4058 17.9506 28.2869 16.7611 28.2869 16.7611Z" fill="#CF690C"/>
<path d="M19.7056 16.9774C20.3412 17.7344 22.2482 19.789 25.2146 18.7076C27.1216 20.9784 26.1681 22.6005 26.1681 22.6005C26.1681 22.6005 22.2482 24.3307 19.9175 22.4924C17.057 20.2215 17.9046 19.789 17.9046 19.789L19.7056 16.9774Z" fill="#ED8C2B"/>
<path d="M19.3876 7.24589C19.2817 7.5703 20.7649 7.46216 24.4729 8.43538C28.1809 9.40861 31.2532 11.5713 31.4651 10.8144C33.0543 5.73199 31.0413 2.59604 26.9096 1.62282C23.7313 0.865868 20.0233 2.92045 19.3876 7.24589Z" fill="black"/>
<path d="M18.8578 6.81256C20.0231 2.91967 21.4004 0.432541 26.9095 1.73017C27.0154 1.73017 27.0154 1.73017 27.1213 1.83831C26.0619 1.94644 25.0025 2.48712 24.7906 2.7034C23.5193 4.10916 22.8836 6.05561 22.5658 7.89392C19.0697 7.02883 18.8578 7.02883 18.8578 6.81256Z" fill="#211D1D"/>
<path d="M30.9354 8.65096C30.9354 9.0835 31.2532 9.40791 31.677 9.40791H32.8424C33.1602 9.40791 33.584 9.0835 33.584 8.65096V8.43469C33.584 8.00214 33.2662 7.67773 32.8424 7.67773H31.677C31.2532 7.67773 30.9354 8.00214 30.9354 8.43469V8.65096Z" fill="black"/>
<path opacity="0.56" d="M32.6305 7.46141C32.2067 7.35327 31.4651 6.38005 30.9354 5.73123C30.4057 5.08242 28.9225 2.37902 27.2274 1.29766C25.1085 2.91578e-05 22.0362 -0.324379 20.7649 0.216301C18.646 1.18952 16.739 2.9197 16.739 2.9197C16.739 2.9197 19.9173 1.94648 23.3075 3.56852C24.7907 4.32547 27.7571 7.24514 28.8166 7.56955C31.2533 8.54277 32.1008 8.97531 32.7365 8.97531C33.3721 8.97531 32.6305 7.46141 32.6305 7.46141Z" fill="#FFC200"/>
<path d="M32.4186 8.54274C32.4186 8.86714 32.6305 9.19155 32.8423 9.19155C33.0542 9.19155 33.2661 8.86714 33.2661 8.54274C33.2661 8.21833 33.0542 7.89392 32.8423 7.89392C32.6305 7.89392 32.4186 8.11019 32.4186 8.54274Z" fill="#211D1D"/>
<path d="M28.181 9.7323C28.2869 10.9218 27.0156 15.1391 27.4394 16.1123C27.8631 17.0855 29.8761 18.7076 30.4058 18.7076C31.0414 18.7076 32.4187 11.6787 31.4652 10.8137C30.5117 10.0567 28.181 9.7323 28.181 9.7323Z" fill="black"/>
<path d="M33.584 13.9496C32.9483 13.3008 32.5245 11.7869 29.6641 10.3811C26.8036 9.08347 17.0568 6.1638 15.9974 7.24516C15.8915 6.92075 15.9974 6.48821 16.8449 6.48821C17.7984 6.48821 18.7519 6.05566 19.1757 6.05566C19.5995 6.05566 28.7106 8.11025 30.8294 9.51601C32.8424 10.8136 34.0077 12.8682 33.9018 13.517C33.6899 14.1659 33.584 13.9496 33.584 13.9496Z" fill="#211D1D"/>
<path d="M13.6668 32.2245C13.9846 30.6025 14.3024 28.8723 14.4084 27.2503C12.7133 27.1422 9.32309 26.6015 10.3825 25.0876C11.6538 23.1411 14.8321 20.8703 15.9975 20.654C17.2688 19.8971 17.6926 19.7889 19.9174 18.9238C19.9174 18.9238 20.3412 21.411 21.6125 22.1679C23.7314 23.4655 18.5401 35.4686 17.2688 41.5242C16.2094 46.931 15.6797 57.6365 15.6797 57.6365C15.6797 57.6365 8.58149 56.9877 8.58149 55.7982C8.68743 50.1751 13.137 34.4954 13.6668 32.2245Z" fill="#ED8C2B"/>
<path d="M6.25067 21.6272C4.76746 22.276 -2.33073 26.0608 0.953508 34.3872C4.55558 43.7951 9.42896 48.9856 14.3023 51.9053C18.1163 54.2843 21.9303 55.3656 25.0026 55.3656C27.4393 55.3656 28.8166 52.0134 28.7106 50.6076C28.6047 49.2019 22.5659 33.5222 17.6925 29.9537C12.8191 26.277 6.25067 21.6272 6.25067 21.6272Z" fill="#C4995B"/>
<path d="M23.7314 54.6086C22.8839 54.7168 12.6074 52.0134 8.1578 45.2008C3.70819 38.3882 -1.48303 28.656 2.43687 25.6282C6.88648 24.4387 22.1423 39.794 23.8374 44.8764C25.5325 49.9588 24.473 54.5005 23.7314 54.6086Z" fill="#D6B992"/>
<path d="M23.9431 54.0679C22.1421 54.6086 13.3488 51.9052 8.8992 45.0926C4.44958 38.2801 -0.741629 28.5478 3.17827 25.52C7.62788 24.3305 22.8837 39.6858 24.5788 44.7682C26.2739 49.8506 24.5788 53.8517 23.9431 54.0679Z" fill="#C4995B"/>
<path d="M24.6849 53.8517C23.8373 53.9598 13.5609 51.2564 9.11125 44.4438C4.66164 37.6313 -0.529575 27.899 3.39032 24.8712C7.83993 23.6817 23.0957 39.037 24.7908 44.1194C26.4859 49.2018 25.3206 53.8517 24.6849 53.8517Z" fill="#D6B992"/>
<path d="M25.1085 53.8517C24.2609 53.9599 13.9844 51.2565 9.53483 44.4439C5.08522 37.6313 -0.105993 27.8991 3.8139 24.8713C8.26352 23.6818 23.5193 38.929 25.2144 44.1195C26.9095 49.2019 25.7441 53.7436 25.1085 53.8517Z" fill="#C4995B"/>
<path d="M20.8708 51.689C20.2351 51.689 12.6072 48.4449 8.89922 42.7137C5.19121 36.9825 1.4832 29.6292 3.81395 27.6828C9.11111 24.0062 20.8708 41.416 22.5659 45.8496C24.261 50.1751 22.8837 51.689 20.8708 51.689Z" fill="#D6B992"/>
<path d="M21.4006 51.4727C19.1757 51.5809 13.137 48.6612 9.32304 42.8219C5.61503 37.0907 1.05947 28.5479 4.23776 27.791C7.41606 27.4666 20.0233 41.7405 21.6124 46.1741C23.3075 50.4995 21.8243 51.4727 21.4006 51.4727Z" fill="#C4995B"/>
<path d="M20.341 50.4994C18.9638 50.7157 13.1369 48.2286 9.4289 42.3892C5.72089 36.658 2.11882 29.4129 4.55551 27.5746C8.26352 26.3851 20.2351 41.3079 21.8242 45.6333C23.5193 49.9587 20.8708 50.3913 20.341 50.4994Z" fill="#D6B992"/>
<path d="M19.3876 49.6344C18.7519 49.4181 13.5607 48.2286 9.74674 42.3893C6.03873 36.6581 2.75449 30.0618 5.19118 28.2235C8.15759 26.3852 18.7519 36.5499 22.0361 45.7415C23.6253 50.0669 19.9173 49.8507 19.3876 49.6344Z" fill="#C4995B"/>
<path d="M18.8581 49.0938C18.4343 49.0938 12.7134 46.066 9.95883 41.7405C7.20431 37.4151 3.4963 31.0351 5.19139 29.6293C9.21723 26.8178 18.964 40.6592 20.2353 44.0114C21.5066 47.3636 20.3413 49.0938 18.8581 49.0938Z" fill="#D6B992"/>
<path d="M19.2818 48.3368C17.5867 48.445 13.0312 46.1741 10.2767 41.8487C7.52214 37.5233 3.70819 30.6026 6.14488 30.0619C10.8064 28.4398 18.6462 40.9836 19.9175 44.3358C21.0829 47.5799 19.7056 48.3368 19.2818 48.3368Z" fill="#C4995B"/>
<path d="M18.6461 47.5799C17.5867 47.7961 13.243 45.8497 10.4885 41.5242C7.73396 37.1988 4.97944 31.792 6.78047 30.3862C9.53499 29.5212 18.5402 40.6592 19.7055 43.9032C20.9768 47.2554 18.9639 47.5799 18.6461 47.5799Z" fill="#D6B992"/>
<path d="M17.7987 47.0391C17.269 46.931 13.455 45.9578 10.5946 41.6323C7.84004 37.3069 5.5093 32.7652 7.31033 31.3594C9.53514 29.9537 17.6928 41.0917 18.9641 44.4439C20.3413 47.688 18.2225 47.0391 17.7987 47.0391Z" fill="#C4995B"/>
<path d="M16.5272 45.9578C16.2093 45.9578 13.6667 44.9845 11.1241 40.9835C9.5349 38.3882 6.25067 33.6303 7.3101 32.8733C9.11113 31.3594 16.5272 40.4428 17.2688 42.3893C17.9044 44.3357 18.3282 46.4984 16.5272 45.9578Z" fill="#D6B992"/>
<path d="M16.6331 45.2008C15.6796 45.309 12.9251 43.9032 11.23 41.3079C9.64082 38.7127 6.25064 33.414 7.6279 33.0896C9.00516 32.9815 15.9974 40.8754 16.739 42.8218C17.5865 44.7683 16.9509 45.2008 16.6331 45.2008Z" fill="#C4995B"/>
<path d="M15.4677 44.4439C14.832 44.552 12.8191 42.93 11.23 40.551C9.64083 38.172 7.31008 35.4686 8.26357 34.7117C8.79328 33.9547 15.3618 40.6591 16.1034 42.4974C16.739 44.3358 15.6796 44.4439 15.4677 44.4439Z" fill="#D6B992"/>
<path d="M14.7262 43.6869C14.5143 43.5788 13.0311 42.7137 11.5479 40.4428C10.0647 38.2801 8.05181 35.2523 8.68747 35.3604C9.11124 35.1442 14.6203 40.551 15.2559 42.173C15.9976 43.9032 14.9381 43.6869 14.7262 43.6869Z" fill="#C4995B"/>
<path d="M24.5789 53.7435C26.168 53.4191 27.6512 53.2029 27.9691 52.8785C29.2404 51.2564 31.3592 48.1205 31.0414 47.2554C30.6176 46.174 25.6383 28.2235 8.68741 22.0597C8.68741 22.0597 3.28431 20.4377 1.90705 25.7363C1.90705 25.7363 9.21713 24.2224 19.7055 38.9289C27.8631 50.0669 24.5789 53.7435 24.5789 53.7435Z" fill="#D6B992"/>
<path d="M0.847706 26.8178C1.05959 26.2771 1.69525 24.9795 4.23789 25.6283C9.21722 26.7096 23.8374 38.929 25.9562 48.7694C26.486 51.4728 25.8503 52.6623 25.2146 53.6355C23.7314 55.9063 18.6462 53.5274 17.9046 53.4192C16.8451 53.2029 8.47561 49.8507 4.66166 41.8487C0.847708 33.8466 -1.27116 32.2246 0.847706 26.8178Z" fill="url(#paint3_linear)"/>
<path d="M25.0026 53.9598C29.876 55.0412 31.3592 48.8774 30.9354 47.7961C30.5117 46.7147 25.8502 28.4397 9.21709 21.4109C9.21709 21.4109 2.22484 22.6004 2.33079 25.0875C2.33079 25.0875 11.9716 25.3038 21.1887 40.2265C28.2869 51.4727 25.0026 53.9598 25.0026 53.9598Z" fill="#C4995B"/>
<path d="M25.956 54.5005C28.9224 54.5005 31.0413 49.7425 30.8294 48.553C30.4056 46.0658 25.6382 28.7641 9.00511 21.7353C9.00511 21.7353 4.97927 20.2214 2.64853 24.6549C2.64853 24.6549 11.9715 24.0061 21.5064 39.3614C28.1808 50.2831 25.956 54.5005 25.956 54.5005Z" fill="#D6B992"/>
<path d="M25.9561 54.7168C29.1344 54.7168 32.1008 50.4995 31.889 47.9042C31.2533 41.6323 24.4729 23.3574 8.58146 20.9784C8.58146 20.9784 4.66156 19.897 2.33081 24.4387C2.33081 24.4387 12.8192 23.6818 22.2481 39.0371C28.9225 49.7425 25.9561 54.7168 25.9561 54.7168Z" fill="#C4995B"/>
<path d="M25.9561 54.8249C28.2869 54.8249 31.1473 51.2564 31.2533 50.0669C31.677 44.0113 23.2016 22.7085 17.1628 24.1143C17.1628 24.1143 16.3153 24.7631 15.6796 27.3584C15.6796 27.3584 15.2558 27.4665 21.2946 35.9011C30.0879 48.1205 25.9561 54.8249 25.9561 54.8249Z" fill="#D6B992"/>
<path d="M10.2767 24.4387L13.7728 34.8198L19.9175 32.6571L17.163 24.655L14.4084 25.7364L10.2767 24.4387Z" fill="url(#paint4_linear)"/>
<path d="M16.7391 23.1411L17.1628 23.3574C17.5866 23.6818 17.4807 24.8713 16.9509 26.2771C16.4212 27.6828 15.5737 28.656 15.044 28.5479L14.6202 28.3316C14.6202 28.3316 14.8321 26.4933 15.2559 25.5201C15.6796 24.655 16.7391 23.1411 16.7391 23.1411Z" fill="#88AAD2"/>
<path d="M16.7391 23.1411C16.2094 22.9248 15.3619 23.898 14.8322 25.4119C14.3024 26.8177 14.1965 28.2235 14.7262 28.3316C15.2559 28.5479 16.1035 27.5747 16.6332 26.0608C17.1629 24.655 17.2689 23.3574 16.7391 23.1411Z" fill="#5E7BB0"/>
<path d="M16.739 23.7899L15.0439 27.791L10.3824 24.655C10.1705 24.5469 10.2765 24.0062 10.4884 23.4655C10.7003 22.8167 11.0181 22.4923 11.23 22.4923L16.739 23.7899Z" fill="#5E7BB0"/>
<path d="M16.1033 26.0608L11.23 23.7899C11.23 23.7899 11.5478 22.8167 11.3359 22.4923C13.3488 22.9249 16.6331 23.7899 16.6331 23.7899C16.6331 23.7899 16.6331 24.7632 16.1033 26.0608Z" fill="#88AAD2"/>
<path d="M3.81406 35.9012C4.87349 36.3337 5.61509 36.2256 5.93292 36.4419C6.25075 36.6581 6.46263 37.3069 4.44971 37.3069C4.44971 37.3069 5.82698 37.8476 6.78046 37.9558C7.31018 38.0639 9.00527 38.2802 8.68744 38.6046C8.36961 38.929 7.83989 39.2534 6.67452 39.1453C6.67452 39.1453 8.58149 38.4964 8.47555 39.4697C8.36961 40.4429 7.09829 40.2266 6.35669 40.4429C6.8864 40.2266 8.26367 40.0103 7.83989 40.551C7.41612 41.0917 4.76754 41.8486 3.92 41.7405C3.07245 41.6324 1.6952 40.551 1.16548 39.4697C0.635765 38.3883 0.953591 35.9012 1.37736 35.9012C1.69519 35.6849 3.81406 35.9012 3.81406 35.9012Z" fill="#4E5646"/>
<path d="M11.0181 40.4429C10.4883 40.1185 9.95862 39.7941 10.0646 39.3616C10.1705 38.929 10.8062 39.0372 11.4418 39.2534C11.3359 39.2534 11.2299 39.1453 11.124 39.1453C10.5943 38.929 10.3824 38.1721 11.0181 38.2802C11.5478 38.3883 13.1369 38.8209 13.9845 38.8209C13.9845 38.8209 13.9845 38.8209 14.0904 38.8209C14.4082 38.7128 14.6201 38.2802 14.6201 38.2802C14.7261 37.8477 13.3488 37.5233 13.4547 36.9826C13.5607 36.2256 17.7984 37.4151 18.9638 37.5233C18.9638 37.5233 21.8243 41.4162 19.1757 43.0382C16.739 44.444 15.0439 44.3358 14.4082 44.2277C13.031 44.3358 10.5943 42.2812 10.7002 41.9568C10.7002 41.7406 10.9121 41.6324 11.0181 41.6324C10.4883 41.308 10.0646 40.9836 10.1705 40.4429C10.1705 40.2267 10.5943 40.3348 11.0181 40.4429Z" fill="#293023"/>
<path d="M36.9743 23.033C38.3516 23.6818 39.9407 26.2771 36.3386 33.414C36.3386 33.414 34.2198 37.9558 30.7237 41.1998C27.2275 43.687 24.0492 46.4985 18.1164 46.1741C18.7521 43.2544 18.2224 39.5778 17.3748 37.4151C20.5531 35.4686 23.7314 34.7117 25.4265 33.3059C27.0156 31.9001 27.9691 29.6293 31.7831 24.7632C33.6901 22.0598 36.1268 22.6004 36.9743 23.033Z" fill="#ED8C2B"/>
<path d="M34.008 37.5231C33.3723 36.2255 32.9485 34.9279 31.8891 33.6303C30.6178 32.0082 28.393 30.8187 27.5454 30.7106C28.287 29.3048 29.3465 27.899 29.3465 27.899C29.3465 27.899 31.9951 28.8723 33.4783 30.3862C34.9615 31.9001 36.1268 33.8465 36.0209 34.1709C34.9615 36.0092 34.008 37.5231 34.008 37.5231Z" fill="#FFC200"/>
<path d="M27.9692 29.7374C28.287 29.8455 30.0881 30.1699 31.9951 32.1164C33.1604 33.5221 34.5377 36.0093 34.6436 36.3337C35.1734 35.3605 35.2793 35.3605 35.2793 35.3605C35.2793 35.3605 34.4318 32.9815 32.6307 31.1431C30.8297 29.413 29.4524 29.0886 28.6049 28.7642C28.287 29.0886 27.9692 29.7374 27.9692 29.7374Z" fill="#88AAD2"/>
<path d="M19.8115 46.0659C20.1293 45.5253 20.3412 43.0381 20.0233 41.0917C19.3877 37.8476 18.858 37.3069 18.6461 36.55C19.9174 35.793 21.4006 35.3605 21.4006 35.3605C21.4006 35.3605 22.7779 37.1988 23.2016 40.2266C23.7314 43.1463 23.5195 45.4171 23.0957 45.5253C21.2947 46.1741 19.8115 46.0659 19.8115 46.0659Z" fill="#FFC200"/>
<path d="M22.2482 45.7416C22.778 43.0382 22.3542 38.6046 20.4472 35.5768C19.1759 36.0093 19.4937 36.1175 19.4937 36.1175C19.4937 36.1175 22.1423 40.9836 20.9769 45.9578C21.9304 46.1741 22.2482 45.7416 22.2482 45.7416Z" fill="#88AAD2"/>
</g>
<defs>
<linearGradient id="paint0_linear" x1="32.4535" y1="66.454" x2="31.3596" y2="61.4978" gradientUnits="userSpaceOnUse">
<stop stop-color="white"/>
<stop offset="0.6429" stop-color="#D4C9BD"/>
</linearGradient>
<linearGradient id="paint1_linear" x1="29.3938" y1="26.0562" x2="24.1962" y2="14.9427" gradientUnits="userSpaceOnUse">
<stop stop-color="white"/>
<stop offset="0.2511" stop-color="#FDFCFC"/>
<stop offset="0.4407" stop-color="#F7F4F2"/>
<stop offset="0.6101" stop-color="#ECE5E2"/>
<stop offset="0.7676" stop-color="#DDD0CB"/>
<stop offset="0.9156" stop-color="#C9B6AE"/>
<stop offset="0.967" stop-color="#C1ABA2"/>
</linearGradient>
<linearGradient id="paint2_linear" x1="29.1825" y1="17.8038" x2="22.734" y2="4.01515" gradientUnits="userSpaceOnUse">
<stop stop-color="white"/>
<stop offset="0.17" stop-color="#F9F8F7"/>
<stop offset="0.4377" stop-color="#EAE3E0"/>
<stop offset="0.7679" stop-color="#D2C2BC"/>
<stop offset="0.967" stop-color="#C1ABA2"/>
</linearGradient>
<linearGradient id="paint3_linear" x1="0.85005" y1="49.5832" x2="24.4948" y2="31.892" gradientUnits="userSpaceOnUse">
<stop stop-color="white"/>
<stop offset="0.5162" stop-color="#DCD0CB"/>
<stop offset="0.967" stop-color="#C1ABA2"/>
</linearGradient>
<linearGradient id="paint4_linear" x1="16.8688" y1="33.2651" x2="10.6989" y2="18.2724" gradientUnits="userSpaceOnUse">
<stop stop-color="white"/>
<stop offset="0.1754" stop-color="#FBFAF8"/>
<stop offset="0.4213" stop-color="#EFEBE6"/>
<stop offset="0.7078" stop-color="#DBD2C8"/>
<stop offset="0.8022" stop-color="#D4C9BD"/>
</linearGradient>
<clipPath id="clip0">
<rect width="41" height="105" fill="white" transform="matrix(-1 0 0 1 41 0)"/>
</clipPath>
</defs>
</svg>
