<svg width="87" height="95" viewBox="0 0 87 95" fill="none" xmlns="http://www.w3.org/2000/svg">
<g clip-path="url(#clip0)">
<path d="M53.1 18.6C54.3 18.5 57.6 18.4 58.7 26.1C58.7 26.1 58.4 29.4 57.1 33.1C55.5 36.3 54.3 42.9 52.6 43.9C51.7 42.6 46.9 42.1 45.5 40.9C47.7 38 49.1 35.5 49.7 33.8C50.5 31.8 50.1 27.8 50 22C49.6 20 52.3 18.6 53.1 18.6Z" fill="#CF690C"/>
<path d="M48.6001 43.8C49.7001 43.4 52.7001 43.7 52.8001 44.2C52.9001 44.7 53.2001 45.4 52.6001 45.4C52.1001 45.4 51.6001 45 50.6001 44.8C49.7001 44.7 47.5001 45.7 47.5001 45.7L48.6001 43.8Z" fill="#AF0000"/>
<path d="M51.8 43.5C51.8 44.3 51.9 45.3 51.1 45.6C50.3 45.9 49.3 46.3 48.9 45.8C48.5 45.2 49.9 44.4 49.9 44.4C49.9 44.4 47.7 43 47.1 43.9C46.5 44.8 46.2 44.8 46.9 46C47.3 46.8 46.4 47.3 45.9 46.7C45.3 46.1 44.8 43.4 45.3 42.7C45.9 42 46.2 41.7 47.9 40.6C49.5 39.5 50 39.1 50 39.1C50 39.1 52.9 41.8 53.4 41.8C53.8 41.8 51.8 43.5 51.8 43.5Z" fill="#4E5646"/>
<path d="M46.5998 47C46.5998 47.4 47.1998 47.7 47.7998 47.6C48.3998 47.5 48.7998 47.2 48.7998 46.7L48.5998 44.5C48.5998 44.1 47.9998 43.8 47.3998 43.9C46.7998 44 46.3998 44.3 46.3998 44.8L46.5998 47Z" fill="#88AAD2"/>
<path d="M46.0998 47.7C46.1998 48.4 46.3998 49 46.8998 48.9L48.7998 48.6C49.2998 48.5 49.4998 48.1 49.3998 47.4C49.2998 46.7 49.1998 46.1 48.6998 46.2L46.5998 46.4C46.0998 46.4 45.9998 47 46.0998 47.7Z" fill="#AF0000"/>
<path d="M45.7999 73.2999C45.9999 75.4999 47.8999 75.3999 50.0999 75.0999L51.0999 74.9999C53.3999 74.7999 55.1999 74.5999 54.8999 72.2999L52.7999 51.4999C52.5999 49.1999 50.5999 47.5999 48.2999 47.7999L47.2999 47.8999C44.9999 48.0999 43.3999 50.0999 43.5999 52.3999L45.7999 73.2999Z" fill="#F51500"/>
<path d="M52.7998 51.4999L54.8998 72.2999C55.0998 74.5999 53.2998 74.7999 51.0998 74.9999L50.0998 75.0999C49.4998 75.1999 49.3998 75.1999 48.8998 75.1999C48.8998 75.0999 48.8998 74.8999 48.7998 74.7999L46.4998 51.8999C46.2998 50.2999 46.3998 48.8999 47.4998 47.9999L48.3998 47.8999C50.5998 47.5999 52.5998 49.1999 52.7998 51.4999Z" fill="#AF0000"/>
<path d="M51.2385 54.9189L51.7485 59.8929L45.2823 60.5559L44.7723 55.5819L51.2385 54.9189Z" fill="#C3D8EE"/>
<path d="M46.8723 55.3728L47.3848 60.3463L45.3954 60.5513L44.8829 55.5778L46.8723 55.3728Z" fill="white"/>
<path d="M47.7999 46.1C48.0999 46.1 48.3999 45.8 48.3999 45.4C48.3999 45.1 48.0999 44.8 47.6999 44.8C47.3999 44.8 47.1999 44.8 46.9999 44.8C46.4999 44.8 46.1999 44.7 46.1999 44.7C46.1999 44.5 46.5999 44 47.0999 43.5C47.5999 42.9 48.2999 42.2 48.7999 41.7C49.0999 41.3 49.3999 41 49.3999 40.5C49.3999 40.2 49.1999 39.9 48.9999 39.8C48.7999 39.7 48.4999 39.7 48.2999 39.6C48.2999 39.6 48.2999 39.6 48.1999 39.6C45.2999 39.6 44.7999 39.7 43.0999 40.5C42.7999 40.7 42.6999 41 42.7999 41.3C42.9999 41.6 43.2999 41.7 43.5999 41.6C45.1999 40.8 45.1999 40.8 47.8999 40.8L47.7999 40.9C47.4999 41.2 47.0999 41.6 46.6999 42C45.8999 42.9 44.9999 43.6 44.8999 44.7C44.8999 45.1 45.1999 45.6 45.5999 45.7C45.8999 46 46.2999 46.1 46.8999 46.1C47.1999 46.1 47.3999 46.1 47.7999 46.1Z" fill="#211D1D"/>
<path d="M31.9999 43C32.2999 44.5 32.7999 45.4 34.3999 44.9L44.4999 41.9C44.8999 41.8 45.0999 41.1 44.9999 40.5C44.8999 39.9 44.4999 39.4 43.9999 39.4L33.3999 40.3C31.6999 40.4 31.6999 41.5 31.9999 43Z" fill="black"/>
<path d="M64.8 88.1001C65.2 91.3001 64.7 93.3001 63 93.2001C62.4 93.2001 61.4 93.1001 60.4 93.5001C57.4 94.5001 56.5 94.3001 55.7 94.3001C52.7 94.2001 52 90.4001 54.3 90.4001C56.6 90.4001 59 86.7001 59 86.7001L64.8 88.1001Z" fill="#211D1D"/>
<path d="M56.9999 44.9C57.0999 50.7 56.4999 67.2 56.7999 69.8C57.0999 72.4 56.0999 89.8 56.0999 89.8C56.0999 89.8 61.8999 87.4 65.1999 91.3C66.2999 92.6 66.7999 74.1 66.7999 71.8C66.7999 69.5 67.8999 59.4 67.8999 54.1C67.7999 48.8 66.7999 44.9 66.7999 44.9H56.9999Z" fill="#ED8C2B"/>
<path d="M60.4999 53.1C60.4999 57.2 59.0999 68.6001 59.0999 69.9001C59.1999 71.3001 59.3999 70.9 59.8999 72.7C60.3999 74.5 60.6999 78.4001 60.0999 80.9001C59.4999 83.4001 58.8999 84.5 59.0999 85C59.3999 85.6 58.8999 89 58.8999 89C58.8999 89 65.1999 90.3001 65.0999 91.3001C65.8999 90.8001 66.6999 87 66.5999 84.6C66.4999 82.2 67.3999 66.5 67.0999 63.3C66.7999 60.1 64.9999 52.4001 64.7999 51.7001C64.6999 50.9001 60.4999 53.1 60.4999 53.1Z" fill="#CF690C"/>
<path d="M56.4 84.8C56.8 84.6 57.8 84.5 59.5 84.5C63.7 84.7 66.2 85.8 66.7 86C66.4 87.7 66 89.6 66 89.6C66 89.6 62.4 87.5 59 87.5C57.2 87.3 56.2 88.1 56.2 88C56.2 87.1 56.4 84.8 56.4 84.8Z" fill="#FFC200"/>
<path d="M56.1999 86.9C57.0999 86.9 60.2999 85.5 66.1999 88.4C66.4999 87.6 66.2999 87.4 66.2999 87.4C66.2999 87.4 60.1999 84.9 56.1999 86.2C56.1999 86.4 56.1999 86.9 56.1999 86.9Z" fill="#88AAD2"/>
<path d="M85.4999 86.7001C86.3999 89.8001 86.3999 91.6001 84.6999 91.7001C84.0999 91.8001 83.8999 91.8001 83.0999 92.5001C80.8999 94.5001 79.3999 94.4001 78.5999 94.5001C75.6999 94.9001 73.6999 91.7001 75.4999 90.7001C77.4999 89.6001 79.6999 86.2001 79.6999 86.2001L85.4999 86.7001Z" fill="black"/>
<path d="M72.7 37.7001C74.3 41.3001 76.6 45.0001 76.3 47.6001C75.8 52.4001 79.5 64.8001 79.7 66.2001C83.2 71.3001 88.2 87.5001 86.7 89.6001C82.2 86.9001 77.4 88.5001 77.4 88.5001C77.4 88.5001 70.5 72.9001 69.3 70.2001C68.1 67.5001 59 46.2001 58.6 45.0001C58.2 44.0001 72.7 37.7001 72.7 37.7001Z" fill="#CF690C"/>
<path d="M63.8 56.0001C64.4 58.2001 68.9 70.0001 69.5 71.7001C70.1 73.4001 71 75.1001 71.4 75.8001C71.9 76.5001 75.5 84.1001 75.6 85.2001C75.7 86.3001 76.8 88.8001 77.1 88.9001C77.4 89.0001 81.1 87.6001 82.5 88.1001C82.1 86.9001 79.1 86.7001 78.6 86.7001C79.4 86.5001 82.5 86.1001 82.3 85.9001C82.1 85.6001 78.4 82.9001 77.6 83.0001C78.4 82.5001 79.5 81.8001 79.5 81.8001C79.5 81.8001 76.9 79.9001 75.5 77.0001C75 75.9001 72.4 72.8001 71.4 70.2001C70.6 68.3001 63.8 56.0001 63.8 56.0001Z" fill="#ED8C2B"/>
<path d="M75.5 84.8001C75.8 84.4001 76.7 84.1001 78.2 83.7001C82.4 82.7001 85.4 83.1001 86 83.1001C86.8 85.6001 86.8 87.3001 86.8 87.3001C86.8 87.3001 82 85.9001 78.7 86.7001C77.1 86.9001 76.5 87.9001 76.4 87.8001C75.7 86.2001 75.5 84.8001 75.5 84.8001Z" fill="#FFC200"/>
<path d="M76.0001 86.7001C76.8001 86.4001 79.3001 84.3001 86.6001 85.9001C86.6001 84.8001 86.4001 84.5001 86.4001 84.5001C86.4001 84.5001 78.9001 83.5001 75.8001 85.9001C75.8001 86.2001 76.0001 86.7001 76.0001 86.7001Z" fill="#88AAD2"/>
<path d="M58.9 29.7C57.4 29.2 56.1 28.8 54.3 28.6C52.1 28.3 51 28.1 50 28.5C50 27.3 49.9 26 49.9 26C49.9 26 51.7999 25.4 53.9999 25.6C56.1999 25.7 58.6 26.5 58.7 26.8C59.1 28.7 58.9 29.7 58.9 29.7Z" fill="#FFC200"/>
<path d="M50 27.7C50.4 27.6 51.3 27 54.2 27.3C56.2 27.5 58.6 28.5 59 28.6C58.9 27.6 58.9 27.5 58.9 27.5C58.9 27.5 56.5 26.4 53.8 26.2C52.4 26.1 50.9 26.4 50 26.6C50 27.1 50 27.7 50 27.7Z" fill="#88AAD2"/>
<path d="M50.7999 15.8001L50.6999 15.7001C50.1999 15.2001 49.6999 14.6001 49.1999 13.9001C48.6999 13.2001 48.2999 12.5001 48.0999 12.1001C47.4999 11.0001 46.8999 8.40007 46.5999 7.40007C46.5999 7.40007 46.8999 7.20007 47.2999 7.00007C47.7999 5.20007 49.3999 3.70007 51.8999 3.20007C55.4999 2.50007 57.9999 5.50007 58.1999 9.30007C58.3999 12.9001 55.4999 16.3001 53.5999 16.8001C53.5999 16.8001 53.2999 17.0001 52.3999 16.8001C51.7999 16.6001 51.2999 16.3001 50.7999 15.8001Z" fill="#FFBEA1"/>
<path d="M60.7999 13.3C66.0999 15.2 68.6999 17.3 68.6999 17.3C68.6999 17.3 69.8999 18.5 69.8999 21.3C69.8999 22.6 71.5999 28 72.8999 31.8C74.3999 36.2 76.2999 36.0001 77.4999 46.4001C77.6999 48.3001 61.5999 54.4001 58.3999 53.7001C58.3999 53.7001 53.7999 33.7 53.0999 30.9C52.3999 28 53.4999 17.7 54.0999 17.4C56.2999 16.4 60.7999 13.3 60.7999 13.3Z" fill="#CF690C"/>
<path d="M53.7 43.5001C53.7 43.1001 53.8 42.0001 53.7 41.6001C52.6 36.8001 51.9 32.7001 51.6 31.6001C51.3 30.2001 49.8 20.3001 50.6 19.7001C51.3 18.6001 52.5 17.9001 53.9 16.2001C53.9 16.2001 54.7 16.8001 54.4 18.1001C52.8 25.8001 53.8 30.5001 55.1 35.7001C56.5 41.7001 57.3 46.9001 59.2 53.7001C59.2 53.7001 54.4 54.1001 54.2 53.1001C53.7 50.6001 54.1 48.1001 53.7 43.5001Z" fill="#ED8C2B"/>
<path d="M59.5 10.5L61.7 13.3C61.7 13.3 56.3 20.2 53.4 19.2C52.5 18.9 51.7 16.3 51.7 16.3C51.7 16.3 54.4 15.2 57.9 12.1C58.7 11.5 59.5 10.5 59.5 10.5Z" fill="#CF690C"/>
<path d="M49.3 8.7C49.8 9.2 50.1 11.5 52.4 12.2C54.7 12.9 55.8 15.7 56.8 14.8C57.9 13.9 61 12 60.9 11.1C60.8 10.6 61.1 7.7 60.1 7.2C59.1 6.7 49.3 8.7 49.3 8.7Z" fill="#BE9457"/>
<path opacity="0.51" d="M43.6 9.20007L45.9 15.2001C45.9 15.2001 49.2 14.6001 50.9 13.0001C52.7 11.4001 52.3 8.20007 52.3 8.20007L43.6 9.20007Z" fill="#FFC200"/>
<path d="M63.7001 6.09998C64.5001 6.09998 65.2001 6.39998 65.1001 7.09998C65.0001 7.79998 57.9001 10.3 55.9001 9.99998C54.0001 9.69998 49.9001 9.09998 48.1001 9.39998C46.4001 9.69998 43.9001 10.2 43.5001 9.39998C43.1001 8.69998 43.9001 7.89998 44.4001 7.69998C45.0001 7.49998 63.7001 6.09998 63.7001 6.09998Z" fill="#211D1D"/>
<path d="M59.6001 5.5C59.6001 5.5 62.6001 6.5 64.5001 6.4C65.2001 6.4 62.3001 8.6 56.7001 9.4C54.6001 9.7 51.7001 8.6 49.7001 8.7C47.7001 8.8 44.2001 9.8 43.8001 8.9C43.5001 8 45.4001 7.2 46.8001 6.6C48.1001 6 59.6001 5.5 59.6001 5.5Z" fill="black"/>
<path d="M46.2 7.70001C45.5 7.90001 45.8 4.30001 46.3 3.40002C46.9 2.40002 48.5 0.600015 51 0.100015C52.6 -0.199985 56.5 -0.499985 58.1 2.20002C59.7 5.00002 59.7 6.70001 59.7 6.70001C59.7 6.70001 49.3 7.00001 46.2 7.70001Z" fill="#211D1D"/>
<path d="M58.1 2.39999C59.7 5.19999 59.7 6.89999 59.7 6.89999C59.7 6.89999 56.6 6.99999 53.3 7.09999C53.5 4.59999 52.9 1.29999 51.2 0.199986C52.9 -0.100014 56.6 -0.300014 58.1 2.39999Z" fill="black"/>
<path d="M64.2 24C63.3 23.6 53.1 23.7 50.6 25.1C50.8 26.4 51.2 28.6 51.2 28.6C51.2 28.6 56.8 27.2 64.1 28.6L64.2 24Z" fill="#FFC200"/>
<path d="M64.0998 27.1C63.4998 27 56.3998 26 50.9998 27.3C50.8998 26.3 50.6998 26 50.6998 26C50.6998 26 55.9998 24.6 64.0998 25.5C64.1998 26.4 64.0998 27.1 64.0998 27.1Z" fill="#88AAD2"/>
<path d="M72.9 31.7001C72 32.7001 62.5 40.2001 53.1 39.6001L53.7 41.7001C53.7 41.7001 61.4 42.2001 73.7 34.2001C74.7 33.6001 72.9 31.7001 72.9 31.7001Z" fill="#211D1D"/>
<path d="M49.1999 37C48.4999 37.3 47.1999 37.7 46.5999 37.8C45.9999 38 45.1999 38.3 44.6999 38.3C44.1999 38.3 43.4999 38.5 44.1999 39.3C44.9999 40 46.3999 39.9001 46.3999 39.9001C46.3999 39.9001 46.3999 39.9001 45.6999 40.9001C45.0999 41.8001 43.6999 41.2 43.4999 42.5C43.4999 43 46.3999 45.4001 49.0999 44.2001C49.8999 43.8001 51.0999 42.7 51.8999 42C52.1999 41.7 52.6999 41.8 52.9999 41.6C53.9999 40.7 49.9999 36.3 49.9999 36.3L49.1999 37Z" fill="#293023"/>
<path d="M68.5001 17.6C70.2001 17.9 71.2001 21.7 68.9001 27.7C68.9001 27.7 67.4001 31 64.5001 34.4C61.7001 36.9 57.6001 41 53.4001 43.6C52.6001 42 50.5001 38.3 49.3001 36.6C51.5001 34.5 56.4001 30 57.6001 28.5C58.8001 26.9 59.8001 25.7 62.6001 20C64.1001 16.8 67.0001 16.2 68.5001 17.6Z" fill="#ED8C2B"/>
<path d="M67.2001 31.0001C66.4001 29.9001 65.2001 28.3001 64.1001 27.1001C62.7001 25.7001 61.0001 25.2001 60.1001 25.1001C60.6001 23.7001 61.6001 22.2001 61.6001 22.2001C61.6001 22.2001 64.3001 22.8001 66.0001 24.1001C67.7001 25.4001 69.2001 27.2001 69.0001 27.6001C68.1001 29.6001 67.2001 31.0001 67.2001 31.0001Z" fill="#FFC200"/>
<path d="M60.5001 24.2001C60.8001 24.3001 62.3001 24.5001 64.5001 26.0001C65.9001 27.2001 67.8001 29.4001 68.0001 29.7001C68.5001 28.8001 68.6001 28.7001 68.6001 28.7001C68.6001 28.7001 67.4001 26.6001 65.3001 25.0001C63.3001 23.6001 61.9001 23.3001 61.2001 23.1001C60.8001 23.6001 60.5001 24.2001 60.5001 24.2001Z" fill="#88AAD2"/>
<path d="M50.8001 35.2L55.6 42L58.3 40.1L53.1 33.1L50.8001 35.2Z" fill="#FFC200"/>
<path d="M51.5 34.5999L56.5 41.2999L57.5 40.7L52.4 33.7L51.5 34.5999Z" fill="#88AAD2"/>
<path d="M0.400047 49.8C0.300049 49.1 0.300049 48.8 0.900047 48.5C0.900047 48.4 0.900047 48.3 1.00005 48.2C0.600044 47.5 -0.299957 46.9 0.100044 46C4.57764e-05 45.9 4.57764e-05 45.7 4.57764e-05 45.6C-0.0999527 45 0.20005 44.4 0.70005 44.2C0.600052 44 0.600044 43.9 0.500046 43.7C0.400047 42.8 2.10005 41.7 3.00005 41.5C3.30005 41.5 3.60005 41.5 3.80005 41.6C3.80005 41.5 3.90005 41.5 3.90005 41.4C3.60005 40.3 4.50005 40.2 5.50005 40.3C5.70005 40.1 6.00005 40 6.30005 40C6.90005 39.9 7.50005 40.2 7.80005 40.8C9.40005 40.9 8.50005 38.9 10.2001 39.8C10.7001 39.1 11.5 39.1 12.9 39.6C13.2 39.4 13.5 39.2 13.9 39.1C14.8 39 15.6 39.5 15.8 40.4C17.4 39.3 18 38.7 19.8 40.6C20 40.3 20.2 40.2 20.5 40.2C20.8 39.9 21.2 39.7 21.6 39.7C22.4 39.6 23.2 40 23.6 40.6C23.8 40.4 24.1 40.3 24.4 40.2C24.8 40.2 25.1 40.2 25.4 40.4C26.3 40.4 27.6 41.1 28.6 41.2C29.4 40.6 30.8 41.3 32.7 41.4L33.3 43.8C33.3 43.8 31.7 45.3 31 45.4C30.3 45.5 30.2 46.2 29.5 47.5C29.1 48.2 28.6 48.5 28 48.7C27.8 49.2 27.3 49.6 26.7 49.7C26.4 49.7 26 49.7 25.7 49.6V49.7C25.8 50.6 25.2 51.5 24.3 51.7C24 51.8 23.7 51.9 23.2 52C21.9 52.3 21.8 52.6 21.4 52.9C21.2 53.4 20.7 53.9 20.1 53.9C19.7 54 19.4 53.9 19.1 53.7H19C18.8 54.4 18.3 54.9 17.6 55C16.9 55.1 16.2 54.7 15.8 54.1H15.7001C15.8001 55.1 15.2001 56 14.2001 56.1C13.5 56.2 12.8 55.8 12.4 55.3C12.3 55.3 12.2 55.3 12 55.3C11.9 55.3 11.7 55.3 11.6 55.3C11.3 55.8 10.9 56.1 10.3 56.2C9.70005 56.3 9.00005 56 8.70005 55.5C8.10005 55.6 7.60004 55.7 7.10004 55.7C6.00004 55.9 5.30005 54.8 4.40005 53.8C4.30005 53.9 4.10005 53.9 3.90005 53.9C2.90005 54 2.00005 53.4 1.90005 52.4C1.90005 52.3 1.90005 52.3 1.90005 52.2C1.70005 52 1.60005 51.8 1.40005 51.6C0.800049 51.7 0.500046 50.6 0.400047 49.8Z" fill="#BFD7EF"/>
<path d="M2.00005 49.6C1.90005 49 2.30005 48.4 2.80005 48.1C2.80005 48 2.80005 47.9 2.80005 47.9C2.40005 47.3 1.00005 47 1.30005 46.3C1.20005 46.2 1.20005 46.1 1.20005 45.9C1.10005 45.4 1.30005 44.4 1.70005 44.2C1.60005 44.1 2.10005 43.9 2.00005 43.8C1.90005 43 3.00005 42.6 3.80005 42.4C4.10005 42.4 3.90004 42.6 4.10004 42.7C4.10004 42.7 5.40005 42.3 5.40005 42.2C5.20005 41.3 5.90005 41.2 6.80005 41.3C7.00005 41.2 7.20005 41 7.50005 41C8.10005 40.9 8.60005 41.2 8.80005 41.6C10.2 41.7 9.40005 40 10.9 40.7C11.4 40.1 12 40.1 13.3 40.5C13.5 40.3 13.8 40.1 14.1 40.1C14.9 40 15.6 40.5 15.8 41.1C17.2 40.2 17.7 39.6 19.3 41.3C19.4 41.1 20.7 41.2 21 41.2C21.3 41 21.8001 40.6 22.2001 40.6C22.9001 40.5 23.2 40.8 23.6 41.4C23.8 41.2 23.9 40.8 25 41C25.3 41.1 26.2 41.7 26.5 41.9C27.6 41 27.8 41.8 28.7 42C29.4 41.5 31.2 41.8 32.9 41.9L33.3 43.4C33.3 43.4 29.9 45.4 29.3 45.5C28.7 45.6 29.4 45.9 28.7 47C28.4 47.6 27.5 47.1 27 47.3C26.8 47.7 26.5 48.3 26.2 48.7C25.8 49.3 24.9 49 24.6 48.9V49C24.7 49.8 24.1 50.5 23.3 50.6C23.1 50.7 22.8 50.8 22.3 50.9C21.2 51.2 21.0001 51.4 20.7001 51.7C20.5001 52.2 20.1 52.5 19.5 52.6C19.2 52.6 18.9 52.6 18.6 52.5H18.5C18.3 53 17.9001 53.5 17.2001 53.6C16.6 53.7 16 53.4 15.7001 52.9H15.6C15.7 53.7 15.1 54.4 14.3 54.6C13.7 54.7 13.1 54.4 12.8 53.9C12.7 53.9 12.6 53.9 12.5 53.9C12.4 53.9 12.3 53.9 12.1 53.9C11.9 54.3 11.5 54.6 11 54.7C10.4 54.8 9.90004 54.6 9.60004 54.2C9.10004 54.3 8.60005 54.3 8.20005 54.4C7.20005 54.5 6.60005 53.6 5.90005 52.8C5.80005 52.9 5.60005 52.9 5.50005 52.9C4.60005 53 3.90005 52.5 3.80005 51.7C3.80005 51.6 3.80005 51.6 3.80005 51.5C3.70005 51.4 3.50005 51.2 3.40005 51C2.60005 50.9 2.00005 50.3 2.00005 49.6Z" fill="#AECFEF"/>
<path d="M4.69997 49.1C4.59997 48.7 4.89997 48.3 5.29996 48.1C5.29996 48 5.29996 48 5.29996 47.9C5.09996 47.5 4.69996 47.1 4.99996 46.6C4.99996 46.5 4.89996 46.4 4.89996 46.4C4.89996 46.1 5.09996 45.6 5.39996 45.5C5.39996 45.4 5.69996 45.3 5.59996 45.2C5.49996 44.7 5.89996 44.1 6.49996 44.1C6.69996 44.1 6.79996 44.1 6.99996 44.1C6.99996 44.1 6.99996 44 7.09996 44C6.89996 43.4 7.49996 43.3 8.09996 43.4C8.19996 43.3 8.39996 43.2 8.59996 43.2C8.99996 43.1 9.29996 43.3 9.49996 43.6C10.5 43.7 9.89996 42.5 11 43C11.3 42.6 11.8 42.6 12.7 42.8C12.9 42.7 13.1 42.6 13.3 42.5C13.8 42.4 14.3 42.7 14.5 43.2C15.5 42.6 15.9 42.2 17 43.3C17.1 43.1 18 43.2 18.2 43.2C18.4 43 18.8 42.8 19 42.8C19.5 42.7 19.7 42.9 20 43.3C20.1 43.2 20.2 42.9 21 43.1C21.2 43.1 21.9 43.6 22.1 43.7C22.8 43.1 24.4 46.1 24 46.1C23.6 46.2 24.1 46.4 23.6 47.1C23.4 47.5 22.7 47.2 22.4 47.3C22.3 47.6 22.1 48 21.9 48.3C21.6 48.7 21 48.5 20.8 48.5C20.8 48.5 20.8 48.5 20.8 48.6C20.9 49.1 20.5 49.7 19.9 49.7C19.7 49.8 19.5 49.8 19.2 49.9C18.4 50.1 18.3 50.3 18.1 50.4C18 50.7 17.7 51 17.3 51C17.1 51 16.9 51 16.7 50.9H16.6C16.5 51.3 16.2 51.6 15.7 51.6C15.3 51.7 14.8 51.5 14.6 51.1H14.5C14.6 51.7 14.2 52.2 13.6 52.3C13.2 52.4 12.7 52.2 12.5 51.8C12.4 51.8 12.3 51.8 12.3 51.8C12.2 51.8 12.1 51.8 12 51.8C11.8 52.1 11.6 52.3 11.2 52.3C10.8 52.4 10.4 52.2 10.2 51.9C9.79997 51.9 9.49997 52 9.19997 52C8.49997 52.1 8.09996 51.5 7.59996 50.9C7.49996 50.9 7.39997 51 7.29996 51C6.69996 51.1 6.19996 50.7 6.09996 50.1V50C5.99996 49.9 5.89997 49.8 5.79996 49.7C5.09996 50 4.69997 49.6 4.69997 49.1Z" fill="#AECFEF"/>
<path d="M9.19997 48.3C9.09997 47.9 9.39997 47.5 9.79996 47.3C9.79996 47.2 9.79996 47.2 9.79996 47.1C9.59996 46.7 9.19996 46.3 9.49996 45.8C9.49996 45.7 9.39996 45.6 9.39996 45.6C9.39996 45.3 9.59996 44.8 9.89996 44.7C9.89996 44.6 10.2 44.5 10.1 44.4C9.99996 43.9 10.4 43.4 11 43.3C11.2 43.3 11.3 43.3 11.5 43.3C11.5 43.3 11.5 43.2 11.6 43.2C11.4 42.6 12 42.5 12.6 42.6C12.7 42.5 12.9 42.4 13.1 42.4C13.5 42.4 13.8 42.5 14 42.8C15 42.9 14.4 41.7 15.5 42.2C15.8 41.8 16.3 41.8 17.2 42C17.4 41.9 17.6 41.8 17.8 41.7C18.3 41.6 18.8 42 19 42.4C20 41.8 20.3 41.4 21.5 42.5C21.6 42.3 22.5 42.4 22.7 42.4C22.9 42.2 23.3 42 23.5 42C24 41.9 24.2 42.1 24.5 42.5C24.6 42.4 24.7 42.1 25.5 42.3C25.7 42.3 26.4 42.8 26.6 42.9C27.3 42.3 28.9 45.3 28.5 45.3C28.1 45.4 28.6 45.6 28.1 46.3C27.9 46.7 27.3 46.4 26.9 46.5C26.8 46.8 26.6 47.2 26.4 47.5C26.1 47.9 25.5 47.7 25.3 47.7C25.3 47.7 25.3 47.7 25.3 47.8C25.4 48.3 25 48.9 24.4 48.9C24.2 49 24 49 23.7 49.1C22.9 49.3 22.8 49.5 22.6 49.6C22.5 49.9 22.2 50.1 21.8 50.2C21.6 50.2 21.4 50.2 21.2 50.1H21.1C21 50.5 20.7 50.8 20.2 50.8C19.8 50.9 19.3 50.7 19.1 50.3C19.1 50.3 19.1 50.3 19 50.3C19.1 50.9 18.7 51.4 18.1 51.4C17.7 51.5 17.2 51.3 17 50.9C16.9 50.9 16.8 50.9 16.8 50.9C16.7 50.9 16.6 50.9 16.5 50.9C16.3 51.2 16.1 51.4 15.7 51.4C15.3 51.5 14.9 51.3 14.7 51C14.3 51 14 51.1 13.7 51.1C13 51.2 12.6 50.6 12.1 50C12 50 11.9 50.1 11.8 50.1C11.2 50.2 10.7 49.8 10.6 49.2V49.1C10.5 49 10.4 48.9 10.3 48.8C9.59996 49.1 9.19997 48.7 9.19997 48.3Z" fill="#AECFEF"/>
<path d="M3.00011 48.1001C2.90011 47.7001 3.20011 47.3001 3.60011 47.1001C3.60011 47.0001 3.60011 47.0001 3.60011 46.9001C3.4001 46.5001 2.00011 46.0001 2.20011 45.4001C2.20011 45.3001 2.10011 45.2001 2.10011 45.2001C2.10011 44.9001 3.40011 44.6001 3.70011 44.4001C3.70011 44.3001 3.20011 44.1001 3.20011 44.0001C3.10011 43.5001 4.30011 43.0001 4.90011 43.0001C5.10011 43.0001 5.20011 43.0001 5.40011 43.0001C5.40011 43.0001 5.40011 42.9001 5.50011 42.9001C5.30011 42.3001 5.90011 42.2001 6.50011 42.3001C6.60011 42.2001 6.80011 42.1001 7.00011 42.1001C7.40011 42.0001 7.70011 42.2001 7.90011 42.5001C8.90011 42.6001 8.30011 41.4001 9.40011 41.9001C9.70011 41.5001 10.2001 41.5001 11.1001 41.7001C11.3001 41.6001 11.5001 41.5001 11.7001 41.4001C12.2001 41.3001 12.7001 41.7001 12.9001 42.1001C13.9001 41.5001 14.3001 41.1001 15.4001 42.2001C15.5001 42.0001 16.4001 42.1001 16.6001 42.1001C16.8001 41.9001 17.2001 41.7001 17.4001 41.7001C17.9001 41.6001 18.1001 41.8001 18.4001 42.2001C18.5001 42.1001 18.6001 41.8001 19.4001 42.0001C19.6001 42.0001 20.3001 42.5001 20.5001 42.6001C21.2001 42.0001 22.8001 45.0001 22.4001 45.0001C22.0001 45.1001 22.5001 45.3001 22.0001 46.0001C21.8001 46.4001 21.1001 46.1001 20.8001 46.2001C20.7001 46.5001 20.5001 46.9001 20.2001 47.2001C19.9001 47.6001 19.3001 47.4001 19.1001 47.4001C19.1001 47.4001 19.1001 47.4001 19.1001 47.5001C19.2001 48.0001 18.8001 48.6001 18.2001 48.6001C18.0001 48.7001 17.8001 48.7001 17.5001 48.8001C16.7001 49.0001 16.6001 49.2001 16.4001 49.3001C16.3001 49.6001 16.0001 49.9001 15.6001 49.9001C15.4001 49.9001 15.2001 49.9001 15.0001 49.8001H14.9001C14.8001 50.2001 14.4001 50.5001 14.0001 50.5001C13.6001 50.6001 13.1001 50.4001 12.9001 50.0001H12.8001C12.9001 50.6001 12.5001 51.1001 11.9001 51.2001C11.5001 51.3001 11.0001 51.1001 10.8001 50.7001C10.7001 50.7001 10.7001 50.7001 10.6001 50.7001C10.5001 50.7001 10.4001 50.7001 10.3001 50.7001C10.1001 51.0001 9.90011 51.2001 9.50011 51.2001C9.10011 51.3001 8.70011 51.1001 8.50011 50.8001C8.10011 50.8001 7.80011 50.9001 7.50011 50.9001C6.80011 51.0001 6.40011 50.4001 5.90011 49.8001C5.80011 49.8001 5.70011 49.9001 5.60011 49.9001C5.0001 50.0001 4.50011 49.6001 4.40011 49.0001V48.9001C4.30011 48.8001 4.20011 48.7001 4.10011 48.6001C3.5001 49.0001 3.10011 48.6001 3.00011 48.1001Z" fill="#AECFEF"/>
<path d="M4.50001 50.3C4.40001 49.9 4.70001 49.5 5.10001 49.3C5.10001 49.2 5.10001 49.2 5.10001 49.1C4.90001 48.7 4.50001 48.3 4.80001 47.8C4.80001 47.7 4.70001 47.6 4.70001 47.6C4.70001 47.3 4.90001 46.8 5.20001 46.7C5.20001 46.6 5.50001 46.5 5.40001 46.4C5.30001 45.9 5.70001 45.3 6.30001 45.3C6.50001 45.3 6.60001 45.3 6.80001 45.3C6.80001 45.3 6.80001 45.2 6.90001 45.2C6.70001 44.6 7.30001 44.5 7.90001 44.6C8.00001 44.5 8.20001 44.4 8.40001 44.4C8.80001 44.3 9.10001 44.5 9.30001 44.8C10.3 44.9 9.70001 43.7 10.8 44.2C11.1 43.8 11.6 43.8 12.5 44C12.7 43.9 12.9 43.8 13.1 43.7C13.6 43.6 14.1 44 14.3 44.4C15.3 43.8 15.7 43.4 16.8 44.5C16.9 44.3 17.8 44.4 18 44.4C18.2 44.2 18.6 44 18.8 44C19.3 43.9 19.5 44.1 19.8 44.5C19.9 44.4 20 44.1 20.8 44.2C21 44.2 21.7 44.7 21.9 44.8C22.6 44.2 24.2 47.2 23.8 47.2C23.4 47.3 23.9 47.5 23.4 48.2C23.2 48.6 22.5 48.3 22.2 48.4C22.1 48.7 21.9 49.1 21.7 49.4C21.4 49.8 20.8 49.6 20.6 49.6C20.6 49.6 20.6 49.6 20.6 49.7C20.7 50.2 20.3 50.8 19.7 50.8C19.5 50.9 19.3 50.9 19 51C18.2 51.2 18.1 51.4 17.9 51.6C17.8 51.9 17.5 52.2 17.1 52.2C16.9 52.2 16.7 52.2 16.5 52.1H16.4C16.3 52.5 16 52.8 15.5 52.9C15.1 53 14.6 52.8 14.4 52.4H14.3C14.4 53 14 53.5 13.4 53.6C13 53.7 12.5 53.5 12.3 53.1C12.2 53.1 12.1 53.1 12.1 53.1C12 53.1 11.9 53.1 11.8 53.1C11.6 53.4 11.4 53.6 11 53.6C10.6 53.7 10.2 53.5 10 53.2C9.60001 53.2 9.30001 53.3 9.00001 53.3C8.30001 53.4 7.90001 52.8 7.40001 52.2C7.30001 52.2 7.20001 52.3 7.10001 52.3C6.50001 52.4 6.00001 52 5.90001 51.4V51.3C5.80001 51.2 5.70001 51.1 5.60001 51C5.00001 51.1 4.60001 50.8 4.50001 50.3Z" fill="#AECFEF"/>
<path d="M14.5999 46.6C14.5999 46.3 14.6999 45.9 15.0999 45.8V45.7C14.8999 45.4 14.5999 45.1 14.7999 44.6C14.7999 44.5 14.6999 44.5 14.6999 44.4C14.6999 44.1 14.8999 43.8 15.0999 43.6C15.0999 43.5 15.2999 43.4 15.2999 43.4C15.1999 43 15.5999 42.5 15.9999 42.5C16.0999 42.5 16.2999 42.5 16.3999 42.5C16.3999 42.5 16.3999 42.4 16.4999 42.4C16.3999 41.9 16.7999 41.8 17.2999 41.9C17.3999 41.8 17.4999 41.8 17.6999 41.7C17.9999 41.7 18.2999 41.8 18.3999 42.1C19.1999 42.1 18.6999 41.2 19.5999 41.6C19.8999 41.3 20.1999 41.3 20.9999 41.5C21.0999 41.4 21.2999 41.3 21.4999 41.3C21.8999 41.2 22.2999 41.5 22.4999 41.9C23.2999 41.4 23.5999 41.1 24.4999 42C24.5999 41.9 25.2999 41.9 25.4999 41.9C25.5999 41.8 25.9999 41.6 26.1999 41.5C26.5999 41.4 26.7999 41.6 26.9999 41.9C27.0999 41.8 27.1999 41.6 27.7999 41.7C27.9999 41.7 28.4999 42.1 28.6999 42.2C29.2999 41.7 30.5999 44.1 30.2999 44.2C29.9999 44.2 30.2999 44.4 29.9999 45C29.7999 45.3 29.2999 45.1 28.9999 45.2C28.8999 45.4 28.6999 45.8 28.5999 46C28.3999 46.4 27.7999 46.2 27.6999 46.1C27.7999 46.5 27.3999 47 26.9999 47C26.8999 47 26.6999 47.1 26.4999 47.2C25.8999 47.4 25.7999 47.5 25.5999 47.6C25.4999 47.9 25.1999 48.1 24.8999 48.1C24.6999 48.1 24.4999 48.1 24.3999 48C24.3999 48 24.3999 48 24.2999 48C24.1999 48.3 23.8999 48.6 23.5999 48.6C23.1999 48.6 22.8999 48.5 22.6999 48.2C22.6999 48.2 22.6999 48.2 22.5999 48.2C22.6999 48.7 22.2999 49.1 21.8999 49.1C21.4999 49.2 21.1999 49 20.9999 48.7C20.8999 48.7 20.8999 48.7 20.7999 48.7C20.6999 48.7 20.6999 48.7 20.5999 48.7C20.4999 48.9 20.1999 49.1 19.9999 49.1C19.6999 49.1 19.3999 49 19.1999 48.8C18.8999 48.8 18.5999 48.9 18.3999 48.9C17.8999 49 17.4999 48.5 17.0999 48C16.9999 48 16.9999 48.1 16.8999 48.1C16.3999 48.2 15.9999 47.9 15.8999 47.4V47.3C15.7999 47.2 15.6999 47.1 15.6999 47C14.9999 47.3 14.6999 47 14.5999 46.6Z" fill="#AECFEF"/>
</g>
<defs>
<clipPath id="clip0">
<rect width="86.9" height="94.5" fill="white" transform="matrix(-1 0 0 1 86.8999 0)"/>
</clipPath>
</defs>
</svg>
