<svg width="33" height="107" viewBox="0 0 33 107" fill="none" xmlns="http://www.w3.org/2000/svg">
<g clip-path="url(#clip0)">
<path d="M15.8199 0.791417C15.8199 0.791417 19.394 2.53653 18.5208 7.30517C17.6273 12.0738 17.2414 12.7029 18.2365 14.5697C19.2316 16.4366 20.3891 24.3708 19.4956 25.8724C18.602 27.374 8.4685 19.2572 7.06727 12.4593C5.66604 5.66151 7.9608 2.6177 8.77311 1.50164C9.58542 0.344992 12.6519 -0.811656 15.8199 0.791417Z" fill="#20313F"/>
<path d="M16.8149 17.9584C16.8149 17.9584 18.6426 18.3237 19.658 19.8253C20.3688 20.8805 20.4297 23.1938 20.5312 23.6402C20.6328 24.0866 21.9934 29.0379 21.9934 29.0379L18.1959 31.5744L16.8149 17.9584Z" fill="#4C55C6"/>
<path d="M30.8271 102.718C30.8271 102.718 33.3046 106.046 32.9594 106.574C32.6142 107.102 30.0148 107.183 28.4308 106.574C26.8468 105.965 26.8062 102.069 26.0954 100.385C25.7908 99.6746 26.4406 97.6048 27.3342 97.4628C28.2277 97.3207 29.2228 97.7469 29.2228 97.7469C29.2228 97.7469 28.2886 100.121 30.8271 102.718Z" fill="#2C3D54"/>
<path d="M29.2432 97.7265C29.2432 97.7265 29.7712 99.1469 29.9539 100.507C30.1164 101.623 31.7207 104.017 31.6395 104.321C31.5582 104.626 29.5275 104.89 28.6949 104.119C27.8622 103.347 27.3342 101.075 27.1515 99.7354C26.989 98.4773 26.7656 97.8483 26.7656 97.8483C26.7656 97.8483 28.4512 96.8945 29.2432 97.7265Z" fill="#DBA585"/>
<path d="M9.28062 102.759C9.28062 102.759 11.6769 106.026 11.3317 106.554C10.9865 107.081 8.38708 107.162 6.80308 106.554C5.21908 105.945 5.17847 102.049 4.4677 100.364C4.16308 99.6543 4.81293 97.5845 5.70647 97.4424C6.6 97.3004 7.67631 97.7671 7.67631 97.7671C7.67631 97.7671 6.74216 100.162 9.28062 102.759Z" fill="#2C3D54"/>
<path d="M7.65618 97.7874C7.65618 97.7874 7.83895 99.3296 8.14356 100.425C8.44818 101.521 10.0728 104.017 9.99156 104.301C9.91033 104.606 7.87956 104.869 7.04695 104.098C6.21433 103.327 5.58479 101.075 5.50356 99.7151C5.42233 98.3556 5.68633 97.4627 5.68633 97.4627C5.68633 97.4627 6.86418 96.9554 7.65618 97.7874Z" fill="#DBA585"/>
<path d="M19.597 43.5467C19.597 43.5467 21.7293 53.4289 22.2167 55.9046C22.7041 58.4005 24.0647 70.4337 24.2272 72.4832C24.3693 74.5327 26.4407 82.2437 26.3392 82.9742C26.2376 83.7047 29.4056 98.3961 29.4056 98.3961C29.4056 98.3961 28.3293 99.2687 27.1921 98.4773C26.6032 98.0715 20.2468 84.7193 20.2468 81.0667C20.2468 76.014 16.5102 69.4191 16.0228 68.2827C11.5348 57.7714 12.4284 54.5653 11.8395 53.8754C11.2505 53.1854 11.2099 54.3015 10.8647 55.8031C10.5195 57.325 9.78838 70.3931 9.36192 72.0368C8.91515 73.7007 9.26038 79.3013 9.01669 82.1219C8.773 84.9425 7.69669 97.7468 7.69669 97.7468C7.69669 97.7468 6.86408 99.0455 5.70654 97.7874C5.46284 97.5236 3.69608 83.5424 3.65546 80.1739C3.61484 76.8054 3.55392 72.1585 3.45238 70.7178C2.53854 56.7771 0.324998 54.7885 3.81792 44.9063C10.3367 26.4608 19.597 43.5467 19.597 43.5467Z" fill="#DBA585"/>
<path d="M5.32075 40.7871C5.32075 40.7871 -0.730943 49.2488 1.86844 67.2682C1.86844 67.2682 16.226 69.2162 23.9226 65.0158C23.9226 65.0158 20.7343 46.4485 19.5971 43.5468C18.4395 40.6653 5.32075 40.7871 5.32075 40.7871Z" fill="#1C1F53"/>
<path d="M26.0347 100.101V103.571H26.4814V100.892L26.0347 100.101Z" fill="#2C3D54"/>
<path d="M4.38672 100.101V103.571H4.83349V100.892L4.38672 100.101Z" fill="#2C3D54"/>
<path d="M13.4438 16.7207C13.4438 16.7207 15.6776 17.7758 16.4493 17.9179C17.221 18.0802 20.2266 21.9763 20.7546 23.3967C21.2826 24.8172 20.7546 26.9479 19.6783 29.4641C18.602 31.9803 19.6173 32.8123 19.13 35.3082C18.6426 37.8244 18.1958 43.1206 18.2973 44.5208C18.3989 45.9209 5.76749 46.1847 2.8838 43.6279C2.8838 43.6279 5.7878 39.2854 6.15334 38.6767C6.51888 38.0679 6.21426 34.6791 5.86903 33.8066C5.5238 32.934 3.26965 25.568 3.26965 25.568C3.26965 25.568 1.42165 19.9065 3.08688 18.6078C4.54903 17.4715 8.50903 17.0656 9.2198 16.8221C9.91026 16.6192 11.9816 16.5177 13.4438 16.7207Z" fill="#E6D8D1"/>
<path d="M14.1545 21.6922L15.5151 20.1094L14.3372 15.9293C14.3372 15.9293 13.9311 18.2628 14.1545 21.6922Z" fill="#CFC3BC"/>
<path d="M14.4998 14.1639C14.4998 14.1639 14.4389 14.7321 14.3577 15.5032C14.317 15.8481 14.2967 16.2337 14.2561 16.6192C14.1546 17.7353 14.0937 18.9731 14.1343 19.5819C14.1343 19.5819 11.8192 21.8952 9.1792 16.883C9.1792 16.883 10.2961 14.8132 9.46351 11.9926C8.6512 9.15175 14.4998 14.1639 14.4998 14.1639Z" fill="#DBA585"/>
<path d="M14.1547 19.5818V21.6922L11.4944 19.7035L14.1547 19.5818Z" fill="#DBA585"/>
<path d="M14.1544 21.6922L13.0578 20.3326L9.3212 16.6191L8.12305 17.7758L14.1544 21.6922Z" fill="#CFC3BC"/>
<path d="M8.79328 16.9642C8.79328 16.9642 11.9207 21.7125 12.0831 23.8026C12.2253 25.8927 10.9256 41.5176 9.86958 46.55C8.81358 51.5824 1.21851 45.9818 1.21851 45.9818C1.21851 45.9818 6.31574 37.7229 4.3662 31.1077C2.39635 24.4925 1.68558 21.8546 1.68558 21.8546C1.68558 21.8546 2.37604 18.1817 4.75204 17.6541C6.84374 17.2077 8.79328 16.9642 8.79328 16.9642Z" fill="#4C55C6"/>
<path d="M20.9575 24.0461C20.9575 24.0461 21.5261 26.0347 19.3328 30.4584C19.3328 30.4584 19.3735 36.0995 19.4344 37.865C19.4953 39.6304 20.7544 45.9818 20.7544 45.9818L17.7488 47.5848C17.3021 47.8486 16.7741 47.4834 16.835 46.9761C17.4442 41.9031 19.4547 22.6459 15.1292 17.4714L16.8756 17.9787C16.835 17.9787 19.9218 20.495 20.9575 24.0461Z" fill="#4C55C6"/>
<path d="M15.5152 20.1094L17.2211 20.5761L14.3374 15.9293L15.5152 20.1094Z" fill="#F3E4DC"/>
<path d="M13.058 20.3326L11.4943 22.3618L8.28564 17.0453L9.40257 16.4163L13.058 20.3326Z" fill="#F3E4DC"/>
<path d="M15.7589 28.2385L15.313 28.5911L19.4587 33.8265L19.9046 33.4739L15.7589 28.2385Z" fill="#CB4949"/>
<path d="M15.048 33.2384C15.048 33.2384 15.4542 33.2384 15.6979 33.0558C16.1446 32.7108 16.3071 31.8788 17.0991 31.9397C17.8911 32.0006 18.2566 34.4965 18.0536 34.9632C17.8505 35.4299 16.7539 35.6734 15.1292 35.3487C13.5249 35.0038 15.048 33.2384 15.048 33.2384Z" fill="#DBA585"/>
<path d="M16.8351 31.9397C16.8351 31.9397 17.9723 31.5541 19.2923 31.27C20.4499 31.0265 21.8308 30.9454 21.9526 31.1483C22.0948 31.3715 20.8357 31.5541 19.6985 31.8788C18.6628 32.1832 18.9065 32.2846 18.9065 32.2846C18.9065 32.2846 18.8456 32.244 20.0234 32.1426C21.3028 32.0208 22.6228 32.0208 22.7446 32.2846C22.8056 32.4064 22.765 32.4875 22.2979 32.6093C22.5822 32.589 22.6228 32.6702 22.6228 32.7716C22.6837 33.3398 20.8154 33.8065 20.064 33.9892C20.6326 33.8471 21.0591 33.8065 20.856 34.1921C20.6123 34.6385 17.952 35.1661 17.0179 35.4502C16.0228 35.7546 16.8351 31.9397 16.8351 31.9397Z" fill="#DBA585"/>
<path d="M5.19889 17.7353C4.40689 17.4715 2.11212 18.3034 1.72627 20.6573C1.34042 23.0112 1.17796 25.6289 0.812425 26.9073C0.446886 28.1857 -0.46696 33.8066 0.304733 34.2733C1.07642 34.74 2.55889 35.1661 4.63027 35.1661C6.76258 35.1661 15.0481 35.5314 15.0481 35.5314L15.5761 32.589C15.5761 32.589 12.4284 32.4267 10.8038 32.1832C9.36196 31.96 7.3515 31.3512 4.9755 31.0874C4.9755 31.0874 5.48319 27.5972 5.84873 26.6232C6.17366 25.6492 8.73242 18.8919 5.19889 17.7353Z" fill="#4C55C6"/>
<path d="M15.7791 37.7635L24.1255 36.0995L30.2991 22.8894L21.4043 23.8228L15.7791 37.7635Z" fill="#ECB65C"/>
<path d="M25.1612 33.8675C25.1612 33.8675 25.6283 33.4413 26.0344 32.8529C26.4406 32.2644 27.7809 29.9917 27.659 29.8496C27.5372 29.7076 25.5673 29.667 25.2018 29.9917C24.8363 30.3164 25.547 30.4381 25.547 30.4381C25.547 30.4381 24.4707 30.5599 24.552 30.8642C24.6332 31.1686 25.283 31.0874 25.283 31.0874C25.283 31.0874 24.4098 31.2498 24.552 31.5136C24.6738 31.7774 25.1003 31.7774 25.1003 31.7774C25.1003 31.7774 24.3286 31.8788 24.4301 32.1629C24.5316 32.447 25.7501 32.7311 25.5876 32.9746C25.3846 33.1978 25.1612 33.8675 25.1612 33.8675Z" fill="#DBA585"/>
<path d="M15.2917 1.31896C15.2917 1.31896 20.4905 2.94232 17.6677 11.9114C14.8449 20.8805 7.75754 10.8765 8.48861 5.41795C9.24 -0.060904 15.2917 1.31896 15.2917 1.31896Z" fill="#DBA686"/>
<path d="M18.2162 6.53405C18.2162 6.53405 15.6371 9.07056 11.3116 9.37494C11.3116 9.37494 9.64637 11.323 9.52453 12.0941C9.52453 12.0941 5.66607 5.51945 10.4181 1.58279C15.1294 -2.33358 19.9424 4.91069 18.2162 6.53405Z" fill="#20313F"/>
<path d="M11.3521 9.57782C11.3114 8.92848 10.9256 7.44716 9.95083 7.853C8.97606 8.27913 10.0118 11.2824 10.6616 11.0997C10.6616 11.0997 11.4333 11.12 11.3521 9.57782Z" fill="#DBA686"/>
<path d="M14.3779 15.4828C14.3373 15.8278 14.3169 16.2133 14.2763 16.5989C11.2708 15.1379 10.8037 12.9869 10.8037 12.926C12.936 15.6857 14.3779 15.4828 14.3779 15.4828Z" fill="#997761"/>
</g>
<defs>
<clipPath id="clip0">
<rect width="33" height="107" fill="white"/>
</clipPath>
</defs>
</svg>
