<svg width="39" height="112" viewBox="0 0 39 112" fill="none" xmlns="http://www.w3.org/2000/svg">
<g clip-path="url(#clip0)">
<path d="M27.4873 112C31.0679 111.594 30.517 109.969 29.9111 109.36C29.3051 108.751 27.7628 106.872 27.4873 105.857C27.2119 104.841 20.767 105.247 20.767 105.247C20.767 105.247 20.4365 107.583 20.767 107.888C21.0424 108.243 21.8136 108.192 21.9238 108.548C22.089 108.954 24.017 112.406 27.4873 112Z" fill="#232426"/>
<path d="M6.61022 104.689C4.84751 105.857 2.75429 107.837 1.48734 108.243C0.165307 108.649 -0.220286 109.258 0.165307 110.223C0.605985 111.188 3.19497 111.34 4.62717 111.238C6.05937 111.137 7.32632 109.817 8.04243 109.411C8.75853 109.004 9.97039 109.766 10.7416 109.055C11.5128 108.344 11.4026 107.431 11.4577 106.567C11.5128 105.654 6.61022 104.689 6.61022 104.689Z" fill="#232426"/>
<path d="M21.2075 62.9048C21.2075 62.9048 13.6609 107.126 13.4957 107.786C13.3304 108.446 5.78379 106.212 4.95752 105.247C4.95752 105.247 8.42786 78.4913 8.75837 76.7651C9.08887 75.0389 10.5762 51.9891 12.0635 46.4551C12.0635 46.4551 28.038 47.9274 31.949 47.6228C31.949 47.6228 32.1143 64.4787 30.7923 72.602C29.4702 80.7253 29.305 105.247 29.1397 105.857C28.9745 106.517 20.9321 106.821 20.4363 106.009C19.8855 105.247 21.2075 62.9048 21.2075 62.9048Z" fill="#A1E0EF"/>
<path d="M31.3434 66.9156L26.9366 68.7942C26.8264 69.2511 25.6696 101.541 25.5044 106.466C27.3222 106.364 28.9747 106.161 29.0849 105.857C29.2502 105.197 29.4154 80.7253 30.7374 72.602C31.0129 70.9773 31.2332 69.048 31.3434 66.9156Z" fill="#CDF3FF"/>
<path d="M16.1399 70.1142L8.59326 106.821C10.9068 107.583 13.4407 108.141 13.4958 107.786C13.606 107.278 18.1229 80.8776 20.2161 68.845L16.1399 70.1142Z" fill="#CDF3FF"/>
<path d="M18.178 15.1296C16.2501 15.3835 11.2924 17.9728 10.356 18.6328C9.47463 19.2928 5.56361 32.4932 5.28819 33.3055C5.01276 34.1178 6.50005 34.0163 9.63988 34.6255C9.63988 34.6255 10.9619 42.4442 10.5212 47.6228C10.0806 52.8014 7.767 72.0943 7.767 72.0943C7.767 72.0943 22.9704 75.2928 32.9407 72.5512C32.9407 72.5512 34.1526 44.7797 34.3729 42.9519C34.5382 41.1242 35.2543 34.1686 35.2543 34.1686C35.2543 34.1686 36.6865 34.4732 37.8433 33.4578C37.8433 33.4578 34.7034 19.699 33.9873 18.5312C33.2712 17.3635 26.2204 14.9773 26.2204 14.9773L18.178 15.1296Z" fill="#EDFCFF"/>
<path d="M18.5635 18.7851C18.4533 18.6836 18.1779 19.3436 18.4533 18.6836C18.7838 18.0235 17.2965 17.3635 17.4618 16.7035C17.572 15.9927 17.3516 15.5866 17.2415 15.1296C17.0211 14.165 15.0381 15.5358 13.5508 15.6373C12.394 15.6881 12.394 15.0281 12.5042 14.4188C12.6694 13.8096 11.8982 13.8604 11.8432 13.708C11.733 13.3526 12.8898 12.7942 12.8898 12.7942C12.8898 12.7942 11.7881 12.6419 11.5677 12.388C11.3474 12.1342 11.8982 11.7788 11.733 11.5249C11.5126 11.2711 10.5211 11.2203 10.411 10.9157C10.3008 10.5603 11.4576 9.03715 11.5677 8.47867C11.6779 7.92019 10.5211 7.5648 10.6864 7.00632C10.8516 6.44785 11.4576 4.56933 12.1186 3.60469C12.7796 2.64005 15.6991 0.355372 19.1694 0.659996C22.6398 0.964619 24.6228 4.92473 24.5677 6.29553C24.5126 7.66634 23.2457 11.1695 23.6313 12.388C24.0169 13.6065 25.3389 15.5866 25.3389 15.5866L18.5635 18.7851Z" fill="#F7C9B2"/>
<path d="M15.2585 3.96007C15.8644 4.41701 15.3687 5.38165 16.4153 5.94013C17.517 6.4986 17.517 8.07249 17.9576 8.17404C18.3983 8.27558 18.8941 6.44783 19.9407 6.4986C20.9322 6.54938 21.428 7.51402 21.2076 8.52943C20.9873 9.49407 23.5212 11.728 23.5212 11.7787C23.5212 10.3064 24.4576 7.46325 24.5127 6.24475C24.5678 4.87394 22.5848 0.913836 19.1144 0.609212C15.6992 0.253818 12.7797 2.5385 12.1187 3.50314C13.2754 4.16316 14.7076 3.55391 15.2585 3.96007Z" fill="#050305"/>
<path d="M12.3941 3.80645C12.0636 3.5526 11.7882 3.04489 12.1738 2.84181C12.7797 2.48642 13.0551 1.57255 14.5975 0.861757C16.1399 0.150968 17.6823 0.252509 18.3433 0.0494265C19.0043 -0.153656 20.3814 0.0494265 20.7119 0.404821C20.9873 0.709445 22.1992 0.912527 22.1441 1.77563C22.1441 1.77563 23.0806 1.67409 23.5763 2.48642C24.0721 3.29875 24.1823 3.90799 24.3475 4.06031C24.5678 4.21262 24.4577 5.12649 24.678 5.48188C24.8984 5.88805 24.8433 7.96965 24.4577 8.42658C24.0721 8.88352 24.2924 9.59431 24.0721 9.79739C23.8517 10.0005 23.5763 11.7774 23.5763 11.7774L20.0509 4.26339L17.6272 1.77563L12.3941 3.80645Z" fill="#050305"/>
<path d="M15.6441 4.82319C15.4788 4.31548 14.1568 4.51856 13.1102 4.67087C11.7881 4.87396 11.017 4.67087 11.2373 4.46779C11.4026 4.31548 11.2924 4.01086 11.5678 3.70623C11.8983 3.40161 11.9534 3.04621 12.339 2.64005C12.7246 2.23388 14.1017 1.92926 14.1568 1.92926C14.2119 1.92926 16.1398 4.01086 16.1398 4.06163C16.1398 4.1124 15.6441 4.82319 15.6441 4.82319Z" fill="#050305"/>
<path d="M6.5 33.5086C6.11441 33.9655 5.0678 36.4533 5.39831 37.621C5.72881 38.7888 6.38983 40.6165 6.38983 40.9719C6.38983 41.3273 9.30932 40.4642 9.30932 40.4642C9.30932 40.4642 9.80508 38.9918 10.0254 38.1287C10.2458 37.2149 9.69491 34.6256 9.69491 34.6256L6.5 33.5086Z" fill="#F7C9B2"/>
<path d="M5.83906 31.1224C5.17805 33.864 4.73737 36.0979 4.95771 37.3164C5.17805 38.5349 6.27974 41.6319 6.27974 41.6319L10.4111 41.1242C10.4111 41.1242 10.6314 37.621 9.63991 34.6763L5.83906 31.1224Z" fill="#EDFCFF"/>
<g opacity="0.5">
<path opacity="0.5" d="M6.27969 41.6319L10.411 41.1242C10.5212 37.1133 10.5763 18.5312 12.339 17.6174C11.4026 18.0743 10.6314 18.4297 10.356 18.6328C9.63985 19.1405 6.77545 27.213 5.83901 31.1731C5.72884 31.6301 5.61867 32.087 5.5085 32.5439C5.39833 32.9501 5.34325 33.204 5.28816 33.3055C5.28816 33.3563 5.28816 33.407 5.28816 33.4578C4.95765 35.1332 4.7924 36.4533 4.95765 37.3164C5.23308 38.4841 6.27969 41.6319 6.27969 41.6319Z" fill="#CCF8FF"/>
</g>
<g opacity="0.5">
<path opacity="0.5" d="M37.8984 33.5086C37.8984 33.5086 37.5679 31.9854 37.0721 29.9038C33.6569 27.4669 29.195 25.1314 29.195 25.1314C29.3603 26.0961 30.5721 31.3254 29.9662 38.0779C29.0298 49.0444 26.4959 64.6817 24.7332 73.6174C27.5976 73.5158 30.462 73.2112 33.051 72.5004C33.051 72.5004 33.1611 69.8096 33.3264 66.0018C33.3815 65.2402 33.3815 64.4279 33.4365 63.6155C33.4916 62.3463 33.5467 61.077 33.6018 59.7062C33.6569 58.3862 33.712 57.0154 33.7671 55.6953C33.7671 55.2384 33.8221 54.8322 33.8221 54.3753C34.0976 48.689 34.3179 43.6627 34.4281 42.9011C34.5933 41.0734 35.3094 34.1178 35.3094 34.1178C35.3094 34.1178 35.5298 34.1686 35.8052 34.1686C35.9154 34.1686 36.0255 34.1686 36.1357 34.1686C36.5764 34.1178 37.1272 33.9655 37.6781 33.5593C37.7332 33.6101 37.7882 33.5593 37.8984 33.5086Z" fill="#CCF8FF"/>
</g>
<path d="M9.25441 40.4642C8.42814 39.9057 8.53831 39.4488 8.09763 38.941C7.65695 38.4333 6.94085 37.8749 6.44509 38.1795C5.94933 38.4333 7.21627 39.8041 7.27136 40.2103C7.32644 40.7688 6.0595 40.6673 6.00441 41.2257C5.94933 41.835 6.83068 42.9519 7.60187 43.6627C8.37305 44.3735 8.42814 44.1704 8.9239 44.5766C9.47475 44.9828 10.0807 45.3382 10.7417 44.932C11.4027 44.5258 11.5129 43.815 11.7883 43.2058C12.0637 42.5965 10.2459 41.835 10.0256 41.6319C9.52983 41.2257 10.5214 42.1904 10.301 42.0888C10.0807 41.9365 10.2459 41.175 9.25441 40.4642Z" fill="#F5B39A"/>
<path d="M33.051 34.8794C32.7756 36.504 32.39 40.0072 32.2247 44.475C32.0595 48.8921 31.8391 51.4306 30.2417 53.0045C28.5891 54.5784 28.8645 55.34 27.873 57.1677C26.8815 58.9954 26.7713 59.5539 27.1569 59.8585C27.5425 60.1632 28.534 59.5539 28.8645 58.8939C29.1951 58.2339 30.0213 56.2031 30.0213 56.2031C30.0213 56.2031 29.4154 58.5893 29.3603 59.0462C29.3052 59.5031 27.5976 60.7216 27.5425 61.3817C27.4874 62.0417 29.2501 61.6355 30.0213 61.534C30.7925 61.4832 33.051 60.6201 33.4917 59.9093C33.9323 59.2493 33.9874 57.32 34.0425 55.6953C34.0976 54.0707 34.7586 51.2783 34.979 50.3644C35.1993 49.4506 36.6866 41.0226 37.1273 38.281C37.5679 35.5394 37.8434 33.407 37.8434 33.407L33.051 34.8794Z" fill="#F5B39A"/>
<path d="M9.58492 40.4642C8.64848 39.9565 7.05102 40.7688 6.33492 40.9719C6.22475 41.0226 6.11458 41.0734 6.00441 41.175C6.00441 41.175 6.00441 41.175 6.00441 41.2257C5.94933 41.835 6.83068 42.9519 7.60187 43.6627C8.37305 44.3735 8.42814 44.1704 8.9239 44.5766C9.47475 44.9828 10.0807 45.3381 10.7417 44.932C11.4027 44.5258 11.568 44.0689 11.8434 43.4596C12.0086 43.155 11.8434 42.2919 11.6231 41.835C11.4027 41.378 11.2925 40.9719 10.962 40.7688C10.4112 40.4134 10.1358 40.7688 9.58492 40.4642Z" fill="#F7C9B2"/>
<path d="M29.4153 52.3445C29.4153 52.3445 32.0594 54.3753 35.4746 54.883C35.4746 54.883 38.5594 39.9564 39.0001 37.7225C39.4407 35.4886 35.8602 21.4759 35.4195 20.1559C34.9789 18.8359 33.106 17.6681 30.7373 16.7035L29.1399 25.1314C29.1399 25.1314 31.839 35.0825 31.9492 36.8087C32.0043 38.5856 29.4153 52.3445 29.4153 52.3445Z" fill="#EDFCFF"/>
<path d="M23.9068 12.9973L26.2754 15.0281L18.3983 20.3082L18.178 17.8712L23.9068 12.9973Z" fill="#EDFCFF"/>
<path d="M18.178 17.8713L17.3517 15.5358L15.9746 16.6528L18.178 17.8713Z" fill="#EDFCFF"/>
<path d="M15.4788 15.9927L17.572 36.3517L25.3389 15.485L18.1779 17.8712L15.4788 15.9927Z" fill="#02C4D6"/>
<path d="M23.9068 12.9973L18.178 17.8712L19.6102 19.5467L26.2754 15.0281L23.9068 12.9973Z" fill="#02AFC8"/>
<path d="M18.1779 17.8713L16.6906 18.9882L15.4788 15.9927L17.2415 15.1296L18.1779 17.8713Z" fill="#02AFC8"/>
<path d="M24.7881 13.8096L17.572 36.3517L30.7373 16.7035L24.7881 13.8096Z" fill="#EDFCFF"/>
<path d="M15.6991 15.8404C15.6991 15.8404 16.4152 23.7606 16.4152 25.4868C16.4152 27.213 13 18.9882 13 18.9882L13.3305 17.0081L15.6991 15.8404Z" fill="#EDFCFF"/>
<path d="M14.4323 29.65C14.4323 29.65 13.4959 22.5422 13.1654 20.0544C12.8349 17.3128 14.1018 15.5866 17.1315 14.8758C17.1315 14.8758 17.1865 14.9773 17.2416 15.0789C17.2416 15.1296 17.2967 15.3327 17.2967 15.3327C14.5425 15.942 13.3857 17.4651 13.7162 19.9529C14.0467 22.4406 14.9832 29.5485 14.9832 29.5485L14.4323 29.65Z" fill="#343434"/>
<path d="M16.6906 30.6654C16.6906 31.63 15.8093 32.4424 14.7627 32.4424C13.7161 32.4424 12.8347 31.63 12.8347 30.6654C12.8347 29.7008 13.7161 28.8884 14.7627 28.8884C15.8093 28.9392 16.6906 29.7008 16.6906 30.6654Z" fill="#696C70"/>
<path d="M16.3601 30.5131C16.3601 31.427 15.589 32.1378 14.5974 32.1378C13.6059 32.1378 12.8347 31.427 12.8347 30.5131C12.8347 29.5992 13.6059 28.8884 14.5974 28.8884C15.5339 28.9392 16.3601 29.65 16.3601 30.5131Z" fill="#90949A"/>
<g opacity="0.3">
<path opacity="0.3" d="M13 30.6654C13 29.7515 13.7712 29.0407 14.7627 29.0407C15.2034 29.0407 15.644 29.1931 15.9195 29.4977C15.589 29.1423 15.1483 28.8884 14.5974 28.8884C13.6059 28.8884 12.8347 29.5992 12.8347 30.5131C12.8347 30.97 13.0551 31.3762 13.3856 31.6808C13.1652 31.427 13 31.0716 13 30.6654Z" fill="#90949A"/>
</g>
<path d="M15.6992 30.5639C15.6992 31.1223 15.2035 31.5793 14.5975 31.5793C13.9916 31.5793 13.4958 31.1223 13.4958 30.5639C13.4958 30.0054 13.9916 29.5485 14.5975 29.5485C15.2586 29.5485 15.6992 30.0054 15.6992 30.5639Z" fill="#696C70"/>
<path d="M15.5338 30.4623C15.5338 30.97 15.0932 31.3762 14.5423 31.3762C13.9915 31.3762 13.5508 30.97 13.5508 30.4623C13.5508 29.9546 13.9915 29.5485 14.5423 29.5485C15.0932 29.5485 15.5338 29.9546 15.5338 30.4623Z" fill="#90949A"/>
<g opacity="0.3">
<path opacity="0.3" d="M13.606 30.5639C13.606 30.0562 14.0467 29.65 14.5975 29.65C14.873 29.65 15.0933 29.7515 15.2586 29.9039C15.0933 29.7008 14.8179 29.5485 14.4874 29.5485C13.9365 29.5485 13.4958 29.9546 13.4958 30.4623C13.4958 30.7162 13.606 30.97 13.8264 31.1223C13.7162 30.97 13.606 30.767 13.606 30.5639Z" fill="#90949A"/>
</g>
<path d="M29.3051 29.5485L29.0297 29.4977C29.25 28.5839 29.1399 27.67 28.7543 26.9084C28.3136 26.1469 27.5975 25.5884 26.6611 25.4361C25.8348 25.2838 25.0085 25.3853 24.2924 25.8423C23.4661 26.35 22.9153 27.2131 22.75 28.2285L22.4746 28.1777C22.6399 27.1115 23.2458 26.1977 24.1272 25.6392C24.8983 25.1822 25.7797 25.0299 26.7161 25.1822C27.7077 25.3853 28.5339 25.9438 28.9746 26.8069C29.4153 27.6192 29.5255 28.5839 29.3051 29.5485Z" fill="#979BA1"/>
<path d="M26.8263 24.8268L26.3305 24.6237C27.928 20.9175 28.2034 17.9728 27.0466 15.8912C26.3856 14.6727 25.3941 14.0635 24.7882 13.7588C24.5127 13.6065 24.2924 13.5558 24.2373 13.5558L24.4026 13.0988C24.5678 13.2004 26.4407 13.7081 27.5424 15.6881C28.7543 17.922 28.4788 21.019 26.8263 24.8268Z" fill="#343434"/>
<path d="M26.8262 36.3517C26.8262 36.3517 26.1652 35.844 25.4491 35.1332C25.2287 34.9302 25.0084 34.6763 24.7881 34.3717C24.6228 34.4732 24.4025 34.524 24.2372 34.6255C22.8601 35.1332 21.8686 35.184 21.8686 35.184L21.8135 34.6763C21.8135 34.6763 22.7499 34.6255 24.0169 34.1178C24.1821 34.0671 24.3474 34.0163 24.4575 33.9148C23.2457 32.2393 22.0889 29.7008 22.4745 27.4669C22.6948 26.3499 23.3008 25.3853 24.2372 24.8268C25.0635 24.3191 25.9999 24.1668 26.9364 24.3699C27.983 24.573 28.8092 25.1822 29.305 26.0453C29.7457 26.8576 29.8559 27.873 29.6355 28.8885C29.0847 31.0716 27.4872 32.9501 25.2838 34.0671C25.5042 34.3209 25.6694 34.524 25.8898 34.7271C26.6059 35.4379 27.2118 35.8948 27.2118 35.8948L26.8262 36.3517ZM26.1101 24.776C25.5592 24.776 25.0084 24.9283 24.5126 25.233C23.7414 25.7407 23.1906 26.553 23.0253 27.5684C22.6397 29.5992 23.7965 32.087 25.0084 33.7117C27.1567 32.6455 28.644 30.8685 29.1398 28.8377C29.3601 27.9238 29.2499 27.0607 28.8643 26.2992C28.4237 25.5376 27.7626 25.0299 26.8262 24.8776C26.6059 24.8268 26.3304 24.776 26.1101 24.776Z" fill="#696C70"/>
<path d="M25.8347 34.7778C25.6695 34.6255 25.5042 34.4225 25.394 34.2701C25.6144 34.524 25.7796 34.7271 26 34.9302C26.4957 35.4379 26.9364 35.844 27.1568 35.9963L27.2118 35.9456C27.1568 35.9456 26.5508 35.4886 25.8347 34.7778Z" fill="#90949A"/>
<path opacity="0.5" d="M29.195 28.99C29.4153 28.0761 29.3052 27.1622 28.9196 26.4515C28.9196 26.4007 28.8645 26.4007 28.8645 26.3499C29.2501 27.0607 29.3052 27.9238 29.1399 28.8377C28.6441 30.9193 27.1018 32.6962 25.0086 33.7117C24.8433 33.5086 24.7331 33.3055 24.5679 33.1024C24.7331 33.3563 24.8984 33.6101 25.0636 33.864C27.1569 32.8486 28.6992 31.0716 29.195 28.99Z" fill="#90949A"/>
<path opacity="0.5" d="M21.8687 34.8286C21.8687 34.8286 22.8052 34.7778 24.0721 34.2701C24.2374 34.2194 24.4026 34.1686 24.5128 34.067C24.4577 34.0163 24.4577 33.9655 24.4026 33.9147C24.2374 33.9655 24.1272 34.0163 23.9619 34.1178C22.6399 34.5748 21.7585 34.6763 21.7585 34.6763L21.8136 35.184H21.8687V34.8286Z" fill="#90949A"/>
<path opacity="0.5" d="M22.5847 27.67C22.8051 26.553 23.411 25.5884 24.3475 25.0299C25.1737 24.5222 26.1102 24.3699 27.0466 24.573C28.0381 24.776 28.8644 25.3345 29.3602 26.1976V26.1469C28.8644 25.2838 28.0381 24.6745 26.9915 24.4714C25.9449 24.2176 25.0085 24.3699 24.2373 24.8776C23.3559 25.4361 22.6949 26.4007 22.4746 27.5177C22.1441 29.4977 23.0254 31.6808 24.072 33.3563C23.0805 31.6808 22.2542 29.5485 22.5847 27.67Z" fill="#90949A"/>
<path d="M28.0382 25.4361C27.9832 25.4361 27.873 25.4361 27.8179 25.3853C27.4874 25.1822 27.1569 25.0807 26.7713 24.9791C26.2755 24.8776 25.8348 24.8776 25.3942 24.9791C25.1738 25.0299 25.0086 24.9284 24.9535 24.7761C24.8984 24.6237 25.0086 24.4207 25.2289 24.3699C25.7798 24.2176 26.3857 24.2176 26.9365 24.3191C27.3772 24.4207 27.8179 24.573 28.2035 24.8268C28.3687 24.9284 28.4238 25.1314 28.3137 25.2838C28.2586 25.3853 28.1484 25.4361 28.0382 25.4361Z" fill="#343434"/>
<path d="M27.5976 36.8595C27.3773 37.0625 27.0468 37.0625 26.8265 36.8595L26.2756 36.3518C26.0553 36.1487 26.0553 35.844 26.2756 35.641C26.4959 35.4379 26.8264 35.4379 27.0468 35.641L27.5976 36.1487C27.818 36.301 27.818 36.6564 27.5976 36.8595Z" fill="#313236"/>
<path d="M22.4747 34.9301C22.5298 35.184 22.3645 35.4886 22.0891 35.5394L21.373 35.6917C21.0976 35.7425 20.7671 35.5902 20.712 35.3363C20.6569 35.0824 20.8221 34.7778 21.0976 34.7271L21.8137 34.5747C22.0891 34.4732 22.4196 34.6763 22.4747 34.9301Z" fill="#313236"/>
<g opacity="0.5">
<path opacity="0.5" d="M17.572 36.3517L12.394 72.9066L10.4661 72.602L17.572 36.3517Z" fill="#CCF8FF"/>
</g>
<path d="M24.1822 13.2511L24.072 13.6573L24.6229 13.9619L24.7881 13.8096L24.1822 13.2511Z" fill="#02AFC8"/>
<path d="M24.8984 13.3019C24.5678 13.2003 24.2924 13.048 23.9619 13.048L24.5128 13.505L24.8984 13.3019Z" fill="#343434"/>
<path d="M22.144 10.3064C22.089 10.2557 21.9237 10.1034 21.5932 9.49411C21.3178 9.03718 21.2627 8.4787 21.2076 8.52947C21.1525 8.73255 21.2076 9.13872 21.2076 9.54488C21.1525 9.95105 20.6567 9.84951 20.7118 9.95105C20.7669 10.0526 21.2627 10.408 21.3178 11.3726C21.3728 12.388 18.233 14.3681 16.5254 14.825C16.911 14.7743 17.1864 14.825 17.2415 15.1297C17.2966 15.282 17.2966 15.4343 17.3517 15.5358L17.4618 15.8404C21.2076 14.9773 22.3644 10.6111 22.144 10.3064Z" fill="#F5B39A"/>
</g>
<defs>
<clipPath id="clip0">
<rect width="39" height="112" fill="white"/>
</clipPath>
</defs>
</svg>
