<svg width="60" height="99" viewBox="0 0 60 99" fill="none" xmlns="http://www.w3.org/2000/svg">
<path d="M26.2811 34.6661L20.496 34.5049L16.8596 34.0212L16.1985 37.0847L19.8349 38.3746L24.4629 39.8257C24.7935 39.987 24.9588 39.987 25.2894 39.987C26.2811 39.987 29.4216 40.6319 29.4216 40.6319C29.4216 40.6319 29.9175 36.2785 29.9175 36.1173C29.9175 35.7948 26.2811 34.6661 26.2811 34.6661Z" fill="#EDB996"/>
<path d="M38.5123 24.0244L33.3883 29.9902L28.7602 33.3762C28.5949 33.8599 26.1156 34.5049 27.6032 35.311C27.4379 35.1498 29.2561 40.3094 29.2561 40.3094L38.347 34.6661L43.6363 22.7345C43.471 22.8957 38.5123 24.0244 38.5123 24.0244Z" fill="#E29E3B"/>
<path d="M26.281 34.3437L27.6033 41.1156L30.2479 40.7932L28.9256 34.0212L26.281 34.3437Z" fill="#939598"/>
<path d="M23.4711 30.3127C23.4711 31.4414 22.1488 32.0863 25.9504 33.6987C27.7686 32.0863 27.1075 27.088 27.1075 27.088C27.1075 27.088 22.8099 26.6043 23.4711 30.3127Z" fill="#E2791A"/>
<path d="M24.1323 25.9593L27.1075 55.3045L29.091 54.8208L25.2893 25.798L24.1323 25.9593Z" fill="#EDB220"/>
<path d="M25.124 26.1205L35.5373 55.4658L37.1901 55.3046L26.1158 26.1205H25.124Z" fill="#EDB220"/>
<path d="M29.0909 15.8013C28.9256 15.6401 28.595 15.4788 28.2644 15.4788C28.0992 15.4788 27.9339 15.4788 27.7686 15.6401C27.438 15.8013 27.2727 16.285 27.2727 16.7687L27.7686 19.9935V20.1547C28.0992 19.9935 28.2644 19.8322 28.595 19.671C28.7603 19.8322 28.7603 19.9935 28.9256 20.1547C28.7603 19.9935 28.7603 19.8322 28.595 19.671L28.2644 16.7687V16.6075C28.4297 16.6075 28.595 16.6075 28.595 16.6075L30.4132 18.5423V18.7036C30.7438 18.5423 30.9091 18.3811 31.2396 18.2199V18.0586L29.0909 15.8013Z" fill="#FF9429"/>
<path d="M30.2479 18.5423L30.5785 21.4446H30.0826L29.9173 21.2834C29.9173 21.2834 29.9173 21.2834 29.752 21.1221C29.5867 20.9609 29.4215 20.6384 29.0909 20.4772L28.9256 20.3159C28.7603 20.1547 28.7603 20.1547 28.595 19.9935C28.4297 19.8322 28.4297 19.671 28.2644 19.5098C27.9339 19.671 27.7686 19.8322 27.438 19.9935C29.2562 22.412 29.752 22.412 29.9173 22.412H31.4049L30.9091 18.2198C30.7438 18.2198 30.4132 18.3811 30.2479 18.5423Z" fill="#FECC3D"/>
<path d="M31.0742 18.0587L31.5701 22.2508L31.0742 18.0587Z" fill="#FECC3D"/>
<path d="M24.9588 15.8013C24.7935 15.8013 24.6282 15.8013 24.4629 15.9625C24.1324 16.1237 23.9671 16.285 23.9671 16.6075L22.9753 19.5097C23.3059 19.5097 23.6365 19.5097 23.9671 19.5097L24.9588 16.9299C24.9588 16.7687 25.1241 16.7687 25.2894 16.7687C25.4547 16.7687 25.62 16.9299 25.62 17.0912L26.4464 19.8322V19.9935C26.777 19.9935 26.9423 20.1547 27.2729 20.1547C27.2729 20.1547 27.2729 20.1547 27.2729 19.9935V19.8322L26.4464 16.9299C25.9505 16.1237 25.4547 15.8013 24.9588 15.8013Z" fill="#FF9429"/>
<path d="M25.4547 21.4446C25.2894 21.9283 25.1241 22.0895 25.1241 22.2507L24.6282 22.5732L23.8018 19.6709V19.5097C23.4712 19.5097 23.1406 19.5097 22.8101 19.5097L23.9671 23.7019L25.4547 23.0569C25.4547 23.0569 25.4547 23.0569 25.62 23.0569C25.7853 22.8957 25.7853 22.7345 25.9506 22.412V22.2507C25.9506 22.0895 26.1158 21.767 26.2811 21.4446C26.2811 21.4446 26.2811 21.4446 26.2811 21.2833C26.4464 20.9608 26.6117 20.4771 26.6117 19.8322C26.2811 19.8322 26.1158 19.8322 25.7853 19.6709C25.7853 20.3159 25.62 20.9608 25.4547 21.4446Z" fill="#FECC3D"/>
<path d="M59.1736 54.3371C59.0083 54.1759 58.843 54.1759 58.5124 54.3371C57.1901 54.8208 55.8678 55.3045 54.5455 55.7883C51.5703 56.5944 48.5951 57.2394 45.6199 57.5619C42.1488 57.8843 41.6529 58.3681 38.5124 58.0456C35.7025 57.7231 33.2232 57.0782 30.7438 56.272C29.9174 55.9495 29.0909 55.627 28.2645 55.3045C27.9339 55.1433 27.6033 54.9821 27.2727 54.8208C26.7769 54.4984 26.1157 55.4658 26.1157 56.1107C26.1157 56.5944 26.4463 56.9169 26.6116 57.2394C26.6116 57.2394 30.7438 60.7866 36.8595 62.399C43.1405 64.4951 47.7686 63.5277 47.6033 63.5277C48.0992 63.5277 48.4298 63.3664 48.9256 63.2052C52.562 61.2703 55.8678 59.013 58.6777 56.7557C59.5042 56.1107 59.6694 55.3045 59.3389 54.4984C59.3389 54.4984 59.3389 54.3371 59.1736 54.3371Z" fill="#203342"/>
<path d="M59.6695 53.8535C50.7439 56.7557 44.4629 57.4007 37.0249 55.1434C34.8761 55.3046 32.7274 55.3046 30.7439 55.1434V58.0456C34.7108 60.303 39.5042 61.4316 46.6117 61.4316C47.934 61.4316 49.4216 61.1092 50.7439 60.303C54.215 58.3681 57.3555 56.272 60.0001 54.0147C60.0001 54.0147 59.8348 53.8535 59.6695 53.8535Z" fill="#355168"/>
<path d="M57.5208 54.1759C49.587 56.4332 44.6283 56.9169 38.182 54.9821C35.2068 55.3046 32.3969 55.1433 29.587 54.8208C29.0911 54.6596 28.7605 54.4984 28.4299 54.3371C28.2646 54.4984 28.4299 54.4984 28.2646 54.4984C33.5539 59.013 39.0085 60.9479 48.7605 60.4642C52.5622 58.5293 56.0332 56.272 58.8432 53.8534C58.8432 53.6922 58.8432 53.6922 58.6779 53.5309C58.5126 53.5309 58.182 53.8534 57.5208 54.1759Z" fill="#D3600B"/>
<path d="M38.3473 54.8208C34.8762 55.1433 31.5704 54.9821 28.2646 54.3371C33.5539 58.8518 39.0084 60.7866 48.5952 60.1417C52.3969 58.2068 55.868 55.9495 58.6779 53.5309C50.4134 56.272 44.9589 56.7557 38.3473 54.8208Z" fill="#FF9429"/>
<path d="M29.2561 21.7671L29.9173 24.5081L32.2313 24.0244L31.5702 21.1221L29.2561 21.7671Z" fill="#FECC3D"/>
<path d="M23.967 22.5733L24.1323 25.9593L26.2811 26.2818L25.6199 22.5733H23.967Z" fill="#FECC3D"/>
<path d="M26.4463 18.0586L26.7769 19.1873C26.9422 19.1873 27.1074 19.026 27.438 19.026L27.2727 17.7361C26.9422 17.8974 26.7769 17.8974 26.4463 18.0586Z" fill="#848689"/>
<path d="M26.2809 8.70685C24.628 8.70685 23.4709 10.158 23.4709 11.9316V14.0277C23.4709 15.1564 23.4709 16.285 23.8015 17.2524C23.8015 17.4137 23.9668 17.5749 23.9668 17.7362C23.9668 17.8974 24.1321 18.0586 24.2974 18.3811C24.628 18.8648 25.1238 19.0261 25.6197 19.1873C25.785 19.1873 25.9503 19.1873 25.9503 19.1873L25.6197 17.8974C25.4544 17.7362 25.1238 17.5749 24.9586 17.4137C24.7933 17.2524 24.7933 17.0912 24.628 16.93C24.4627 16.6075 24.4627 16.285 24.4627 15.8013C24.4627 15.4788 24.4627 15.1564 24.4627 14.8339C24.4627 13.8665 24.4627 12.899 24.4627 11.7704C24.4627 10.8029 25.2891 9.83551 26.2809 9.83551C27.2726 9.83551 28.099 10.6417 28.099 11.6091V16.1238C28.099 16.285 28.099 16.285 28.099 16.4463C28.099 16.6075 28.099 16.6075 28.099 16.7687L28.2643 18.5424C28.5949 18.2199 28.9255 17.7362 29.0908 17.2524C29.2561 16.93 29.2561 16.6075 29.2561 16.285V11.6091C29.2561 9.99675 27.9338 8.70685 26.2809 8.70685Z" fill="#848689"/>
<path d="M29.2562 12.254H28.0991C27.9338 12.254 27.7686 12.4153 27.7686 12.7377V13.2215C27.7686 13.3827 27.9338 13.5439 28.0991 13.5439H29.2562C29.4215 13.5439 29.5867 13.3827 29.5867 13.0602V12.5765C29.5867 12.4153 29.4215 12.254 29.2562 12.254Z" fill="#355168"/>
<path d="M29.2562 13.7052H28.0991C27.9338 13.7052 27.7686 13.8664 27.7686 14.1889V14.6726C27.7686 14.8339 27.9338 14.9951 28.0991 14.9951H29.2562C29.4215 14.9951 29.5867 14.8339 29.5867 14.5114V14.1889C29.5867 13.8664 29.4215 13.7052 29.2562 13.7052Z" fill="#355168"/>
<path d="M39.3389 22.0896V29.9902C39.3389 29.9902 43.967 23.702 43.1405 20.1547L39.3389 22.0896Z" fill="url(#paint0_linear)"/>
<path d="M48.9255 20.6384C48.7603 20.6384 48.7603 20.6384 48.595 20.6384C47.4379 20.6384 46.6115 21.6059 45.6198 22.0896C44.628 22.412 43.8016 22.2508 42.9751 22.2508C41.9834 22.2508 41.8181 23.2182 41.3222 24.0244C40.3305 25.6368 39.6693 27.5717 39.0082 29.3453C39.1735 27.4104 39.5041 25.4756 39.3388 23.7019C38.8429 23.8632 38.5123 24.8306 38.1817 25.3143C36.5289 28.3778 36.033 32.0863 36.033 35.4723C35.8677 40.1482 36.5289 44.8241 35.3718 49.3388C35.3718 49.0163 41.4875 48.6938 42.314 48.5326C43.1404 48.3713 52.8925 47.8876 52.8925 48.5326C52.8925 48.0489 54.0495 41.7606 54.5454 41.9218C54.876 41.9218 55.5371 34.9886 55.5371 34.9886C55.2065 30.9576 55.7024 26.443 52.2313 23.3795C51.4049 22.5733 50.0826 20.9609 48.9255 20.6384Z" fill="url(#paint1_linear)"/>
<path d="M35.5372 48.3713C31.9009 50.6286 28.9257 52.886 26.7769 54.4983C20.3306 59.4967 19.1736 61.2703 18.843 63.2052L18.5125 67.3974L35.0414 86.2622L39.6695 82.3925L31.405 68.6873L27.1075 64.9788L42.9753 56.7557C42.9753 56.7557 49.5868 54.9821 50.248 54.0146C50.9091 53.0472 52.0662 48.5325 52.0662 48.5325C52.0662 48.2101 35.5372 48.3713 35.5372 48.3713Z" fill="#27424C"/>
<path d="M36.3636 48.5326C33.0578 51.1124 30.7438 53.3697 29.0909 54.9821C26.7768 57.4006 20.3305 65.4625 22.4793 62.8827L20.6611 67.0749L14.5454 88.6808L20.4958 90.9381L27.6033 74.6531L29.2562 67.0749C29.2562 67.0749 42.4793 58.5293 42.9752 58.5293C43.6363 58.3681 50.5785 56.1107 51.4049 55.7883C52.0661 55.627 53.8843 50.6287 53.0578 47.0814C43.3057 48.5326 36.3636 48.5326 36.3636 48.5326Z" fill="#2E4B59"/>
<path d="M21.1571 90.4544C20.8265 90.6156 20.6612 90.7769 20.4959 91.0993L20.8265 91.2606C20.9918 91.0993 21.1571 90.9381 21.3224 90.7769C21.4876 90.6156 21.8182 90.7769 21.9835 90.9381C22.1488 91.0993 22.1488 91.4218 21.9835 91.5831C21.8182 91.7443 21.8182 91.9055 21.6529 92.0668L21.4876 92.228C20.6612 93.0342 20.3306 94.3241 20.4959 95.4528H20.8265C20.6612 94.3241 20.9918 93.3567 21.8182 92.5505L21.9835 92.3892C22.1488 92.228 22.3141 92.0668 22.4794 91.9055C22.6447 91.5831 22.6447 91.2606 22.4794 90.9381C21.8182 90.4544 21.4876 90.2931 21.1571 90.4544Z" fill="#355168"/>
<path d="M14.7108 87.2296C14.3802 88.3583 13.719 90.1319 12.562 91.5831C17.1901 90.6156 17.5207 87.5521 17.686 87.0684L16.1984 86.5847C15.3719 86.2622 14.8761 86.5847 14.7108 87.2296Z" fill="#203342"/>
<path d="M20.3307 88.1971C19.3389 87.2297 17.5207 86.5847 16.0331 87.0684C15.5373 87.2297 15.2067 87.5521 14.8761 88.0358C14.7108 88.1971 14.7108 88.3583 14.7108 88.5196C14.5455 88.842 14.5455 89.0033 14.3802 89.3258C14.3802 89.487 14.215 89.487 14.215 89.6482C14.215 89.6482 14.215 89.6482 14.215 89.8095C14.0497 90.1319 13.8844 90.2932 13.7191 90.6157C13.5538 90.7769 13.5538 90.7769 13.3885 90.9381C13.2232 91.0994 12.8926 91.2606 12.7273 91.4218C12.5621 91.5831 12.3968 91.5831 12.2315 91.7443L12.0662 91.9056C11.7356 91.7443 11.5703 91.9056 11.405 91.9056C11.2397 91.9056 11.0745 92.0668 10.9092 92.0668C10.7439 92.228 10.4133 92.228 10.248 92.3893C10.0827 92.3893 9.91743 92.5505 9.75214 92.5505C9.42156 92.7117 9.25627 92.7117 8.92569 92.7117C8.76041 92.7117 8.59512 92.873 8.42983 92.873C8.26454 92.873 8.09925 92.873 7.93396 93.0342C7.60338 93.0342 7.2728 93.1955 6.94222 93.1955C5.12404 93.1955 4.95875 94.0016 4.95875 94.0016C4.95875 94.0016 4.79346 94.9691 4.62817 95.2915C6.28107 96.5815 10.0827 96.7427 11.5703 96.9039C12.2315 96.7427 12.8926 96.7427 13.5538 96.7427C13.5538 96.7427 13.5538 96.7427 13.7191 96.7427C13.7191 96.7427 13.7191 96.7427 13.8844 96.7427C13.8844 96.7427 13.8844 96.7427 14.0497 96.7427C14.5455 96.7427 15.2067 96.7427 15.5373 96.9039C15.7026 96.9039 15.8678 96.9039 15.8678 97.0652C16.0331 97.0652 16.0331 97.0652 16.1984 97.0652C16.8596 97.2264 18.0166 97.2264 19.0083 97.0652C19.0083 97.0652 19.0083 97.0652 19.1736 97.0652C20.0001 95.9365 20.6612 94.6466 20.9918 93.3567V93.0342L21.3224 89.9707C21.3224 89.1645 20.8265 88.6808 20.3307 88.1971Z" fill="#203342"/>
<path d="M19.1736 97.0652C20.1653 97.0652 20.9918 97.0652 20.9918 97.0652L21.3223 95.1303L20.9918 93.3567C20.6612 94.6466 20 95.9365 19.1736 97.0652Z" fill="#355168"/>
<path d="M13.554 94.4853C11.9011 94.969 8.92585 94.6465 7.76883 94.3241C7.27296 94.969 6.94238 95.614 6.94238 96.2589C8.59528 96.7426 10.744 96.9039 11.7358 96.9039C12.2316 96.9039 12.8928 96.7426 13.3887 96.7426C13.3887 96.7426 13.3887 96.7426 13.554 96.7426C13.554 96.7426 13.554 96.7426 13.7192 96.7426C14.2151 96.7426 14.711 96.7426 15.2068 96.9039C15.3721 96.9039 15.7027 97.0651 15.868 97.0651C16.5292 97.2263 17.6862 97.2263 18.6779 97.0651C18.6779 96.9039 18.6779 96.9039 18.6779 96.7426C18.8432 94.3241 15.2068 94.0016 13.554 94.4853Z" fill="#355168"/>
<path d="M5.12404 94.0016C5.12404 94.0016 4.95875 94.9691 4.79346 95.2915C5.28932 95.7752 6.11577 96.0977 6.94222 96.259C6.94222 95.614 7.2728 94.8078 7.76866 94.3241C7.60337 94.1629 7.43809 94.1629 7.2728 94.1629C7.10751 94.0016 7.10751 93.8404 7.43809 93.6791C7.76866 93.6791 8.09924 93.5179 8.09924 93.1954C7.76866 93.1954 7.43809 93.3567 7.10751 93.3567C5.28932 93.1954 5.12404 94.0016 5.12404 94.0016Z" fill="#203342"/>
<path d="M20.9918 96.9039C20.0001 96.9039 16.0331 96.5814 12.7274 96.5814C8.76041 97.0651 4.79347 94.9691 4.79347 94.9691L4.62818 95.614L4.46289 96.0977L5.28934 96.5814L5.45463 96.4202L6.11578 96.5814L5.95049 96.9039L6.94223 97.2264V96.9039L8.26454 97.2264V97.5489L9.25628 97.7101V97.5489L10.0827 97.7101L10.248 97.8713L11.2398 98.0326L11.405 97.7101H11.9009L12.0662 98.0326L12.7274 97.8713V97.7101H13.8844L14.0497 97.8713L14.8761 97.7101V97.5489L15.7026 97.8713L15.8679 98.5163H16.529V98.355H17.0249V98.6775L18.0166 98.8388V98.5163H18.5125V98.8388L19.6695 99V98.6775H20.1654L20.3307 98.8388L20.9918 98.355V98.0326V97.7101V97.3876C21.1571 97.0651 20.9918 97.0651 20.9918 96.9039Z" fill="#939598"/>
<path d="M14.876 87.7134C14.7107 87.7134 14.5454 87.7134 14.3801 87.7134C14.3801 87.7134 14.3801 87.7134 14.3801 87.8746C14.3801 87.8746 14.3801 87.8746 14.5454 87.8746C14.5454 87.7134 14.7107 87.7134 14.876 87.7134C14.876 87.8746 15.0413 88.0359 15.0413 88.1971C15.0413 88.3583 14.876 88.5196 14.7107 88.5196C14.5454 88.5196 14.3801 88.5196 14.2149 88.3583H14.0496V88.5196C14.2148 88.5196 14.3801 88.6808 14.5454 88.6808H14.7107C14.876 88.6808 15.2066 88.5196 15.2066 88.1971C15.2066 87.8746 15.0413 87.7134 14.876 87.7134Z" fill="#F15A29"/>
<path d="M14.2149 88.842C14.0496 88.842 14.0496 88.842 14.2149 88.842C14.0496 89.0033 14.0496 89.0033 14.2149 88.842C14.3802 89.0033 14.3802 89.1645 14.5454 89.1645C14.7107 89.1645 14.7107 89.3258 14.7107 89.487C14.7107 89.6482 14.5454 89.6482 14.3802 89.6482C14.2149 89.6482 14.0496 89.487 13.8843 89.487H13.719V89.6482C13.8843 89.6482 14.0496 89.8095 14.2149 89.8095C14.3802 89.8095 14.7107 89.8095 14.7107 89.487C14.7107 89.3258 14.7107 89.1645 14.5454 89.0033C14.5454 89.0033 14.3802 89.0033 14.2149 88.842Z" fill="#F15A29"/>
<path d="M13.5537 89.9707C13.5537 90.1319 13.5537 90.1319 13.5537 89.9707C13.719 90.1319 13.8843 90.2932 13.8843 90.4544C13.8843 90.6157 13.719 90.7769 13.5537 90.9381C13.3884 90.9381 13.2232 90.9381 13.0579 90.7769C13.0579 90.7769 13.0579 90.7769 12.8926 90.7769C12.8926 90.7769 12.8926 90.7769 12.8926 90.9381C13.2232 90.9381 13.2232 91.0994 13.3884 91.0994C13.5537 91.0994 13.5537 91.0994 13.719 91.0994C13.8843 90.9381 14.0496 90.7769 14.0496 90.4544C14.0496 90.2932 13.8843 89.9707 13.5537 89.9707Z" fill="#F15A29"/>
<path d="M12.5618 91.2606C12.7271 91.4218 12.7271 91.5831 12.7271 91.7443C12.7271 91.9055 12.5618 91.9055 12.3965 91.9055C12.2312 91.9055 12.2312 91.7443 12.0659 91.7443C12.0659 91.7443 12.0659 91.7443 11.9006 91.7443C11.9006 91.7443 11.9006 91.7443 11.9006 91.9055C12.0659 91.9055 12.2312 91.9055 12.5618 91.9055C12.7271 91.9055 12.8924 91.7443 13.0577 91.5831C13.0577 91.4218 12.8924 91.2606 12.5618 91.2606C12.7271 91.0993 12.7271 91.0993 12.5618 91.2606Z" fill="#F15A29"/>
<path d="M11.4048 91.9055C11.4048 91.9055 11.2395 91.9055 11.4048 91.9055C11.2395 91.9055 11.2395 92.0668 11.4048 91.9055C11.4048 92.0668 11.5701 92.0668 11.5701 92.228V92.3892C11.5701 92.5505 11.4048 92.7117 11.2395 92.7117C11.0742 92.7117 10.9089 92.5505 10.9089 92.3892C10.9089 92.3892 10.9089 92.3892 10.7437 92.3892C10.7437 92.3892 10.7437 92.3892 10.7437 92.5505C10.7437 92.7117 11.0742 92.8729 11.2395 92.8729C11.4048 92.8729 11.7354 92.7117 11.7354 92.5505C11.7354 92.3892 11.7354 92.3892 11.7354 92.228C11.5701 91.9055 11.4048 91.9055 11.4048 91.9055Z" fill="#F15A29"/>
<path d="M10.2478 92.3893C10.2478 92.5505 10.2478 92.7118 10.0825 92.7118C9.91725 92.7118 9.75196 92.7118 9.75196 92.7118H9.58667V92.873C9.58667 92.873 9.75196 93.0342 9.91725 93.0342C10.0825 93.0342 10.0825 93.0342 10.2478 93.0342C10.2478 92.7118 10.4131 92.5505 10.2478 92.3893C10.4131 92.2281 10.4131 92.2281 10.2478 92.3893C10.2478 92.2281 10.2478 92.3893 10.2478 92.3893Z" fill="#F15A29"/>
<path d="M9.09085 92.7117C8.92556 92.873 8.76027 93.0342 8.42969 92.873H8.2644V93.0342C8.42969 93.0342 8.42969 93.1954 8.59498 93.1954C8.92556 93.1954 9.09085 93.0342 9.09085 92.7117C9.25614 92.7117 9.25614 92.7117 9.09085 92.7117Z" fill="#F15A29"/>
<path d="M14.8761 88.0359C14.7108 88.1971 14.8761 88.3583 15.0414 88.3583H15.7025V87.8746H15.0414C15.0414 87.8746 14.8761 88.0359 14.8761 88.0359Z" fill="#203342"/>
<path d="M14.5454 89.1645C14.3801 89.1645 14.3801 89.1645 14.5454 89.1645C14.3801 89.3257 14.3801 89.3257 14.2148 89.487V89.6482L14.7107 89.8095L15.0413 89.9707L15.2066 89.487H14.876L14.5454 89.1645Z" fill="#203342"/>
<path d="M13.7192 90.4544C13.5539 90.4544 13.5539 90.4544 13.3886 90.4544C13.2233 90.6156 13.2233 90.7769 13.3886 90.7769L13.7192 90.9381L14.0498 91.0994L14.3804 90.7769L14.0498 90.6156L13.7192 90.4544Z" fill="#203342"/>
<path d="M12.7273 91.4218C12.7273 91.4218 12.562 91.4218 12.3967 91.4218C12.2314 91.5831 12.2314 91.7443 12.3967 91.7443L12.7273 91.9055L13.0578 92.228L13.3884 91.9055L13.0578 91.583L12.7273 91.4218Z" fill="#203342"/>
<path d="M11.5703 92.0668C11.5703 92.0668 11.405 91.9055 11.2398 92.0668C11.0745 92.0668 11.0745 92.3893 11.0745 92.3893L11.2398 92.7117L11.5703 93.0342L11.9009 92.7117L11.5703 92.3893V92.0668Z" fill="#203342"/>
<path d="M10.2481 92.7117C10.2481 92.5505 10.0828 92.5505 9.91749 92.5505C9.7522 92.5505 9.7522 92.7117 9.7522 92.8729L9.91749 93.1954L10.4134 93.0342L10.2481 92.7117Z" fill="#203342"/>
<path d="M9.09108 92.873C8.92579 92.873 8.7605 93.0342 8.59521 93.0342V93.3567L9.09108 93.1955V92.873Z" fill="#203342"/>
<path d="M15.7026 87.8746C15.5374 87.8746 15.3721 88.0359 15.3721 88.1971C15.3721 88.3583 15.5374 88.5196 15.7026 88.5196C15.8679 88.5196 16.0332 88.3583 16.0332 88.1971C16.0332 88.0359 15.8679 87.8746 15.7026 87.8746Z" fill="#BCBEC0"/>
<path d="M14.876 89.6482C14.876 89.8094 14.876 89.9707 15.0413 90.1319C15.2066 90.1319 15.3718 90.1319 15.5371 89.9707C15.5371 89.8094 15.5371 89.6482 15.3718 89.487C15.2066 89.3257 14.876 89.487 14.876 89.6482Z" fill="#BCBEC0"/>
<path d="M14.0497 90.9381C13.8844 91.0993 14.0497 91.2606 14.215 91.4218C14.3802 91.5831 14.5455 91.4218 14.7108 91.2606C14.8761 91.0993 14.7108 90.9381 14.5455 90.7769C14.3802 90.6156 14.0497 90.7769 14.0497 90.9381Z" fill="#BCBEC0"/>
<path d="M12.8928 91.7443C12.7275 91.9055 12.7275 92.0668 12.8928 92.228C13.0581 92.3892 13.2233 92.3892 13.3886 92.228C13.5539 92.0668 13.5539 91.9055 13.3886 91.7443C13.2233 91.583 13.0581 91.583 12.8928 91.7443Z" fill="#BCBEC0"/>
<path d="M11.5703 92.5505C11.405 92.7117 11.405 92.873 11.5703 93.0342C11.7355 93.1954 11.9008 93.1954 12.0661 93.0342C12.2314 92.873 12.2314 92.7117 12.0661 92.5505C11.9008 92.3893 11.7355 92.3893 11.5703 92.5505Z" fill="#BCBEC0"/>
<path d="M10.0828 92.8729C9.91748 92.8729 9.91748 93.0342 9.91748 93.1954C10.0828 93.5179 10.2481 93.5179 10.4133 93.5179C10.5786 93.5179 10.7439 93.1954 10.5786 93.0342C10.5786 92.8729 10.2481 92.7117 10.0828 92.8729Z" fill="#BCBEC0"/>
<path d="M8.76051 93.0342C8.59522 93.0342 8.42993 93.1954 8.42993 93.5179C8.42993 93.6791 8.59522 93.8404 8.9258 93.8404C9.09109 93.8404 9.25638 93.6791 9.25638 93.3567C9.25638 93.0342 8.9258 93.0342 8.76051 93.0342Z" fill="#BCBEC0"/>
<path d="M16.8596 97.8713C14.8761 97.2264 14.0497 96.9039 12.0662 97.0651C10.4133 97.2264 6.77695 96.5814 4.4629 95.4528L4.29761 95.9365L5.12405 96.4202L5.28934 96.2589L5.9505 96.4202L5.78521 96.7427L6.77695 97.0651V96.7427L8.26455 97.2264V97.5489L9.25629 97.7101V97.5489L10.0827 97.7101L10.248 97.8713L11.2398 98.0326L11.405 97.7101H11.9009L12.0662 98.0326L12.7274 97.8713V97.7101H13.8844L14.0497 97.8713L14.8761 97.7101V97.5489L15.7026 97.8713L15.8679 98.5163H16.529V98.355H17.0249V98.6775L18.0166 98.8388V98.5163H18.5125V98.8388L19.6695 99V98.6775H20.1654L20.3307 98.8388L20.9918 98.355V98.0326C20.1654 98.0326 18.3472 98.355 16.8596 97.8713Z" fill="#203342"/>
<path d="M40.8265 81.7475V81.5863C40.8265 81.425 40.6612 81.1026 40.6612 80.9413C40.4959 80.6189 40.1653 80.2964 39.8347 80.4576C39.5042 80.4576 39.1736 80.7801 39.1736 81.1026C39.1736 81.425 39.1736 81.7475 39.3389 82.07L39.6695 81.9088C39.5042 81.7475 39.5042 81.425 39.5042 81.2638C39.5042 81.1026 39.6695 80.9413 40 80.7801C40.1653 80.7801 40.4959 80.9413 40.4959 81.1026C40.6612 81.2638 40.6612 81.425 40.6612 81.7475V81.9088C40.9918 83.0374 41.6529 84.0049 42.8099 84.4886L42.9752 84.1661C41.8182 83.6824 40.9918 82.8762 40.8265 81.7475Z" fill="#355168"/>
<path d="M34.0495 81.9088L32.7272 82.8762C32.2314 83.1987 32.2314 83.8436 32.5619 84.3273C33.3884 85.1335 34.5454 86.7459 35.0413 88.5195C36.8595 84.3273 34.3801 82.2312 34.0495 81.9088Z" fill="#203342"/>
<path d="M40.9917 82.5537L38.6776 80.6189C38.1818 80.1351 37.3553 80.2964 36.6942 80.4576C35.3719 80.7801 33.719 81.9088 33.2231 83.1987C33.0578 83.6824 33.2231 84.1661 33.3884 84.6498C33.3884 84.811 33.5537 84.9723 33.5537 85.1335C33.719 85.456 33.8843 85.6172 34.0495 85.9397C34.0495 86.1009 34.2148 86.1009 34.2148 86.2622C34.2148 86.2622 34.2148 86.2622 34.2148 86.4234C34.3801 86.7459 34.5454 87.0684 34.5454 87.3909C34.5454 87.5521 34.5454 87.7133 34.7107 87.8746C34.7107 88.197 34.7107 88.3583 34.7107 88.6808C34.7107 88.842 34.7107 89.0032 34.7107 89.1645C34.7107 89.3257 34.7107 89.3257 34.7107 89.4869C34.7107 89.6482 34.7107 89.9707 34.7107 90.1319C34.7107 90.2931 34.7107 90.4544 34.7107 90.6156C34.7107 90.7768 34.5454 91.0993 34.5454 91.2606C34.5454 91.4218 34.5454 91.583 34.3801 91.7443C34.3801 92.0667 34.2148 92.228 34.2148 92.5505C34.2148 92.7117 34.0495 92.8729 34.0495 93.0342C34.0495 93.1954 33.8843 93.3566 33.8843 93.5179C33.719 93.8404 33.5537 94.1628 33.3884 94.3241C32.3967 95.9365 32.8925 96.4202 32.8925 96.4202C32.8925 96.4202 33.5537 97.2264 33.8843 97.3876C35.8677 96.9039 38.1818 93.8404 39.1735 92.7117C39.3388 92.228 39.6694 91.7443 40 91.2606C40 91.2606 40 91.2606 40 91.0993C40.3305 90.6156 40.6611 90.2931 40.9917 89.9707C41.157 89.8094 41.157 89.8094 41.3223 89.6482L41.4876 89.4869C41.9834 89.0032 42.6446 88.0358 43.1405 87.2296C42.8099 85.9397 41.9834 84.6498 40.9917 83.5211V82.5537Z" fill="#203342"/>
<path d="M42.9752 83.5212L41.3223 82.715C42.314 83.6824 42.9752 84.9723 43.471 86.4234C43.9669 85.6173 44.4628 84.9723 44.4628 84.9723L42.9752 83.5212Z" fill="#355168"/>
<path d="M38.0165 89.4869C37.3553 91.0993 35.5371 93.3566 34.5454 94.0016C34.7107 94.8078 35.2066 95.2915 35.7024 95.7752C37.0248 94.6465 38.3471 93.0342 39.0082 92.228C39.3388 91.7443 39.5041 91.2605 39.8347 90.7768C39.8347 90.7768 39.8347 90.7768 39.8347 90.6156C40.1652 90.2931 40.4958 89.8094 40.8264 89.4869C40.9917 89.3257 41.157 89.1645 41.3223 89.0032C41.8181 88.5195 42.4793 87.5521 42.9752 86.7459C42.9752 86.7459 42.8099 86.5847 42.6446 86.5847C40.9917 84.9723 38.6776 87.7133 38.0165 89.4869Z" fill="#355168"/>
<path d="M34.5454 93.8404C34.3801 94.0016 34.2148 94.0016 34.0496 94.1628C33.8843 94.3241 33.5537 94.0016 33.719 93.8404C33.8843 93.5179 33.8843 93.1954 33.719 93.0342C33.5537 93.3567 33.3884 93.6791 33.2231 93.8404C32.2314 95.4527 32.7272 95.9365 32.7272 95.9365C32.7272 95.9365 33.3884 96.7426 33.719 96.9039C34.3801 96.7426 35.0413 96.2589 35.7024 95.7752C35.2066 95.2915 34.876 94.6466 34.5454 93.8404Z" fill="#203342"/>
<path d="M45.6198 86.2622V85.456L45.2892 85.2948L44.9587 85.1335L44.7934 84.9723C44.6281 84.9723 44.6281 84.9723 44.4628 84.9723C43.8016 85.6172 41.3223 88.842 39.5041 91.4218C37.6859 94.969 33.5537 96.9039 33.5537 96.9039L34.0496 97.3876L34.3802 97.7101L35.3719 97.2264V96.9039L35.8678 96.4202L36.1983 96.7426L37.0248 96.0977L36.8595 95.9365L37.6859 95.2915L38.0165 95.4527L38.6777 94.6466L38.5124 94.4853L39.0083 93.8404H39.3388L40 93.0342L39.6694 92.8729L39.8347 92.3892H40.1653L40.3306 91.7443L40.1653 91.583L40.8264 90.6156H40.9917L41.4876 89.9707L41.3223 89.8094L42.1488 89.3257L42.8099 89.4869L43.1405 89.0032L42.9752 88.842L43.3058 88.5195L43.4711 88.6808L44.1322 87.8746L43.8016 87.7133L44.1322 87.3909L44.4628 87.5521L45.2892 86.5847L44.9587 86.4234L45.124 85.9397L45.6198 86.2622Z" fill="#939598"/>
<path d="M33.0579 84.3274C32.8926 84.4886 32.8926 84.6499 32.7273 84.8111V84.9723H32.8926C33.0579 84.6499 33.0579 84.6499 33.0579 84.3274C33.2232 84.3274 33.3885 84.3274 33.5537 84.3274C33.719 84.4886 33.719 84.6499 33.5537 84.8111C33.3885 84.9723 33.2232 85.1336 33.0579 85.1336C33.0579 85.1336 33.0579 85.1336 33.0579 85.2948C33.0579 85.2948 33.0579 85.2948 33.2232 85.2948C33.3885 85.2948 33.5537 85.1336 33.5537 84.9723C33.5537 84.9723 33.5537 84.8111 33.719 84.8111C33.8843 84.6499 33.8843 84.3274 33.5537 84.1661C33.5537 84.1661 33.2232 84.3274 33.0579 84.3274Z" fill="#F15A29"/>
<path d="M34.2149 85.4561C34.0496 85.4561 33.8843 85.6173 33.719 85.6173C33.719 85.6173 33.719 85.6173 33.719 85.7785C33.719 85.7785 33.719 85.7785 33.8843 85.7785C34.0496 85.7785 34.0496 85.6173 34.2149 85.4561C34.3802 85.6173 34.5454 85.6173 34.5454 85.7785C34.5454 85.9398 34.5454 86.101 34.5454 86.101C34.3802 86.2622 34.2149 86.2622 34.2149 86.4235C34.2149 86.4235 34.2149 86.4235 34.2149 86.5847C34.2149 86.5847 34.2149 86.5847 34.3802 86.5847C34.5454 86.5847 34.7107 86.4235 34.876 86.2622C35.0413 86.101 35.0413 85.9398 34.876 85.6173C34.5454 85.4561 34.3802 85.4561 34.2149 85.4561Z" fill="#F15A29"/>
<path d="M34.3801 86.746C34.3801 86.746 34.3801 86.9072 34.3801 86.746C34.3801 86.9072 34.3801 86.9072 34.3801 86.746C34.5454 86.746 34.876 86.746 35.0413 86.746C35.2066 86.9072 35.3719 87.0684 35.2066 87.2297C35.2066 87.3909 35.0413 87.5521 34.876 87.5521C34.876 87.5521 34.876 87.5521 34.876 87.7134C34.876 87.7134 34.876 87.7134 35.0413 87.7134C35.2066 87.7134 35.3719 87.5521 35.5371 87.5521C35.5371 87.5521 35.7024 87.3909 35.7024 87.2297C35.7024 86.9072 35.7024 86.746 35.3719 86.5847C34.876 86.5847 34.5454 86.5847 34.3801 86.746Z" fill="#F15A29"/>
<path d="M34.876 88.1971C34.876 88.3583 34.876 88.3583 34.876 88.1971C35.0413 88.3583 35.2066 88.3583 35.2066 88.3583C35.2066 88.5196 35.3718 88.5196 35.2066 88.6808C35.2066 88.842 35.0413 88.842 34.876 88.842H34.7107V89.0033C34.876 89.0033 35.0413 89.0033 35.2066 88.842C35.3718 88.6808 35.3718 88.5196 35.2066 88.3583C35.2066 88.0359 35.0413 88.0359 34.876 88.1971Z" fill="#F15A29"/>
<path d="M35.0415 89.487C34.8762 89.487 34.8762 89.487 34.7109 89.6482V89.8095H34.8762H35.0415C35.0415 89.8095 35.2068 89.8095 35.2068 89.9707C35.3721 90.1319 35.3721 90.2932 35.2068 90.4544C35.0415 90.2932 34.8762 90.2932 34.7109 90.2932H34.5457V90.4544C34.7109 90.4544 35.0415 90.4544 35.2068 90.2932C35.3721 90.1319 35.3721 89.8095 35.2068 89.6482C35.2068 89.487 35.0415 89.487 35.0415 89.487Z" fill="#F15A29"/>
<path d="M34.5454 90.7769C34.5454 90.6156 34.3801 90.7769 34.5454 90.7769C34.3801 90.7769 34.3801 90.7769 34.5454 90.7769C34.5454 90.9381 34.7106 91.0993 34.7106 91.2606C34.7106 91.4218 34.5454 91.4218 34.5454 91.583C34.5454 91.583 34.5454 91.583 34.5454 91.7443C34.5454 91.7443 34.5454 91.7443 34.7106 91.7443C34.8759 91.7443 34.8759 91.7443 35.0412 91.583L35.2065 91.4218C34.8759 90.9381 34.7106 90.7769 34.5454 90.7769Z" fill="#F15A29"/>
<path d="M34.0496 91.9056C34.0496 92.2281 34.2149 92.3893 33.8843 92.5505C33.8843 92.5505 33.8843 92.5505 33.8843 92.7118C33.8843 92.7118 33.8843 92.7118 34.0496 92.7118C34.2149 92.7118 34.2149 92.5505 34.2149 92.5505C34.3801 92.3893 34.3801 92.0668 34.0496 91.9056C34.2149 91.9056 34.2149 91.9056 34.0496 91.9056Z" fill="#F15A29"/>
<path d="M33.5537 84.4886C33.5537 84.4886 33.5537 84.6498 33.5537 84.8111C33.5537 84.9723 33.8843 84.9723 33.8843 84.8111L34.2149 84.3274L33.8843 84.0049L33.5537 84.4886Z" fill="#203342"/>
<path d="M34.7107 85.456L34.2148 85.7784V85.9397C34.2148 85.9397 34.2148 86.1009 34.3801 86.1009H34.5454L35.0413 85.7784L35.3719 85.6172L35.0413 85.2947L34.7107 85.456Z" fill="#203342"/>
<path d="M35.2066 86.746L34.876 86.9072C34.7107 86.9072 34.7107 87.0684 34.7107 87.2297C34.7107 87.3909 34.876 87.3909 35.0413 87.3909L35.3718 87.2297L35.7024 87.0684L35.5371 86.5847L35.2066 86.746Z" fill="#203342"/>
<path d="M35.3718 88.1971L35.0413 88.3583C34.876 88.3583 34.876 88.5195 34.876 88.5195C34.876 88.6808 35.0413 88.842 35.2066 88.6808L35.5371 88.5195L35.8677 88.3583L35.7024 87.8746L35.3718 88.1971Z" fill="#203342"/>
<path d="M35.3718 89.6482H35.0413C34.876 89.6482 34.876 89.6482 34.876 89.8094C34.876 89.9707 35.0413 90.1319 35.2066 90.1319H35.5371H35.8677V89.6482H35.3718Z" fill="#203342"/>
<path d="M34.7107 90.938C34.5454 90.938 34.5454 90.938 34.3801 91.0993C34.3801 91.2605 34.3801 91.4218 34.5454 91.4218H34.876L35.0413 90.938H34.7107Z" fill="#203342"/>
<path d="M34.2148 92.0668C34.2148 92.228 34.0496 92.3893 34.0496 92.5505L34.3801 92.7117L34.5454 92.228L34.2148 92.0668Z" fill="#203342"/>
<path d="M33.7189 84.0048C33.5536 84.1661 33.5536 84.3273 33.7189 84.4886C33.8842 84.6498 34.0495 84.6498 34.2148 84.4886C34.3801 84.3273 34.3801 84.1661 34.2148 84.0048C34.2148 83.8436 33.8842 83.8436 33.7189 84.0048Z" fill="#BCBEC0"/>
<path d="M34.876 85.1335C34.7107 85.1335 34.7107 85.456 34.7107 85.6172C34.876 85.7784 35.0413 85.7785 35.2066 85.7785C35.3718 85.6172 35.3718 85.456 35.3718 85.2947C35.2066 84.9723 35.0413 84.9723 34.876 85.1335Z" fill="#BCBEC0"/>
<path d="M35.537 86.5847C35.3717 86.5847 35.2064 86.9071 35.3717 87.0684C35.3717 87.2296 35.7023 87.3909 35.8676 87.2296C36.0328 87.2296 36.1981 86.9071 36.0328 86.7459C35.8676 86.5847 35.7023 86.4234 35.537 86.5847Z" fill="#BCBEC0"/>
<path d="M35.7024 87.8746C35.5371 87.8746 35.3718 88.0358 35.3718 88.3583C35.3718 88.5195 35.5371 88.6808 35.8677 88.6808C36.033 88.6808 36.1983 88.5195 36.1983 88.1971C36.033 88.0358 35.8677 87.8746 35.7024 87.8746Z" fill="#BCBEC0"/>
<path d="M35.7024 89.4869C35.5371 89.4869 35.3718 89.6482 35.3718 89.8094C35.3718 89.9707 35.5371 90.1319 35.7024 90.1319C35.8677 90.1319 36.033 89.9707 36.033 89.8094C36.033 89.6482 35.8677 89.4869 35.7024 89.4869Z" fill="#BCBEC0"/>
<path d="M35.2066 90.938C35.0413 90.938 34.876 91.0993 34.876 91.2605C34.876 91.4218 35.0413 91.583 35.2066 91.7442C35.3718 91.7442 35.5371 91.583 35.5371 91.4218C35.5371 91.2605 35.3718 90.938 35.2066 90.938Z" fill="#BCBEC0"/>
<path d="M34.2148 92.3892C34.2148 92.5505 34.2148 92.7117 34.3801 92.8729C34.5454 92.8729 34.7107 92.8729 34.876 92.7117C34.876 92.5505 34.876 92.3892 34.7107 92.228C34.5454 92.0667 34.2148 92.228 34.2148 92.3892Z" fill="#BCBEC0"/>
<path d="M45.6198 86.2622V85.456L45.2892 85.2947C44.9587 86.1009 44.1322 87.8745 42.9752 88.6807C41.3223 89.9706 40.4958 90.2931 39.6694 92.0667C38.8429 93.5179 36.3636 96.0977 34.0496 97.2263L34.3801 97.5488L35.3719 97.0651V96.7426L35.8677 96.2589L36.1983 96.5814L37.0248 95.9364L36.8595 95.7752L37.6859 95.1302L38.0165 95.2915L38.6777 94.4853L38.5124 94.3241L39.0082 93.6791H39.3388L40 92.8729H39.6694L39.8347 92.3892H40.1653L40.3306 91.7442L40.1653 91.583L40.8264 90.6156H40.9917L41.4876 89.9706L41.3223 89.8094L42.1487 89.3257L42.8099 89.4869L43.1405 89.0032L42.9752 88.842L43.3058 88.5195L43.471 88.6807L44.1322 87.8745L43.8016 87.7133L44.1322 87.3908L44.4628 87.5521L45.2892 86.5846L44.9587 86.4234L45.1239 85.9397L45.6198 86.2622Z" fill="#203342"/>
<path d="M35.2065 45.4691L35.3718 48.6938C35.3718 48.6938 52.5619 49.6612 53.2231 49.6612C53.8842 49.6612 53.7189 46.2752 53.7189 46.2752L35.2065 45.4691Z" fill="#797D7F"/>
<path d="M25.9504 17.2525L35.3719 46.9202C35.3719 47.2427 38.1818 45.9528 38.1818 46.4365C38.1818 46.759 27.9339 17.4137 27.1075 16.7687L25.9504 17.2525Z" fill="#797D7F"/>
<path d="M47.9338 49.1776C47.9338 49.1776 53.719 58.3681 53.5537 58.8518C53.3884 59.3355 56.033 57.4007 56.033 57.4007L50.5785 49.3388L47.9338 49.1776Z" fill="#797D7F"/>
<path d="M49.4214 45.4691C48.595 45.4691 47.9338 45.9528 47.9338 46.5977V48.6938C47.9338 49.3388 48.595 49.8225 49.4214 49.8225C50.2479 49.8225 50.909 49.3388 50.909 48.6938V46.5977C50.909 45.9528 50.2479 45.4691 49.4214 45.4691ZM50.0826 48.855C50.0826 49.1775 49.752 49.5 49.2561 49.5C48.7603 49.5 48.4297 49.1775 48.4297 48.855V46.759C48.4297 46.4365 48.7603 46.114 49.2561 46.114C49.752 46.114 50.0826 46.4365 50.0826 46.759V48.855Z" fill="#A2A3A5"/>
<path d="M30.0825 24.1857L49.7519 60.9479L52.2313 59.3355L30.909 24.1857H30.0825Z" fill="#FECC3D"/>
<path d="M31.2395 24.1857L56.694 56.5944L58.3469 55.1433L32.2312 24.0244L31.2395 24.1857Z" fill="#FECC3D"/>
<path d="M46.6116 7.90061C44.2976 6.61071 40.8265 5.96576 38.3471 7.25566C38.3471 7.57813 38.3471 7.73937 38.3471 8.06185C38.3471 8.22308 38.3471 8.22308 38.3471 8.38432L37.686 8.54556C37.3554 8.54556 37.1901 8.7068 37.0248 9.02927L36.1984 11.2866C36.1984 11.4478 36.1984 11.6091 36.1984 11.7703L36.529 13.2215C36.529 13.3827 36.529 13.7052 36.3637 13.8664L35.5372 14.8338C35.2066 15.1563 35.3719 15.8013 35.8678 15.9625C36.1984 16.1237 36.1984 16.285 36.1984 16.6074C36.1984 16.7687 36.1984 16.7687 36.1984 16.9299C36.1984 17.0912 36.3637 17.0912 36.529 17.2524C36.6942 17.4136 36.3637 17.5749 36.529 18.0586C36.6942 18.3811 36.8595 18.7035 36.8595 19.1873C36.8595 19.3485 36.8595 19.671 37.0248 19.8322C37.3554 20.3159 38.5124 20.4772 39.0083 20.4772C39.6695 20.4772 40.3306 20.3159 40.8265 20.1547C41.9835 19.8322 42.1488 22.412 42.6447 22.7345C43.6364 23.3794 45.9504 22.0895 46.9422 21.6058C48.4298 20.7996 48.4298 19.1873 47.6033 17.8974C46.9422 16.7687 47.4381 16.285 48.0992 15.3175C50.0827 12.7377 49.2562 9.35175 46.6116 7.90061Z" fill="#FFC28E"/>
<path d="M42.6447 5.32082C40.9918 5.48206 39.3389 6.28825 38.0166 7.25568C37.8513 7.41692 37.686 7.57815 37.5207 7.73939C37.3554 7.90063 37.3554 8.2231 37.5207 8.38434C37.686 8.70682 38.1819 8.86806 38.5124 8.70682C38.843 8.70682 39.1736 8.54558 39.6695 8.54558C40.3306 8.54558 40.9918 9.02929 41.1571 9.67424C41.4876 10.3192 41.4876 10.9641 41.3223 11.6091C41.3223 11.9316 42.1488 12.254 42.3141 12.4153C42.4794 12.5765 42.6447 12.7378 42.81 12.899C42.9752 13.0602 42.9752 13.0602 43.1405 13.2215C43.3058 13.3827 43.4711 13.3827 43.6364 13.2215C43.4711 12.7378 43.3058 12.0928 43.6364 11.6091C43.967 11.2866 44.4628 11.1254 44.7934 11.2866C45.4546 11.4479 45.9504 12.0928 46.1157 12.7378C46.281 13.544 45.7852 14.3501 45.9504 14.9951C46.1157 15.64 46.7769 16.285 47.2728 16.7687C47.2728 16.7687 47.2728 16.7687 47.4381 16.7687L47.6033 16.9299C47.7686 16.9299 47.7686 16.7687 47.9339 16.7687C49.0909 15.3176 49.9174 13.544 50.248 11.7703C50.7438 8.06187 46.281 4.99835 42.6447 5.32082Z" fill="#393B42"/>
<path d="M56.0331 23.2182C55.5372 22.5733 55.2066 21.7671 54.7108 21.1221C53.8843 20.1547 52.7273 19.671 51.5703 19.1873C50.9091 19.0261 50.4132 18.8648 49.7521 18.7036C49.5868 18.7036 48.0992 18.3811 48.0992 18.5423C47.9339 19.1873 47.438 20.4772 46.7769 20.7997C46.1157 21.2834 45.124 21.2834 44.2975 21.4446C43.1405 21.6059 41.8182 21.9283 40.4959 21.9283C40.8265 22.0896 40.3306 25.6368 39.5042 28.7003C40.9918 26.2818 43.967 23.8632 46.1157 22.8958C50.4132 22.2508 52.7273 24.5081 54.3802 28.5391C54.5455 29.0228 55.5372 33.8599 55.3719 33.8599C57.3554 34.0212 59.1736 30.3127 59.1736 30.3127L57.1901 24.5081C56.8595 24.1857 56.3637 23.7019 56.0331 23.2182Z" fill="url(#paint2_linear)"/>
<path d="M27.438 0C27.1074 0 26.9421 0.322476 26.9421 0.483713V10.6417C26.9421 10.9642 27.2727 11.1254 27.438 11.1254C27.7686 11.2866 28.0992 10.9642 28.0992 10.6417V0.483713C28.0992 0.322476 27.7686 0 27.438 0Z" fill="#5A5E60"/>
<path d="M25.6199 0C25.2893 0 25.124 0.322476 25.124 0.483713V10.4805C25.124 10.8029 25.4546 10.9642 25.6199 10.9642C25.7852 10.9642 26.1158 10.6417 26.1158 10.4805V0.644951C26.1158 0.322476 25.9505 0 25.6199 0Z" fill="#5A5E60"/>
<path d="M33.0578 34.8274L29.4215 30.6352L27.1074 32.57L30.2479 37.5684L34.2149 43.2117C36.033 45.1466 37.8512 45.3078 37.3554 44.6629C37.3554 44.6629 39.5041 42.2443 39.6694 42.0831C40 41.9218 37.6859 38.6971 37.6859 38.6971L33.0578 34.8274Z" fill="#EDB996"/>
<path d="M36.6941 37.4072L35.2065 44.1792C35.5371 44.5017 35.8677 44.9854 36.5289 45.3079C38.0165 46.1141 39.5041 45.7916 39.8346 45.6303L39.6694 37.7297L36.6941 37.4072Z" fill="#939598"/>
<path d="M50.4133 24.8307C49.7522 24.6694 49.091 24.5082 48.2646 24.5082C44.6282 24.5082 43.4712 29.829 41.8183 32.2476C41.1571 33.215 40.496 34.3437 39.8348 35.3111C39.0084 36.4398 38.8431 37.246 38.6778 38.6971C38.6778 39.1808 38.5125 39.6645 38.5125 39.987C38.3472 41.5994 37.8513 43.8567 37.5208 45.3079C38.5125 45.7916 40.0001 45.7916 40.9918 45.4691C42.3141 45.1466 43.3059 43.373 44.2976 42.4056C45.2893 41.2769 46.2811 40.3095 47.4381 39.1808C49.9174 36.7623 53.2232 32.7313 53.3885 29.0228C53.3885 26.9267 52.2315 25.4756 50.4133 24.8307Z" fill="url(#paint3_linear)"/>
<path d="M27.9338 28.0554C27.9338 27.8942 27.7685 27.4104 27.7685 27.2492C27.7685 26.7655 27.438 26.1205 26.7768 26.1205C26.2809 26.1205 26.1156 26.7655 25.6198 27.088C24.9586 27.4104 24.2975 26.9267 23.6363 27.2492C22.314 27.8942 22.1487 30.474 22.8099 31.4414C23.471 32.2476 24.628 32.7313 25.6198 33.215C26.7768 33.6987 27.2727 34.5049 28.0991 35.1499C28.0991 35.1499 30.7437 31.9251 31.0743 31.4414C30.2479 30.9577 29.5867 30.474 28.9256 29.829C28.595 29.3453 28.2644 28.7003 27.9338 28.0554Z" fill="#FF9429"/>
<path d="M49.752 50.3062C49.752 50.3062 49.5867 50.4674 49.5867 50.6287C49.4214 50.7899 49.2561 50.9512 49.2561 50.9512L49.752 51.5961C49.752 51.5961 49.752 51.2736 49.752 50.9512C49.9173 50.6287 49.752 50.3062 49.752 50.3062Z" fill="#9E8277"/>
<path d="M50.2478 49.6612C50.2478 49.6612 50.2478 49.8224 50.0825 49.9837C49.9172 50.1449 49.9172 50.3061 49.9172 50.3061C49.9172 50.3061 49.9172 50.6286 49.9172 50.9511C49.9172 51.2736 49.9172 51.5961 49.9172 51.5961C49.9172 51.5961 50.0825 51.4348 50.2478 51.2736C50.4131 51.1123 50.5784 50.9511 50.5784 50.9511C50.5784 50.9511 50.5784 50.6286 50.4131 50.3061C50.2478 49.8224 50.2478 49.6612 50.2478 49.6612Z" fill="#F2B100"/>
<path d="M50.4131 50.145C50.4131 50.4674 50.5784 50.7899 50.5784 50.7899C50.5784 50.7899 50.7437 50.6287 50.909 50.3062C51.0742 50.145 51.0742 49.8225 51.0742 49.8225L50.2478 49.5C50.2478 49.6612 50.2478 49.8225 50.4131 50.145Z" fill="#9E8277"/>
<path d="M50.4133 48.855C50.4133 48.855 50.4133 49.0163 50.4133 49.1775C50.4133 49.3388 50.248 49.5 50.248 49.5L51.0745 49.8225C51.0745 49.8225 50.9092 49.5 50.7439 49.3388C50.5786 49.0163 50.4133 48.855 50.4133 48.855Z" fill="#9E8277"/>
<path d="M50.4133 48.0488C50.4133 48.0488 50.4133 48.2101 50.4133 48.3713C50.4133 48.5325 50.4133 48.6938 50.4133 48.6938C50.4133 48.6938 50.5786 48.855 50.7439 49.1775C50.9092 49.5 51.0745 49.6612 51.0745 49.6612C51.0745 49.6612 51.2398 49.5 51.2398 49.1775C51.2398 49.0163 51.2398 48.6938 51.2398 48.6938C51.2398 48.6938 51.0745 48.3713 50.9092 48.2101C50.5786 48.2101 50.4133 48.0488 50.4133 48.0488Z" fill="#F2B100"/>
<path d="M50.4133 48.0489C50.4133 48.0489 50.5786 48.2101 50.9092 48.3713C51.0745 48.5326 51.2398 48.8551 51.2398 48.8551C51.2398 48.8551 51.2398 48.5326 51.2398 48.3713C51.2398 48.0489 51.2398 47.8876 51.2398 47.8876L50.4133 48.0489Z" fill="#9E8277"/>
<path d="M50.5784 47.5652C50.2478 47.4039 50.0825 47.2427 50.0825 47.2427C50.0825 47.2427 50.0825 47.4039 50.2478 47.5652C50.2478 47.7264 50.4131 47.8876 50.4131 47.8876L51.2395 47.7264C51.0743 48.0489 50.909 47.7264 50.5784 47.5652Z" fill="#9E8277"/>
<path d="M50.909 47.0814C50.909 47.0814 50.5784 46.9202 50.2478 46.9202C49.9172 46.759 49.752 46.759 49.752 46.759C49.752 46.759 49.9172 46.9202 49.9172 47.0814C50.0825 47.2427 50.0825 47.4039 50.0825 47.4039C50.0825 47.4039 50.4131 47.5652 50.5784 47.7264C50.909 47.8876 51.0743 48.0489 51.0743 48.0489C51.0743 48.0489 51.0743 47.7264 50.909 47.5652C50.909 47.2427 50.909 47.0814 50.909 47.0814Z" fill="#F2B100"/>
<path d="M50.2478 46.2753L49.752 46.759C49.752 46.759 50.0825 46.759 50.2478 46.9202C50.5784 47.0815 50.909 47.0815 50.909 47.0815C50.909 47.0815 50.7437 46.9202 50.7437 46.5977C50.4131 46.4365 50.2478 46.2753 50.2478 46.2753Z" fill="#9E8277"/>
<path d="M49.752 46.114C49.4214 46.114 49.0908 46.114 49.0908 46.114C49.0908 46.114 49.2561 46.2752 49.4214 46.4365C49.5867 46.5977 49.752 46.759 49.752 46.759L50.4131 46.2753C50.2478 46.2753 49.9173 46.114 49.752 46.114Z" fill="#9E8277"/>
<path d="M49.5867 45.4691C49.5867 45.4691 49.2561 45.4691 48.9256 45.4691C48.595 45.4691 48.4297 45.6303 48.4297 45.6303C48.4297 45.6303 48.595 45.6303 48.7603 45.7915C48.9256 45.9528 49.0908 45.9528 49.0908 45.9528C49.0908 45.9528 49.4214 45.9528 49.752 45.9528C50.0826 45.9528 50.4132 45.9528 50.4132 45.9528C50.4132 45.9528 50.2479 45.7915 50.0826 45.6303C49.752 45.6303 49.5867 45.4691 49.5867 45.4691Z" fill="#F2B100"/>
<path d="M48.7603 44.9854L48.4297 45.7915C48.4297 45.7915 48.7603 45.6303 48.9256 45.6303C49.2561 45.6303 49.5867 45.6303 49.5867 45.6303C49.5867 45.6303 49.4214 45.4691 49.0908 45.3078C48.9256 45.1466 48.7603 44.9854 48.7603 44.9854Z" fill="#9E8277"/>
<path d="M40.1653 61.9153V62.3991L40.4959 64.9789L41.3223 70.6222C41.3223 71.7508 44.6281 72.7183 48.595 72.7183C52.562 72.7183 55.8678 71.7508 55.8678 70.6222L56.5289 65.3013L56.8595 62.8828V62.5603V62.0766H40.1653V61.9153Z" fill="#B1CADD"/>
<path d="M39.835 61.2704C39.835 61.4316 40.0002 61.7541 40.3308 61.9153V62.399C41.4879 63.2052 44.7936 63.8502 48.7606 63.8502C52.7275 63.8502 56.0333 63.2052 57.1903 62.399V61.9153C57.5209 61.7541 57.6862 61.4316 57.6862 61.2704V59.3355H39.835V61.2704Z" fill="#C3D9ED"/>
<path d="M39.835 61.2703C39.835 61.4316 40.0002 61.754 40.3308 61.9153C41.4879 62.7215 44.7936 63.3664 48.7606 63.3664C52.7275 63.3664 56.0333 62.7215 57.1903 61.9153C57.5209 61.754 57.6862 61.4316 57.6862 61.2703V59.013H39.835V61.2703Z" fill="#C3D9ED"/>
<path d="M48.7606 56.9169C43.8019 56.9169 39.835 57.8844 39.835 59.013V59.1743C40.0003 59.3355 40.1655 59.658 40.6614 59.8192C41.9837 60.4642 45.1242 61.1091 48.7606 61.1091C52.3969 61.1091 55.5374 60.6254 56.8598 59.8192C57.1903 59.658 57.5209 59.3355 57.6862 59.1743V59.013C57.5209 57.8844 53.554 56.9169 48.7606 56.9169Z" fill="#B3D1E0"/>
<path d="M48.7606 57.2394C44.1325 57.2394 40.3308 58.0456 39.835 59.1743C40.0003 59.3355 40.1655 59.658 40.6614 59.8192C41.9837 60.4642 45.1242 61.1091 48.7606 61.1091C52.3969 61.1091 55.5374 60.6254 56.8598 59.8192C57.1903 59.658 57.5209 59.3355 57.6862 59.1743C57.1903 58.2069 53.3887 57.2394 48.7606 57.2394Z" fill="#A3C3D6"/>
<path d="M48.7603 58.6906C45.1239 58.6906 41.9834 59.1743 40.8264 59.9805C42.1487 60.6254 44.7934 60.9479 47.9339 61.1091C48.4297 61.2704 48.4297 61.5928 48.4297 62.0765C48.4297 62.2378 48.4297 62.399 48.4297 62.5603C48.4297 63.044 48.595 64.3339 49.0909 64.1726C49.4215 64.1726 49.4215 63.6889 49.4215 63.2052C49.4215 63.044 49.4215 63.044 49.4215 62.8827C49.4215 62.5603 49.752 62.7215 49.752 62.8827C49.9173 63.2052 49.9173 63.5277 49.9173 63.8502C49.9173 64.1726 49.9173 64.6563 49.9173 64.8176C49.9173 65.1401 49.9173 65.4625 50.2479 65.6238C50.7438 65.9462 51.5702 65.6238 51.4049 64.4951V64.3339C51.4049 64.0114 51.2396 63.8502 51.2396 63.5277C51.2396 63.2052 51.5702 63.044 51.9008 63.2052C52.0661 63.5277 51.9008 64.1726 52.2314 64.3339C52.562 64.4951 52.8925 64.3339 53.0578 64.0114C53.2231 63.8502 53.2231 63.5277 53.2231 63.3664C53.2231 63.2052 53.2231 63.2052 53.2231 63.044C53.2231 62.7215 53.3884 62.5603 53.719 62.5603C54.0496 62.5603 54.0496 63.2052 54.3801 63.3664C54.7107 63.5277 54.876 63.2052 55.0413 62.8827C55.0413 62.5603 55.0413 62.399 55.2066 62.0765C55.3719 61.7541 55.7024 61.5928 55.8677 61.7541C56.033 61.9153 56.3636 62.5603 56.5289 62.0765C56.6942 61.7541 56.6942 61.4316 56.6942 60.9479C56.6942 60.7866 56.6942 60.6254 56.6942 60.4642C56.6942 60.3029 56.6942 60.3029 56.6942 60.3029C56.6942 60.3029 56.6942 60.3029 56.8595 60.3029C56.8595 60.1417 56.8595 60.1417 56.8595 60.1417C57.0248 60.1417 57.0248 60.1417 57.19 59.9805C55.3719 59.1743 52.3967 58.6906 48.7603 58.6906Z" fill="#C3D9ED"/>
<path d="M40.6614 59.8192C40.6614 59.8192 40.8267 59.8192 40.8267 59.9805C42.149 60.6254 44.7936 60.9479 47.9341 61.1091C48.43 61.2704 48.43 61.5928 48.43 62.0766V62.2378C48.43 62.399 48.43 62.399 48.43 62.5603C48.43 63.2052 48.5953 64.0114 49.0911 64.0114C49.4217 64.0114 49.4217 63.6889 49.4217 63.2052C49.4217 63.044 49.4217 63.044 49.4217 62.8827C49.4217 62.7215 49.4217 62.7215 49.4217 62.5603C49.4217 62.2378 49.7523 62.2378 49.7523 62.5603C49.9176 63.044 49.9176 63.5277 49.9176 63.8502C49.9176 64.3339 49.9176 64.6564 49.9176 64.8176C49.9176 64.9788 50.0829 65.3013 50.2482 65.3013C50.5787 65.6238 51.4052 65.3013 51.4052 64.4951C51.4052 64.3339 51.4052 64.1727 51.4052 64.0114C51.4052 63.8502 51.2399 63.6889 51.2399 63.5277C51.2399 63.3665 51.2399 63.3665 51.2399 63.2052C51.2399 62.8827 51.5705 62.7215 51.901 62.8827C52.0663 63.2052 51.901 63.8502 52.2316 64.0114C52.5622 64.1727 52.8928 64.0114 53.0581 63.6889C53.0581 63.5277 53.0581 63.3665 53.2234 63.2052C53.2234 63.044 53.2234 62.8827 53.2234 62.8827V62.7215C53.2234 62.399 53.3886 62.0766 53.7192 62.0766C54.0498 62.0766 54.0498 62.7215 54.3804 62.8827C54.711 63.044 54.8762 62.7215 55.0415 62.399C55.0415 62.0766 55.0415 61.9153 55.2068 61.5928C55.3721 61.2704 55.7027 61.1091 55.868 61.2704C56.0333 61.4316 56.3639 62.0766 56.5291 61.5928C56.6944 61.2704 56.6944 61.1091 56.6944 60.7867C56.6944 60.6254 56.6944 60.3029 56.6944 60.1417C56.6944 59.9805 56.6944 59.9805 56.6944 59.9805C56.8597 59.9805 56.8597 59.9805 57.025 59.8192C57.025 59.8192 57.1903 59.8192 57.1903 59.658C56.3638 58.8518 53.0581 58.2068 49.0911 58.2068C44.7936 58.3681 41.4878 59.013 40.6614 59.8192Z" fill="#1ABCC4"/>
<path d="M50.4134 58.6906C50.0828 58.6906 49.5869 58.6906 49.2563 58.6906C51.5704 58.8518 53.2233 59.1743 53.2233 59.658C53.2233 60.1417 51.5704 60.6254 49.2563 60.6254C49.5869 60.6254 50.0828 60.6254 50.4134 60.6254C53.2233 60.6254 55.5373 60.1417 55.5373 59.658C55.5373 59.1743 53.2233 58.6906 50.4134 58.6906Z" fill="#25CCCC"/>
<path d="M54.215 51.5961C48.2645 47.4039 40.0001 51.1124 39.5042 58.3681C39.5042 58.5293 39.3389 58.8518 39.6695 58.8518C40.0001 58.8518 39.8348 58.6906 40.1654 57.5619C41.9836 48.6938 53.8844 48.2101 56.8596 55.9495C57.8513 58.6906 57.3554 58.8518 57.5207 59.1743C58.1819 59.1743 58.1819 54.3371 54.215 51.5961Z" fill="#95989E"/>
<path d="M10.7438 29.5065C10.2479 29.5065 9.58673 29.5065 9.09086 29.8289C8.76028 30.1514 8.4297 30.7964 8.59499 31.2801C8.76028 31.7638 9.42144 32.2475 9.75202 32.57C10.0826 33.0537 10.7438 33.5374 11.2396 33.5374C11.9008 33.5374 12.5619 33.0537 13.0578 32.57C13.2231 32.4087 14.0495 31.2801 13.8842 31.2801L11.5702 29.3452C11.5702 29.3452 10.909 29.5065 10.7438 29.5065Z" fill="#E2791A"/>
<path d="M13.5536 29.0228C12.8925 28.7003 11.9008 28.3778 11.2396 28.539C10.4132 28.7003 9.25613 29.184 8.59497 29.8289C9.09084 31.1188 10.7437 29.3452 11.7355 29.8289C12.2313 30.1514 13.0578 31.1188 13.2231 31.6026C13.3884 31.925 13.0578 32.0863 12.7272 32.2475C13.0578 33.2149 13.0578 34.3436 13.2231 35.311C13.5536 35.4723 13.8842 35.6335 14.2148 35.7947C15.2065 36.2785 16.5289 37.0846 17.5206 37.7296C18.0165 36.2785 18.1817 35.4723 18.8429 33.8599C15.5371 32.4087 15.8677 30.3127 13.5536 29.0228Z" fill="#FF9429"/>
<path d="M7.43799 30.474L7.76857 31.7639H9.25617L8.92559 30.1515L7.43799 30.474Z" fill="#634251"/>
<path d="M13.3883 29.184L8.92554 30.1515L9.25612 31.7638L13.8842 31.2801C14.5454 31.1189 14.8759 30.6352 14.8759 30.3127L14.7107 29.829C14.7107 29.3453 14.2148 29.0228 13.3883 29.184ZM13.5536 30.6352C13.2231 30.6352 13.0578 30.4739 13.0578 30.3127C13.0578 30.1515 13.2231 29.829 13.5536 29.829C13.8842 29.829 14.0495 29.9902 14.0495 30.1515C14.0495 30.3127 13.8842 30.6352 13.5536 30.6352Z" fill="#745260"/>
<path d="M0.991729 28.8615H0.495862C0.495862 28.8615 0.495862 29.0228 0.330572 29.0228C0.330572 29.184 0.165283 29.3452 0.165283 29.5065L0.991729 34.8273L1.15702 34.9886L1.32231 35.1498L2.31404 34.9886L3.30578 34.8273L3.63636 34.6661L7.27272 33.8599L6.44628 28.5391L0.991729 28.8615Z" fill="#ECBB1A"/>
<path d="M1.32224 34.9886C1.32224 34.9886 1.15695 34.9886 1.32224 34.9886L5.61976 33.8599L1.32224 34.5049C1.32224 34.6661 1.32224 34.8274 1.32224 34.9886Z" fill="#C79E16"/>
<path d="M0.661133 33.5375L4.13221 32.7313L0.661133 33.215V33.5375Z" fill="#C79E16"/>
<path d="M0.49585 32.57L4.95866 31.6025L0.49585 32.0862V32.57Z" fill="#C79E16"/>
<path d="M0.330572 31.1189L3.96694 30.3127L0.165283 30.6352L0.330572 31.1189Z" fill="#C79E16"/>
<path d="M0.165227 29.3452C-6.25513e-05 29.3452 -6.25513e-05 29.3452 0.165227 29.3452V29.6677L4.46275 29.0228L0.165227 29.184C0.165227 29.184 0.165227 29.184 0.165227 29.3452Z" fill="#C79E16"/>
<path d="M2.31405 33.8599C2.31405 33.8599 2.14876 33.8599 2.14876 33.6986C1.98347 33.3762 3.96694 32.8925 3.80165 32.4087C3.80165 32.0863 3.1405 31.925 2.80992 31.925C2.64463 31.925 1.98347 31.925 1.81818 31.6026C1.65289 31.2801 1.98347 31.2801 2.14876 31.1188C2.31405 30.9576 2.31405 30.7964 2.14876 30.6351C1.98347 30.3127 1.4876 30.4739 1.15702 30.3127L0.991736 30.1514C0.991736 29.9902 1.32231 29.8289 1.4876 29.6677C1.81818 29.3452 1.65289 29.184 1.32231 29.0227C1.32231 29.0227 1.15702 29.0227 0.991736 28.8615H0V29.0227L0.991736 34.8273L1.15702 34.9885L1.32231 35.1498L2.14876 34.9885L3.30579 34.8273L3.63636 34.6661C3.63636 34.6661 3.63636 34.6661 3.80165 34.6661C4.29752 34.1824 3.47107 34.0211 2.31405 33.8599Z" fill="#B7922C"/>
<path d="M2.14876 33.8599C2.14876 33.8599 1.98347 33.8599 1.98347 33.6986C1.81818 33.3762 3.80165 32.8925 3.63636 32.4087C3.63636 32.0863 2.97521 31.925 2.64463 31.925C2.47934 31.925 1.81818 31.925 1.65289 31.6026C1.4876 31.2801 1.81818 31.2801 1.98347 31.1188C2.14876 30.9576 2.14876 30.7964 1.98347 30.6351C1.81818 30.3127 1.32231 30.4739 0.991736 30.3127L0.826446 30.1514C0.826446 29.9902 1.15702 29.8289 1.32231 29.6677C1.81818 29.3452 1.65289 29.0227 1.32231 29.0227C1.32231 29.0227 1.15702 29.0227 0.991736 28.8615H0.330579C0.165289 29.0227 0 29.184 0 29.3452L0.991736 34.9885C0.991736 35.1498 1.15702 35.311 1.32231 35.311L2.31405 35.1498L3.30578 34.8273C3.47107 34.8273 3.47107 34.6661 3.47107 34.6661C4.13223 34.1824 3.1405 34.0211 2.14876 33.8599Z" fill="#17C5CC"/>
<path d="M0.99173 28.8615H0.495862C0.495862 28.8615 0.495862 29.0228 0.330572 29.0228C0.330572 29.184 0.165283 29.3452 0.165283 29.5065L0.99173 34.8273L1.15702 34.9886L6.44628 28.3778L0.99173 28.8615Z" fill="#939598"/>
<path d="M6.11572 28.5391L6.94217 33.8599C7.60333 33.6987 8.09919 33.3762 8.09919 33.215L7.43804 28.7003C7.27275 28.5391 6.77688 28.3778 6.11572 28.5391Z" fill="#745260"/>
<path d="M12.562 32.0862C12.562 32.0862 12.3967 32.0862 12.562 32.0862C12.3967 32.0862 12.3967 32.0862 12.3967 32.0862C11.7356 31.925 10.7438 30.9576 10.0827 30.9576C9.09094 31.1188 9.7521 31.925 10.248 32.2475C10.9091 32.8924 11.5703 33.3761 12.0661 34.1823C12.3967 34.5048 12.7273 34.8273 13.0579 34.9885C13.0579 34.1823 12.8926 33.0537 12.562 32.0862Z" fill="#FF9429"/>
<path d="M49.0908 46.9202C49.0908 46.9202 48.9255 47.2426 48.9255 47.5651C48.9255 47.8876 48.9255 48.2101 48.9255 48.2101C48.9255 48.2101 49.0908 48.0488 49.2561 47.8876C49.4214 47.7264 49.5867 47.5651 49.5867 47.5651L49.0908 46.9202Z" fill="#9E8277"/>
<path d="M48.2644 47.7264C48.2644 47.7264 48.2644 48.0488 48.2644 48.3713C48.2644 48.6938 48.4297 49.0163 48.4297 49.0163C48.4297 49.0163 48.4297 48.855 48.595 48.5325C48.7603 48.3713 48.7603 48.2101 48.7603 48.2101C48.7603 48.2101 48.7603 47.8876 48.7603 47.5651C48.7603 47.2426 48.9256 46.9202 48.9256 46.9202C48.9256 46.9202 48.7603 47.0814 48.4297 47.2426C48.4297 47.4039 48.2644 47.7264 48.2644 47.7264Z" fill="#F2B100"/>
<path d="M48.2644 47.7263C48.2644 47.7263 48.0991 47.8876 47.9338 48.21C47.7686 48.5325 47.7686 48.6937 47.7686 48.6937L48.595 49.0162C48.595 49.0162 48.4297 48.6937 48.4297 48.3713C48.2644 48.0488 48.2644 47.7263 48.2644 47.7263Z" fill="#9E8277"/>
<path d="M47.6033 48.6938V48.855C47.6033 49.0163 47.7686 49.1775 47.7686 49.3387C47.7686 49.5 47.9339 49.6612 47.9339 49.6612C47.9339 49.8225 48.0991 49.8225 48.0991 49.8225C48.0991 49.8225 48.0991 49.6612 48.0991 49.3387C48.0991 49.1775 48.2644 48.855 48.2644 48.855L47.6033 48.6938Z" fill="#9E8277"/>
<path d="M48.2644 49.8225C48.0991 49.6612 47.9339 49.5 47.9339 49.3387C47.9339 49.1775 47.7686 49.0163 47.7686 48.855C47.7686 48.6938 47.7686 48.6938 47.7686 48.6938C47.7686 48.6938 47.6033 49.0163 47.6033 49.3387C47.6033 49.6612 47.6033 49.9837 47.6033 49.9837C47.6033 49.9837 47.7686 50.3062 48.0991 50.4674C48.2644 50.6286 48.595 50.7899 48.595 50.7899C48.595 50.7899 48.595 50.6286 48.4297 50.3062C48.2644 50.1449 48.2644 49.8225 48.2644 49.8225Z" fill="#F2B100"/>
<path d="M47.438 49.8224C47.438 49.8224 47.438 50.1449 47.438 50.4674C47.438 50.7899 47.6033 51.1124 47.6033 51.1124L48.4297 50.7899C48.4297 50.7899 48.0991 50.6286 47.9339 50.4674C47.7686 50.1449 47.438 49.8224 47.438 49.8224Z" fill="#9E8277"/>
<path d="M48.4297 50.7899L47.6033 51.1124C47.6033 51.1124 47.9339 51.2736 48.2644 51.4349C48.595 51.5961 48.9256 51.5961 48.9256 51.5961C48.9256 51.5961 48.7603 51.4349 48.595 51.2736C48.595 50.9512 48.4297 50.7899 48.4297 50.7899Z" fill="#9E8277"/>
<path d="M48.9256 51.5961C48.9256 51.5961 48.595 51.5961 48.2644 51.4349C47.9339 51.2737 47.6033 51.1124 47.6033 51.1124C47.6033 51.1124 47.7686 51.4349 47.7686 51.5961C47.9339 51.9186 48.0991 52.0799 48.0991 52.0799H48.2644C48.4297 52.0799 48.595 52.0799 48.7603 52.2411C48.9256 52.2411 49.0909 52.2411 49.2562 52.2411C49.4215 52.2411 49.4215 52.2411 49.4215 52.2411C49.4215 52.2411 49.2562 52.0799 49.0909 51.9186C49.0909 51.7574 48.9256 51.5961 48.9256 51.5961Z" fill="#F2B100"/>
<path d="M48.9256 52.2411C48.7603 52.2411 48.595 52.2411 48.4297 52.0798C48.2644 52.0798 48.2644 52.0798 48.2644 52.0798C48.2644 52.0798 48.4297 52.2411 48.595 52.5635C48.7603 52.7248 49.0908 52.886 49.0908 52.886L49.5867 52.2411C49.5867 52.2411 49.5867 52.2411 49.4214 52.2411C49.2561 52.2411 49.0908 52.2411 48.9256 52.2411Z" fill="#9E8277"/>
<path d="M49.4214 51.5961C49.5867 51.7574 49.752 51.7574 49.752 51.9186C49.752 52.0798 49.752 52.2411 49.5867 52.4023C49.5867 52.5636 49.4214 52.5636 49.4214 52.5636C49.4214 52.5636 49.752 52.4023 50.0825 52.2411C50.2478 52.0798 50.2478 51.9186 50.2478 51.7574V51.5961H49.4214Z" fill="#9E8277"/>
<path d="M49.4214 51.5961C49.4214 51.5961 49.4214 51.7574 49.4214 51.5961C49.2561 51.7574 49.2561 51.7574 49.2561 51.7574C49.2561 51.7574 49.2561 51.7574 49.2561 51.9186C49.2561 52.0798 49.0908 52.0798 48.9256 52.2411C48.7603 52.2411 48.595 52.4023 48.4297 52.4023C48.2644 52.4023 48.2644 52.4023 48.2644 52.4023C48.2644 52.4023 48.2644 52.4023 48.4297 52.5636C48.595 52.5636 48.595 52.7248 48.7603 52.7248C48.9256 52.7248 49.0908 52.7248 49.2561 52.7248C49.4214 52.7248 49.4214 52.7248 49.4214 52.7248C49.4214 52.7248 49.4214 52.7248 49.5867 52.5636C49.5867 52.4023 49.752 52.2411 49.752 52.0798C49.752 51.9186 49.5867 51.7574 49.4214 51.5961Z" fill="#F2B100"/>
<path d="M48.9256 51.9186C48.7603 51.9186 48.595 51.7573 48.595 51.7573L48.0991 52.4023H48.2644C48.4297 52.4023 48.595 52.4023 48.7603 52.241C48.9256 52.241 48.9256 52.0798 49.0909 51.9186C49.0909 51.7573 49.0909 51.7573 49.0909 51.7573C49.0909 51.9186 48.9256 51.9186 48.9256 51.9186Z" fill="#9E8277"/>
<path d="M48.4297 51.7574C48.2644 51.7574 48.0992 51.7574 47.9339 51.7574C47.6033 51.7574 47.2727 51.5961 47.2727 51.5961C47.2727 51.5961 47.2727 51.5961 47.438 51.7574C47.438 51.7574 47.6033 51.9186 47.6033 52.0798C47.7686 52.2411 47.7686 52.2411 47.9339 52.4023C48.0992 52.4023 48.0992 52.5636 48.0992 52.5636L48.595 51.9186C48.595 51.7574 48.595 51.7574 48.4297 51.7574Z" fill="#9E8277"/>
<path d="M48.0992 51.2736C48.0992 51.2736 48.0992 51.1124 48.0992 51.2736C48.0992 51.1124 47.7686 51.1124 47.438 50.9511C47.1074 50.7899 46.7769 50.6287 46.7769 50.6287C46.7769 50.6287 46.9421 50.7899 46.9421 51.1124C47.1074 51.2736 47.2727 51.5961 47.2727 51.5961C47.2727 51.5961 47.6033 51.7573 47.9339 51.7573C48.0992 51.7573 48.2645 51.7573 48.4297 51.7573C48.595 51.7573 48.595 51.7573 48.595 51.7573C48.595 51.7573 48.4298 51.5961 48.2645 51.4349C48.2645 51.4349 48.2645 51.4349 48.0992 51.2736Z" fill="#F2B100"/>
<path d="M47.6033 50.4675L46.9421 50.7899C46.9421 50.7899 47.2727 50.9512 47.6033 51.1124C47.9339 51.2737 48.2645 51.2737 48.2645 51.2737C48.2645 51.2737 48.0992 51.1124 48.0992 50.9512C47.7686 50.6287 47.6033 50.4675 47.6033 50.4675Z" fill="#9E8277"/>
<path d="M46.6116 49.8224C46.6116 49.8224 46.6116 50.1449 46.7769 50.3062C46.7769 50.6286 46.9421 50.7899 46.9421 50.7899L47.7686 50.4674C47.7686 50.4674 47.438 50.3062 47.2727 50.1449C46.7769 49.9837 46.6116 49.8224 46.6116 49.8224Z" fill="#9E8277"/>
<path d="M47.438 49.6612C47.438 49.6612 47.2727 49.5 46.9422 49.3388C46.7769 49.1775 46.4463 48.855 46.4463 48.855C46.4463 48.855 46.4463 49.1775 46.4463 49.3388C46.4463 49.6612 46.4463 49.8225 46.4463 49.8225C46.4463 49.8225 46.7769 49.9837 46.9422 50.1449C47.2727 50.3062 47.438 50.4674 47.438 50.4674C47.438 50.4674 47.2727 50.3062 47.2727 50.1449C47.438 49.8225 47.438 49.6612 47.438 49.6612Z" fill="#F2B100"/>
<path d="M47.2727 48.855H46.4463C46.4463 48.855 46.6116 49.1775 46.9422 49.3388C47.1074 49.5 47.438 49.6612 47.438 49.6612C47.438 49.6612 47.438 49.5 47.438 49.1775C47.2727 49.0163 47.2727 48.855 47.2727 48.855Z" fill="#9E8277"/>
<path d="M46.6116 47.7264C46.6116 47.7264 46.6116 48.0489 46.4463 48.2101C46.4463 48.5326 46.4463 48.6938 46.4463 48.6938H47.2727C47.2727 48.6938 47.1074 48.5326 46.9422 48.2101C46.7769 48.0489 46.6116 47.7264 46.6116 47.7264Z" fill="#9E8277"/>
<path d="M46.9422 46.759C46.9422 46.759 46.7769 46.9202 46.7769 47.2427C46.6116 47.4039 46.6116 47.7264 46.6116 47.7264C46.6116 47.7264 46.7769 48.0489 46.9422 48.2101C47.1074 48.5326 47.2727 48.6938 47.2727 48.6938C47.2727 48.6938 47.2727 48.5326 47.2727 48.2101C47.2727 48.0489 47.2727 47.7264 47.2727 47.7264C47.2727 47.7264 47.1074 47.4039 46.9422 47.2427C46.9422 47.0814 46.9422 46.759 46.9422 46.759Z" fill="#F2B100"/>
<path d="M47.1074 47.4039C47.2727 47.7264 47.438 47.8876 47.438 47.8876C47.438 47.8876 47.438 47.7264 47.6033 47.4039C47.6033 47.2427 47.7686 47.0814 47.7686 47.0814L46.9421 46.759C46.9421 46.759 46.9421 47.0814 47.1074 47.4039Z" fill="#9E8277"/>
<path d="M47.438 45.9528C47.438 45.9528 47.2727 46.1141 47.1074 46.4365C46.9421 46.5978 46.9421 46.9202 46.9421 46.9202L47.6033 47.2427C47.6033 47.2427 47.438 46.9202 47.438 46.5978C47.438 46.2753 47.438 45.9528 47.438 45.9528Z" fill="#9E8277"/>
<path d="M48.2644 45.1466C48.2644 45.1466 48.0991 45.3078 47.9339 45.4691C47.7686 45.6303 47.6033 45.7916 47.6033 45.7916C47.6033 45.7916 47.6033 46.114 47.6033 46.4365C47.6033 46.759 47.7686 47.0815 47.7686 47.0815C47.7686 47.0815 47.9339 46.9202 47.9339 46.759C48.0991 46.5977 48.0991 46.4365 48.0991 46.4365C48.0991 46.4365 48.0991 46.114 48.0991 45.7916C48.0991 45.4691 48.2644 45.1466 48.2644 45.1466Z" fill="#F2B100"/>
<path d="M48.0991 45.7916C48.0991 46.114 48.0991 46.4365 48.0991 46.4365C48.0991 46.4365 48.2644 46.2753 48.4297 46.114C48.595 45.9528 48.7603 45.7916 48.7603 45.7916L48.2644 45.1466C48.2644 45.1466 48.0991 45.4691 48.0991 45.7916Z" fill="#9E8277"/>
<path d="M40.9919 4.83712C38.5125 5.64331 37.1902 6.93321 36.5291 8.06187C36.1985 8.70682 36.0332 9.35177 36.0332 9.99673C36.0332 9.99673 46.1158 12.7378 50.2481 12.0928C50.2481 11.7703 50.2481 11.2866 50.2481 10.6417C50.0828 7.90063 47.7687 3.22474 40.9919 4.83712Z" fill="url(#paint4_linear)"/>
<path d="M36.5291 8.06189C36.1985 8.70684 36.0332 9.35179 36.0332 9.99674C36.0332 9.99674 46.1158 12.7378 50.2481 12.0928C50.2481 11.7704 50.2481 11.2866 50.2481 10.6417C46.4464 10.8029 39.339 8.70684 36.5291 8.06189Z" fill="#385566"/>
<defs>
<linearGradient id="paint0_linear" x1="39.408" y1="25.0451" x2="43.3154" y2="25.0451" gradientUnits="userSpaceOnUse">
<stop stop-color="#BABBBD"/>
<stop offset="1" stop-color="#848689"/>
</linearGradient>
<linearGradient id="paint1_linear" x1="35.377" y1="34.8904" x2="55.4503" y2="34.8904" gradientUnits="userSpaceOnUse">
<stop stop-color="#FFCF4D"/>
<stop offset="1" stop-color="#F4B042"/>
</linearGradient>
<linearGradient id="paint2_linear" x1="39.4716" y1="26.2547" x2="59.8965" y2="26.2547" gradientUnits="userSpaceOnUse">
<stop stop-color="#BABBBD"/>
<stop offset="1" stop-color="#848689"/>
</linearGradient>
<linearGradient id="paint3_linear" x1="35.0138" y1="20.8524" x2="46.4583" y2="38.9395" gradientUnits="userSpaceOnUse">
<stop stop-color="#FFCB3D"/>
<stop offset="1" stop-color="#F4A72C"/>
</linearGradient>
<linearGradient id="paint4_linear" x1="48.9724" y1="7.58332" x2="40.2126" y2="10.2153" gradientUnits="userSpaceOnUse">
<stop stop-color="#4E728A"/>
<stop offset="0.9309" stop-color="#395B73"/>
</linearGradient>
</defs>
</svg>
