<svg width="46" height="111" viewBox="0 0 46 111" fill="none" xmlns="http://www.w3.org/2000/svg">
<g clip-path="url(#clip0)">
<path d="M4.16757 38.7387C5.32668 42.1821 11.6172 48.1195 12.4898 48.7145C12.4898 48.7145 13.9615 46.3345 13.6619 45.0052C13.4275 43.9165 10.966 40.0553 10.1325 38.1563C10.0934 38.055 10.0543 37.9664 10.0153 37.8778C9.89804 37.5866 9.84594 37.3588 9.85896 37.2322C9.89804 36.8144 11.2395 35.8143 12.7893 34.6243C14.808 33.0798 17.1914 31.2061 17.5821 29.9275C18.2593 27.6488 20.6296 18.6224 20.6296 18.6224C20.6296 18.6224 14.7429 19.8631 13.0889 21.281C11.4218 22.6989 4.29781 34.5736 3.99826 37.6119C3.95919 37.9411 4.0243 38.3209 4.16757 38.7387Z" fill="#FA7269"/>
<path d="M4.16758 38.7386C5.3267 42.1821 11.6172 48.1194 12.4898 48.7144C12.4898 48.7144 13.9615 46.3344 13.6619 45.0052C13.4145 43.8658 10.7055 39.6375 10.0153 37.8651C8.96034 37.7005 6.51186 37.4853 4.16758 38.7386Z" fill="#FC9290"/>
<path d="M20.6166 17.8249V18.5212C20.6166 18.5212 20.4212 20.7113 23.1953 21.0278C25.9694 21.3443 28.0792 20.1669 28.0011 18.4832C27.7536 17.1793 27.4801 16.2804 27.4541 15.1917C27.441 14.7866 27.4801 14.3561 27.5583 13.8751L22.1794 13.7738L20.5905 14.027L20.6166 17.8249Z" fill="#FC9290"/>
<path d="M20.5905 14.027L20.6166 17.8122C21.1896 18.0654 21.8278 18.23 22.5571 18.23C25.0317 18.23 26.6336 16.4703 27.4671 15.1917C27.4541 14.7866 27.4931 14.3561 27.5713 13.8751L22.1925 13.7738L20.5905 14.027Z" fill="#EA8888"/>
<path d="M25.3572 110.949C25.3572 110.949 25.6177 108.974 26.2168 107.797C26.8159 106.62 30.6709 107.367 30.6709 107.367C30.6709 107.367 31.4393 108.012 31.6086 111L25.3572 110.949Z" fill="#060632"/>
<path d="M12.2422 110.924C13.1408 110.392 12.6329 106.392 12.6329 106.392C12.6329 106.392 8.42619 103.113 7.84012 105.62C7.26708 108.126 3.84182 109.253 1.88825 109.557C0.546803 109.772 0.130043 110.494 -0.00019455 110.924H12.2422Z" fill="#060632"/>
<path d="M20.9682 81.1866C20.7989 82.1107 20.6817 82.8577 20.6556 83.402C20.2649 90.8333 14.2219 107.81 13.1409 108.202C11.4739 108.81 8.84307 107.506 7.46255 107.088C6.88951 106.911 6.51182 106.354 6.62903 105.784C9.6245 92.4157 10.7185 73.173 11.1222 61.7793C11.3306 56.0445 12.3334 52.082 12.3334 52.082C12.3334 52.082 27.0634 48.2588 27.1545 53.0948C27.2457 57.3611 22.2836 74.1225 20.9682 81.1866Z" fill="#0B0754"/>
<path d="M20.9682 81.1866L11.1353 61.7793C11.3436 56.0445 12.3465 52.082 12.3465 52.082C12.3465 52.082 27.0764 48.2588 27.1675 53.0948C27.2457 57.3611 22.2836 74.1225 20.9682 81.1866Z" fill="#060632"/>
<path d="M17.6993 53.0947L25.4875 107.949C25.4875 107.949 28.9128 108.747 31.5696 108.114C31.5696 108.114 33.8488 78.9331 33.6534 71.8817C33.4581 64.8302 35.2944 53.0061 33.2366 51.7022C31.1789 50.4109 17.6993 53.0947 17.6993 53.0947Z" fill="#0B0754"/>
<path d="M11.9296 53.1961C11.9296 53.1961 15.9019 55.4495 21.6714 55.3862C23.9246 55.3609 25.8781 55.1963 27.5321 54.9558C32.1556 54.2848 34.4868 53.0315 34.4738 52.5631C34.4608 52.1453 34.4217 50.7401 34.3696 50.1451C33.6403 41.9163 34.018 35.5105 33.0282 30.6998C33.0152 30.6365 33.0021 30.5859 32.9891 30.5226C31.6867 24.408 29.629 20.8886 28.6131 19.4454C28.2354 18.9137 28.014 18.4706 28.014 18.4706C28.014 19.61 25.5004 20.8 23.4557 20.6607C21.7366 20.5468 20.6295 19.2808 20.6295 18.5972C20.4863 18.5972 12.8804 23.737 12.8804 28.5097C12.8413 49.9299 11.4999 53.2087 11.9296 53.1961Z" fill="#FA7269"/>
<path d="M27.5191 54.8924C27.5191 54.9177 27.5321 54.943 27.5321 54.9683C32.1556 54.2974 34.4868 53.0441 34.4738 52.5757C34.4608 52.1579 34.4217 50.7527 34.3696 50.1577C33.6403 41.9289 34.018 35.5231 33.0282 30.7124C30.5927 33.852 25.6046 42.1061 27.5191 54.8924Z" fill="#E85E5C"/>
<path d="M14.8602 44.6634L15.4853 46.6763L16.0974 48.6765L42.9134 40.8149C42.9524 40.8149 42.9915 40.8149 43.0176 40.8022C43.0566 40.7895 43.0827 40.7769 43.1218 40.7516C43.4604 40.5237 43.5255 39.6628 43.265 38.7133C43.252 38.6627 43.239 38.6121 43.2129 38.5488C42.9003 37.5107 42.3273 36.7511 41.8975 36.7511C41.8584 36.7511 41.8324 36.7511 41.7933 36.7638C41.7543 36.7764 41.7282 36.7891 41.6891 36.8144L14.8602 44.6634Z" fill="#DDE8FD"/>
<path d="M15.4723 46.6637L16.0844 48.6639L42.9134 40.8149C42.9524 40.8149 42.9915 40.8149 43.0176 40.8022C43.0566 40.7896 43.0827 40.7769 43.1218 40.7516C43.4604 40.5237 43.5255 39.6629 43.265 38.7134C42.171 39.5109 36.9355 43.0556 28.0011 44.7647C18.7543 46.5497 15.902 46.6637 15.4723 46.6637Z" fill="#ED6966"/>
<path d="M14.6127 46.9042C14.9513 48.0183 15.5895 48.8158 16.0453 48.6892C16.4881 48.5626 16.5793 47.5498 16.2407 46.4358C15.902 45.3217 15.2639 44.5242 14.808 44.6508C14.3522 44.7774 14.261 45.7902 14.6127 46.9042Z" fill="#98B7F5"/>
<path d="M16.996 39.9413L17.3346 42.0175L17.6732 44.0684L45.3227 39.7008C45.3618 39.7135 45.4008 39.7135 45.4399 39.7008C45.479 39.7008 45.518 39.6881 45.5441 39.6628C45.5441 39.6628 45.5571 39.6628 45.5571 39.6502C45.7394 39.5489 45.8827 39.283 45.9478 38.9032C46.0129 38.5488 46.026 38.1183 45.9608 37.6499C45.9478 37.5993 45.9478 37.536 45.9348 37.4854C45.7655 36.4219 45.2966 35.5991 44.8669 35.5358C44.8278 35.5358 44.8017 35.5358 44.7627 35.5358C44.7236 35.5358 44.6975 35.5484 44.6585 35.5737L41.4937 36.0675L16.996 39.9413Z" fill="#DDE8FD"/>
<path d="M17.3476 42.0175L17.6862 44.0684L45.3227 39.7008C45.3618 39.7135 45.4008 39.7135 45.4399 39.7008C45.479 39.7008 45.518 39.6881 45.5441 39.6628C45.5441 39.6628 45.5571 39.6628 45.5571 39.6502C45.6483 39.5869 45.8046 39.3083 45.9478 38.9032C46.0129 38.5488 46.026 38.1183 45.9608 37.6499C45.9478 37.5993 45.9478 37.536 45.9348 37.4854C45.7655 36.4219 45.2966 35.5991 44.8669 35.5358C44.8278 35.5358 44.8017 35.5358 44.7627 35.5358C44.7236 35.5358 44.6975 35.5484 44.6585 35.5737L41.4937 36.0675C39.0452 38.3082 35.9195 41.3466 30.0067 41.7137C20.6166 42.3087 17.7644 42.0555 17.3476 42.0175Z" fill="#ED6966"/>
<path d="M16.449 42.1314C16.6313 43.2834 17.1653 44.157 17.6211 44.081C18.077 44.0051 18.3114 43.0176 18.116 41.8656C17.9337 40.7135 17.3997 39.84 16.9439 39.916C16.4881 39.9919 16.2667 40.9794 16.449 42.1314Z" fill="#98B7F5"/>
<path d="M26.7768 47.8283C33.1845 46.8408 37.4303 44.2203 39.1624 42.9669C39.7615 42.5365 40.0611 42.258 40.0611 42.258C43.3431 35.5484 37.4042 23.7749 36.3232 21.7747C35.1511 19.6225 28.0011 18.4832 28.0011 18.4832C28.0011 18.4832 29.1341 21.9519 29.5769 26.2055C30.0197 30.4719 34.7864 38.7639 34.5911 39.4729C34.539 39.6501 33.9659 40.0172 33.1324 40.4856C30.6449 41.8656 26.1126 44.752 25.8131 45.271C25.4223 45.9673 26.7768 47.8283 26.7768 47.8283Z" fill="#FC9290"/>
<path d="M29.5769 26.2056C30.0197 30.4719 34.7864 38.7639 34.5911 39.4729C34.539 39.6501 33.9659 40.0173 33.1324 40.4857C33.1845 40.4857 33.2366 40.4857 33.2887 40.4857C37.0396 40.3211 38.7326 42.334 39.1624 42.967C39.7615 42.5365 40.0611 42.258 40.0611 42.258C43.3431 35.5484 37.4042 23.7749 36.3232 21.7747C35.1511 19.6225 28.001 18.4832 28.001 18.4832C28.001 18.4832 29.1341 21.9519 29.5769 26.2056Z" fill="#FA7269"/>
<path d="M20.278 15.8753C20.278 15.8753 27.1676 17.2299 27.9621 13.0396C28.7565 8.86187 30.1891 6.216 25.8262 5.1779C21.4632 4.13981 20.3041 5.58301 19.6789 6.91228C19.0798 8.24154 18.5068 15.4069 20.278 15.8753Z" fill="#FC9290"/>
<path d="M27.8318 14.2422C27.8318 14.2422 29.1602 11.4824 30.2803 10.2544C31.3873 9.02639 30.7882 2.88645 25.9824 3.089C21.1767 3.29156 19.4705 6.62105 19.4185 7.2667C19.3664 7.89968 23.2605 7.41861 24.3154 8.25415C25.3703 9.08969 24.3675 10.4569 25.5787 10.9507C26.7899 11.4444 27.7537 11.4444 27.5453 12.5205C27.3499 13.5965 27.8318 14.2422 27.8318 14.2422Z" fill="#060632"/>
<path d="M17.9206 6.57043C17.9206 6.57043 20.4863 7.44394 21.3849 7.50724C21.6584 7.5199 25.6307 7.79842 25.6307 7.79842L31.4523 8.79853C31.4523 8.79853 32.5854 4.59552 29.7462 1.96231C29.6811 1.89901 29.6029 1.83571 29.5248 1.77241C28.7564 1.12677 27.7275 0.595062 26.36 0.253251C19.4053 -1.4558 17.9596 6.32989 17.9206 6.57043Z" fill="#FA7269"/>
<path d="M21.3199 7.38059L22.4139 7.51985C23.2734 6.41845 26.4512 2.58257 29.7983 2.01289C29.7723 1.98757 29.7593 1.96225 29.7462 1.93693C29.6941 1.87363 29.6421 1.83565 29.5639 1.73438C29.5509 1.73438 29.5379 1.73438 29.5248 1.74703C25.24 2.75981 22.0362 6.40579 21.3199 7.38059Z" fill="#E85E5C"/>
<path d="M25.6437 7.78577C25.6437 7.78577 26.3991 8.60865 26.5944 9.39355C26.7898 10.1911 30.5667 10.6595 30.8272 10.2544C31.0876 9.84929 31.4653 8.78588 31.4653 8.78588L25.6437 7.78577Z" fill="#FA7269"/>
<path d="M25.6438 7.78568C25.6438 7.78568 18.6891 7.91228 15.5113 6.27918C15.2638 6.15258 15.3159 5.81077 15.5764 5.74747C16.0583 5.63353 16.8658 5.50694 18.2072 5.4563C18.1942 5.46896 20.6948 7.46919 25.6438 7.78568Z" fill="#E85E5C"/>
<path d="M8.47846 36.46C8.6087 37.1689 8.99942 37.9158 10.1195 38.1564C10.0804 38.0551 10.0413 37.9665 10.0022 37.8779C9.88503 37.5867 9.83294 37.3588 9.84596 37.2322C9.88503 36.8144 11.2265 35.8143 12.7763 34.6243C12.9066 33.9534 13.2191 31.9405 12.7763 30.3454C12.2423 28.3958 8.3352 35.6624 8.47846 36.46Z" fill="#E85E5C"/>
<path d="M33.8749 40.0047C33.8749 40.0047 38.6676 39.6249 40.2305 42.334C40.2305 42.334 40.1002 43.2455 39.1755 42.967C39.1755 42.967 35.1251 40.2832 33.1325 40.4857C33.1325 40.4857 33.4451 40.0047 33.8749 40.0047Z" fill="#E85E5C"/>
<path d="M10.1323 38.1563C10.1323 38.1563 7.64478 38.2576 4.51908 39.5869C4.51908 39.5869 3.82881 38.9286 4.10231 38.5488C4.37581 38.1563 8.77785 36.7891 10.1323 38.1563Z" fill="#E85E5C"/>
<path d="M25.8129 45.2711C25.8129 45.2711 24.8752 45.3723 24.198 44.9419C23.5338 44.5241 22.1142 44.3849 21.2546 44.2963C20.382 44.195 21.0593 44.79 21.7235 45.0432C22.3877 45.309 22.6482 45.7395 22.6482 45.7395C22.6482 45.7395 21.5542 46.6003 20.903 46.9168C19.6787 47.5245 18.5066 47.8157 18.6368 47.9043C20.6946 49.2968 26.7637 47.8157 26.7637 47.8157L25.8129 45.2711Z" fill="#FC9290"/>
</g>
<defs>
<clipPath id="clip0">
<rect width="46" height="111" fill="white" transform="matrix(-1 0 0 1 46 0)"/>
</clipPath>
</defs>
</svg>
