<svg width="10" height="8" viewBox="0 0 10 8" fill="none" xmlns="http://www.w3.org/2000/svg">
<path d="M3.15059 7.41484C3.21958 7.51113 3.31052 7.58959 3.41589 7.64372C3.52125 7.69784 3.638 7.72608 3.75645 7.72608C3.8749 7.72608 3.99165 7.69784 4.09701 7.64372C4.20237 7.58959 4.29332 7.51113 4.36231 7.41484L9.29825 0.571094C9.38731 0.446875 9.29825 0.273438 9.1459 0.273438H8.04668C7.80762 0.273438 7.58028 0.388281 7.43965 0.585156L3.75762 5.69453L2.08887 3.37891C1.94825 3.18438 1.72325 3.06719 1.48184 3.06719H0.382621C0.230277 3.06719 0.141215 3.24062 0.230277 3.36484L3.15059 7.41484Z" fill="#5D5C5C"/>
</svg>
